<svg width="18" height="18" viewBox="0 0 18 18" fill="none" xmlns="http://www.w3.org/2000/svg">
<path d="M16.0833 9H11.125C10.6652 9 10.2178 8.8509 9.84997 8.575L8.14997 7.3C7.78213 7.02413 7.33475 6.875 6.87497 6.875H1.91663" stroke="#B9B9B9" stroke-linecap="round" stroke-linejoin="round"/>
<path d="M2.625 6.875V8.29167C2.625 10.9629 2.625 12.2986 3.45486 13.1285C4.28473 13.9583 5.62038 13.9583 8.29168 13.9583H10.4167C12.4063 13.9583 13.4012 13.9583 14.1158 13.4808C14.4251 13.2741 14.6908 13.0085 14.8975 12.6991C15.375 11.9845 15.375 10.9896 15.375 9" stroke="#B9B9B9" stroke-linecap="round" stroke-linejoin="round"/>
<path d="M13.25 13.9584V15.375M4.75 13.9584V15.375" stroke="#B9B9B9" stroke-linecap="round" stroke-linejoin="round"/>
<path d="M2.625 9V4.41241C2.625 3.42525 3.42525 2.625 4.41241 2.625C5.20451 2.625 5.90214 3.14632 6.12657 3.90596L6.16667 4.04167" stroke="#B9B9B9" stroke-linecap="round"/>
<path d="M5.45837 4.75004L7.22921 3.33337" stroke="#B9B9B9" stroke-linecap="round"/>
</svg>
