<svg width="18" height="18" viewBox="0 0 18 18" fill="none" xmlns="http://www.w3.org/2000/svg">
<path d="M1.91663 2.97913V15.0208" stroke="#B9B9B9" stroke-linecap="round" stroke-linejoin="round"/>
<path d="M16.0834 6.52087V15.0209" stroke="#B9B9B9" stroke-linecap="round" stroke-linejoin="round"/>
<path d="M1.91663 6.52087L4.74996 7.93754H16.0833" stroke="#B9B9B9" stroke-linecap="round" stroke-linejoin="round"/>
<path d="M1.91663 11.4791H4.74996M16.0833 11.4791H13.9583" stroke="#B9B9B9" stroke-linecap="round" stroke-linejoin="round"/>
<path d="M4.75 7.9375V12.1875C4.75 13.3596 4.99461 13.6042 6.16667 13.6042H12.5417C13.7138 13.6042 13.9583 13.3596 13.9583 12.1875V7.9375" stroke="#B9B9B9" stroke-linecap="round" stroke-linejoin="round"/>
<path d="M5.32628 7.93754C5.38311 7.63721 5.47261 7.32305 5.45523 7.01468C5.42955 6.55884 5.20115 6.1428 4.8395 5.89307C4.69668 5.79445 4.38163 5.69382 4.05061 5.60778C3.56761 5.48225 3.32611 5.41947 3.04388 5.48419C2.84342 5.53015 2.66929 5.63678 2.42036 5.82727C2.39293 5.84826 2.37922 5.85875 2.35784 5.87648C2.18884 6.01663 2.039 6.2193 1.95454 6.42195C1.94385 6.44758 1.93477 6.47202 1.91663 6.52088" stroke="#B9B9B9" stroke-linecap="round" stroke-linejoin="round"/>
</svg>
