<svg width="230" height="30" viewBox="0 0 230 30" fill="none" xmlns="http://www.w3.org/2000/svg">
<path d="M23.2109 20.6016C23.2109 21.7604 22.9896 22.8477 22.5469 23.8633C22.1042 24.8789 21.4987 25.7708 20.7305 26.5391C19.9753 27.2943 19.0898 27.8932 18.0742 28.3359C17.0586 28.7786 15.9714 29 14.8125 29H0.808594V0.992188H14.8125C15.9714 0.992188 17.0586 1.21354 18.0742 1.65625C19.0898 2.09896 19.9753 2.70443 20.7305 3.47266C21.4987 4.22786 22.1042 5.11328 22.5469 6.12891C22.9896 7.14453 23.2109 8.23177 23.2109 9.39062C23.2109 9.91146 23.1393 10.4453 22.9961 10.9922C22.8529 11.5391 22.651 12.0664 22.3906 12.5742C22.1302 13.082 21.8177 13.5443 21.4531 13.9609C21.0885 14.3776 20.6849 14.7227 20.2422 14.9961C20.6979 15.2435 21.1081 15.582 21.4727 16.0117C21.8372 16.4284 22.1497 16.8906 22.4102 17.3984C22.6706 17.9062 22.8659 18.4401 22.9961 19C23.1393 19.5469 23.2109 20.0807 23.2109 20.6016ZM6.41406 23.3945H14.8125C15.2031 23.3945 15.5677 23.3229 15.9062 23.1797C16.2448 23.0365 16.5378 22.8411 16.7852 22.5938C17.0456 22.3333 17.2474 22.0339 17.3906 21.6953C17.5339 21.3568 17.6055 20.9922 17.6055 20.6016C17.6055 20.2109 17.5339 19.8464 17.3906 19.5078C17.2474 19.1693 17.0456 18.8763 16.7852 18.6289C16.5378 18.3685 16.2448 18.1667 15.9062 18.0234C15.5677 17.8802 15.2031 17.8086 14.8125 17.8086H6.41406V23.3945ZM6.41406 12.2031H14.8125C15.2031 12.2031 15.5677 12.1315 15.9062 11.9883C16.2448 11.8451 16.5378 11.6497 16.7852 11.4023C17.0456 11.1419 17.2474 10.8424 17.3906 10.5039C17.5339 10.1523 17.6055 9.78125 17.6055 9.39062C17.6055 9 17.5339 8.63542 17.3906 8.29688C17.2474 7.95833 17.0456 7.66536 16.7852 7.41797C16.5378 7.15755 16.2448 6.95573 15.9062 6.8125C15.5677 6.66927 15.2031 6.59766 14.8125 6.59766H6.41406V12.2031ZM49.5391 17.8086C49.5391 19.3581 49.2461 20.8164 48.6602 22.1836C48.0742 23.5378 47.2734 24.7227 46.2578 25.7383C45.2422 26.7409 44.0508 27.5352 42.6836 28.1211C41.3294 28.707 39.8776 29 38.3281 29C36.7786 29 35.3203 28.707 33.9531 28.1211C32.599 27.5352 31.4141 26.7409 30.3984 25.7383C29.3958 24.7227 28.6016 23.5378 28.0156 22.1836C27.4297 20.8164 27.1367 19.3581 27.1367 17.8086V0.992188H32.7227V17.8086C32.7227 18.5768 32.8659 19.2995 33.1523 19.9766C33.4518 20.6536 33.8555 21.2461 34.3633 21.7539C34.8711 22.2617 35.4635 22.6654 36.1406 22.9648C36.8307 23.2513 37.5599 23.3945 38.3281 23.3945C39.0964 23.3945 39.819 23.2513 40.4961 22.9648C41.1862 22.6654 41.7852 22.2617 42.293 21.7539C42.8008 21.2461 43.1979 20.6536 43.4844 19.9766C43.7839 19.2995 43.9336 18.5768 43.9336 17.8086V0.992188H49.5391V17.8086ZM52.7617 9.39062C52.7617 8.23177 52.9831 7.14453 53.4258 6.12891C53.8685 5.11328 54.4674 4.22786 55.2227 3.47266C55.9909 2.70443 56.8828 2.09896 57.8984 1.65625C58.9141 1.21354 60.0013 0.992188 61.1602 0.992188H74.0117V6.59766H61.1602C60.7695 6.59766 60.4049 6.66927 60.0664 6.8125C59.7279 6.95573 59.4284 7.15755 59.168 7.41797C58.9206 7.66536 58.7253 7.95833 58.582 8.29688C58.4388 8.63542 58.3672 9 58.3672 9.39062C58.3672 9.78125 58.4388 10.1523 58.582 10.5039C58.7253 10.8424 58.9206 11.1419 59.168 11.4023C59.4284 11.6497 59.7279 11.8451 60.0664 11.9883C60.4049 12.1315 60.7695 12.2031 61.1602 12.2031H66.7656C67.9245 12.2031 69.0117 12.4245 70.0273 12.8672C71.056 13.2969 71.9479 13.8958 72.7031 14.6641C73.4714 15.4193 74.0703 16.3112 74.5 17.3398C74.9427 18.3555 75.1641 19.4427 75.1641 20.6016C75.1641 21.7604 74.9427 22.8477 74.5 23.8633C74.0703 24.8789 73.4714 25.7708 72.7031 26.5391C71.9479 27.2943 71.056 27.8932 70.0273 28.3359C69.0117 28.7786 67.9245 29 66.7656 29H54.3242V23.3945H66.7656C67.1562 23.3945 67.5208 23.3229 67.8594 23.1797C68.1979 23.0365 68.4909 22.8411 68.7383 22.5938C68.9987 22.3333 69.2005 22.0339 69.3438 21.6953C69.487 21.3568 69.5586 20.9922 69.5586 20.6016C69.5586 20.2109 69.487 19.8464 69.3438 19.5078C69.2005 19.1693 68.9987 18.8763 68.7383 18.6289C68.4909 18.3685 68.1979 18.1667 67.8594 18.0234C67.5208 17.8802 67.1562 17.8086 66.7656 17.8086H61.1602C60.0013 17.8086 58.9141 17.5872 57.8984 17.1445C56.8828 16.7018 55.9909 16.1029 55.2227 15.3477C54.4674 14.5794 53.8685 13.6875 53.4258 12.6719C52.9831 11.6432 52.7617 10.5495 52.7617 9.39062ZM84.4609 29H78.8555V0.992188H84.4609V12.2031H95.6523V0.992188H101.258V29H95.6523V17.8086H84.4609V29ZM112.078 29H106.473V0.992188H112.078V29ZM150.945 14.9961C150.945 16.2852 150.776 17.5286 150.438 18.7266C150.112 19.9115 149.643 21.0247 149.031 22.0664C148.419 23.0951 147.69 24.0391 146.844 24.8984C145.997 25.7448 145.053 26.474 144.012 27.0859C142.97 27.6979 141.85 28.1732 140.652 28.5117C139.467 28.8372 138.23 29 136.941 29H128.504V0.992188H136.941C138.23 0.992188 139.467 1.16146 140.652 1.5C141.85 1.82552 142.97 2.29427 144.012 2.90625C145.053 3.51823 145.997 4.25391 146.844 5.11328C147.69 5.95964 148.419 6.90365 149.031 7.94531C149.643 8.97396 150.112 10.0872 150.438 11.2852C150.776 12.4701 150.945 13.707 150.945 14.9961ZM145.34 14.9961C145.34 13.8372 145.118 12.75 144.676 11.7344C144.246 10.7188 143.647 9.83333 142.879 9.07812C142.124 8.3099 141.232 7.70443 140.203 7.26172C139.188 6.81901 138.1 6.59766 136.941 6.59766H134.148V23.3945H136.941C138.1 23.3945 139.188 23.1797 140.203 22.75C141.232 22.3073 142.124 21.7083 142.879 20.9531C143.647 20.1849 144.246 19.293 144.676 18.2773C145.118 17.2487 145.34 16.1549 145.34 14.9961ZM182.117 15.1133C182.117 16.4414 181.941 17.724 181.59 18.9609C181.251 20.1849 180.77 21.3372 180.145 22.418C179.52 23.4857 178.764 24.4622 177.879 25.3477C176.993 26.2331 176.017 26.9948 174.949 27.6328C173.882 28.2578 172.729 28.7396 171.492 29.0781C170.255 29.4297 168.973 29.6055 167.645 29.6055C166.316 29.6055 165.034 29.4297 163.797 29.0781C162.573 28.7396 161.421 28.2578 160.34 27.6328C159.272 26.9948 158.296 26.2331 157.41 25.3477C156.525 24.4622 155.763 23.4857 155.125 22.418C154.5 21.3372 154.012 20.1849 153.66 18.9609C153.322 17.724 153.152 16.4414 153.152 15.1133C153.152 13.7852 153.322 12.5026 153.66 11.2656C154.012 10.0286 154.5 8.8763 155.125 7.80859C155.763 6.74089 156.525 5.76432 157.41 4.87891C158.296 3.99349 159.272 3.23828 160.34 2.61328C161.421 1.98828 162.573 1.50651 163.797 1.16797C165.034 0.816406 166.316 0.640625 167.645 0.640625C168.973 0.640625 170.255 0.816406 171.492 1.16797C172.729 1.50651 173.882 1.98828 174.949 2.61328C176.017 3.23828 176.993 3.99349 177.879 4.87891C178.764 5.76432 179.52 6.74089 180.145 7.80859C180.77 8.8763 181.251 10.0286 181.59 11.2656C181.941 12.5026 182.117 13.7852 182.117 15.1133ZM176.551 15.1133C176.551 13.8893 176.316 12.737 175.848 11.6562C175.379 10.5625 174.741 9.61849 173.934 8.82422C173.139 8.01693 172.195 7.37891 171.102 6.91016C170.021 6.44141 168.868 6.20703 167.645 6.20703C166.408 6.20703 165.249 6.44141 164.168 6.91016C163.087 7.37891 162.143 8.01693 161.336 8.82422C160.529 9.61849 159.891 10.5625 159.422 11.6562C158.953 12.737 158.719 13.8893 158.719 15.1133C158.719 16.3372 158.953 17.4896 159.422 18.5703C159.891 19.638 160.529 20.5755 161.336 21.3828C162.143 22.1901 163.087 22.8281 164.168 23.2969C165.249 23.7656 166.408 24 167.645 24C168.868 24 170.021 23.7656 171.102 23.2969C172.195 22.8281 173.139 22.1901 173.934 21.3828C174.741 20.5755 175.379 19.638 175.848 18.5703C176.316 17.4896 176.551 16.3372 176.551 15.1133ZM184.168 9.39062C184.168 8.23177 184.389 7.14453 184.832 6.12891C185.275 5.11328 185.874 4.22786 186.629 3.47266C187.397 2.70443 188.289 2.09896 189.305 1.65625C190.32 1.21354 191.408 0.992188 192.566 0.992188H205.418V6.59766H192.566C192.176 6.59766 191.811 6.66927 191.473 6.8125C191.134 6.95573 190.835 7.15755 190.574 7.41797C190.327 7.66536 190.132 7.95833 189.988 8.29688C189.845 8.63542 189.773 9 189.773 9.39062C189.773 9.78125 189.845 10.1523 189.988 10.5039C190.132 10.8424 190.327 11.1419 190.574 11.4023C190.835 11.6497 191.134 11.8451 191.473 11.9883C191.811 12.1315 192.176 12.2031 192.566 12.2031H198.172C199.331 12.2031 200.418 12.4245 201.434 12.8672C202.462 13.2969 203.354 13.8958 204.109 14.6641C204.878 15.4193 205.477 16.3112 205.906 17.3398C206.349 18.3555 206.57 19.4427 206.57 20.6016C206.57 21.7604 206.349 22.8477 205.906 23.8633C205.477 24.8789 204.878 25.7708 204.109 26.5391C203.354 27.2943 202.462 27.8932 201.434 28.3359C200.418 28.7786 199.331 29 198.172 29H185.73V23.3945H198.172C198.562 23.3945 198.927 23.3229 199.266 23.1797C199.604 23.0365 199.897 22.8411 200.145 22.5938C200.405 22.3333 200.607 22.0339 200.75 21.6953C200.893 21.3568 200.965 20.9922 200.965 20.6016C200.965 20.2109 200.893 19.8464 200.75 19.5078C200.607 19.1693 200.405 18.8763 200.145 18.6289C199.897 18.3685 199.604 18.1667 199.266 18.0234C198.927 17.8802 198.562 17.8086 198.172 17.8086H192.566C191.408 17.8086 190.32 17.5872 189.305 17.1445C188.289 16.7018 187.397 16.1029 186.629 15.3477C185.874 14.5794 185.275 13.6875 184.832 12.6719C184.389 11.6432 184.168 10.5495 184.168 9.39062ZM229.461 29H210.262V0.992188H229.461V6.59766H215.867V12.2031H225.066V17.8086H215.867V23.3945H229.461V29Z" fill="#00253F"/>
</svg>
