<svg width="21" height="22" viewBox="0 0 21 22" fill="none" xmlns="http://www.w3.org/2000/svg">
<path opacity="0.4" d="M15.1667 1H5.83333C2.42889 1 0.5 2.92889 0.5 6.33333V15.6667C0.5 19.0622 2.42 21 5.83333 21H15.1667C18.5711 21 20.5 19.0622 20.5 15.6667V6.33333C20.5 2.92889 18.5711 1 15.1667 1Z" fill="#FCFCFC"/>
<path d="M9.81912 13.3209C9.62583 13.3219 9.43253 13.2523 9.28353 13.1091L7.36671 11.2656C7.07073 10.9793 7.06771 10.5145 7.36067 10.2262C7.65363 9.9369 8.13183 9.93396 8.42882 10.2193L9.80804 11.5451L13.1756 8.22479C13.4695 7.93552 13.9477 7.93258 14.2437 8.21793C14.5407 8.50426 14.5437 8.97004 14.2508 9.25735L10.3517 13.1022C10.2047 13.2474 10.0124 13.3199 9.81912 13.3209Z" fill="#00253F"/>
</svg>
