<svg width="16" height="16" viewBox="0 0 16 16" fill="none" xmlns="http://www.w3.org/2000/svg">
<g clip-path="url(#clip0_2103_836)">
<path d="M9.38251 2.59028C9.87931 2.05203 10.1277 1.78291 10.3916 1.62593C11.0285 1.24715 11.8128 1.23537 12.4603 1.59486C12.7286 1.74385 12.9846 2.00539 13.4967 2.52849C14.0088 3.05158 14.2648 3.31313 14.4106 3.58727C14.7626 4.24873 14.751 5.04984 14.3802 5.70045C14.2266 5.97009 13.9631 6.22383 13.4362 6.73131L7.16711 12.7695C6.16863 13.7312 5.66938 14.2121 5.04542 14.4558C4.42145 14.6995 3.73551 14.6816 2.36361 14.6457L2.17696 14.6408C1.75931 14.6299 1.55049 14.6244 1.4291 14.4866C1.30771 14.3489 1.32428 14.1362 1.35743 13.7108L1.37543 13.4798C1.46871 12.2823 1.51535 11.6836 1.74918 11.1454C1.983 10.6072 2.38633 10.1703 3.19299 9.29631L9.38251 2.59028Z" stroke="#00253F" stroke-width="1.5" stroke-linejoin="round"/>
<path d="M8.66675 2.66663L13.3334 7.33329" stroke="#00253F" stroke-width="1.5" stroke-linejoin="round"/>
<path d="M9.33337 14.6666H14.6667" stroke="#00253F" stroke-width="1.5" stroke-linecap="round" stroke-linejoin="round"/>
</g>
<defs>
<clipPath id="clip0_2103_836">
<rect width="16" height="16" fill="white"/>
</clipPath>
</defs>
</svg>
