<svg width="18" height="18" viewBox="0 0 18 18" fill="none" xmlns="http://www.w3.org/2000/svg">
<path d="M5.80115 10.299C5.80115 10.299 6.48024 9.38244 6.92615 9.17364C8.27228 8.54342 8.5461 8.26952 9.17618 6.92297C9.3849 6.47692 10.3012 5.79761 10.3012 5.79761M7.67618 12.1746C7.67618 12.1746 8.59245 11.4953 8.80118 11.0492C9.43125 9.70277 9.70508 9.42887 11.0512 8.79857C11.4971 8.58977 12.1762 7.67319 12.1762 7.67319" stroke="#B9B9B9" stroke-linecap="round" stroke-linejoin="round"/>
<path d="M10.8233 2.16932C11.2035 1.78784 11.8208 1.78686 12.2022 2.16714L15.811 5.76571C16.1924 6.14599 16.1934 6.76352 15.8132 7.14501L14.6668 8.29549C14.2866 8.67694 13.6693 8.67792 13.2879 8.29767L9.67904 4.69907C9.29774 4.31879 9.29676 3.70126 9.67686 3.31978L10.8233 2.16932Z" stroke="#B9B9B9"/>
<path d="M3.31033 9.67699C3.69049 9.29554 4.30782 9.29456 4.68919 9.67481L8.29808 13.2734C8.67938 13.6537 8.68035 14.2712 8.30025 14.6527L7.15377 15.8031C6.77361 16.1847 6.15628 16.1856 5.77491 15.8053L2.16606 12.2067C1.78469 11.8265 1.78372 11.2089 2.16388 10.8275L3.31033 9.67699Z" stroke="#B9B9B9"/>
<path d="M13.4533 2.58938C14.8651 0.739077 17.355 2.88005 15.4073 4.52152M2.53358 13.483C0.748855 14.9765 2.99837 17.3689 4.55057 15.3492" stroke="#B9B9B9" stroke-linecap="round" stroke-linejoin="round"/>
</svg>
