<svg width="273" height="273" viewBox="0 0 273 273" fill="none" xmlns="http://www.w3.org/2000/svg">
<circle cx="136.077" cy="136.077" r="136.077" fill="#E13A4B"/>
<path d="M119.584 167.885V167.712C119.584 167.712 119.376 167.712 119.584 167.885Z" fill="#202147"/>
<path d="M131.412 198.598C131.352 198.405 131.271 198.219 131.17 198.044C131.004 197.787 130.779 197.573 130.513 197.422L129.717 197.041C129.201 196.83 128.704 196.575 128.23 196.28L127.988 196.038C127.777 195.841 127.499 195.732 127.21 195.732C126.921 195.732 126.643 195.841 126.431 196.038C126.227 196.246 126.112 196.525 126.112 196.817C126.112 197.108 126.227 197.388 126.431 197.595C127.162 198.268 128.038 198.765 128.991 199.047H128.714L129.406 199.393C129.583 199.51 129.768 199.614 129.959 199.704C130.074 199.689 130.19 199.689 130.305 199.704C130.458 199.747 130.62 199.748 130.774 199.708C130.928 199.667 131.069 199.586 131.181 199.474C131.294 199.361 131.374 199.221 131.415 199.067C131.456 198.913 131.454 198.751 131.412 198.598Z" fill="white"/>
<path d="M174.506 171.932C174.47 171.842 174.408 171.765 174.328 171.711C174.248 171.656 174.153 171.627 174.057 171.627C173.96 171.627 173.865 171.656 173.785 171.711C173.705 171.765 173.643 171.842 173.607 171.932V172.105C173.501 172.27 173.409 172.444 173.33 172.624V172.831L173.054 173.246L172.708 173.627L171.982 174.284C171.907 174.352 171.848 174.435 171.807 174.527C171.766 174.619 171.745 174.719 171.745 174.82C171.745 174.921 171.766 175.02 171.807 175.113C171.848 175.205 171.907 175.288 171.982 175.356C172.122 175.487 172.308 175.56 172.5 175.56C172.693 175.56 172.878 175.487 173.019 175.356C173.614 174.876 174.128 174.304 174.541 173.661C174.748 173.333 174.922 172.986 175.06 172.624C174.915 172.364 174.728 172.13 174.506 171.932Z" fill="white"/>
<path d="M181.873 154.293C181.61 154.518 181.388 154.787 181.216 155.088L180.697 155.918C180.519 156.231 180.391 156.569 180.317 156.921C180.215 157.272 180.145 157.63 180.109 157.994C180.114 158.149 180.171 158.299 180.272 158.418C180.372 158.538 180.51 158.62 180.663 158.651C180.821 158.666 180.98 158.626 181.112 158.538C181.244 158.449 181.342 158.318 181.389 158.166C181.45 157.869 181.542 157.579 181.666 157.302C181.666 157.025 181.666 157.302 181.666 157.302V156.956C181.651 156.806 181.651 156.656 181.666 156.506C181.742 156.225 181.835 155.948 181.943 155.676C182.087 155.385 182.169 155.067 182.184 154.742C182.196 154.642 182.171 154.542 182.114 154.459C182.056 154.376 181.971 154.317 181.873 154.293Z" fill="white"/>
<path d="M181.043 127.592C180.973 127.542 180.888 127.514 180.801 127.514C180.714 127.514 180.629 127.542 180.559 127.592C180.351 127.765 180.109 127.904 179.936 128.077L179.417 128.595L178.38 129.598C178.32 129.643 178.271 129.7 178.236 129.765C178.2 129.83 178.179 129.902 178.174 129.977C178.168 130.051 178.179 130.125 178.205 130.195C178.231 130.264 178.272 130.328 178.324 130.38C178.377 130.433 178.44 130.473 178.51 130.499C178.579 130.525 178.654 130.536 178.728 130.531C178.802 130.526 178.874 130.504 178.94 130.469C179.005 130.433 179.062 130.384 179.106 130.325L180.109 129.287L180.593 128.768C180.785 128.577 180.958 128.368 181.112 128.146C181.171 128.061 181.197 127.958 181.185 127.856C181.172 127.753 181.121 127.66 181.043 127.592Z" fill="white"/>
<path d="M176.478 151.526C176.383 151.441 176.259 151.394 176.132 151.394C176.004 151.394 175.881 151.441 175.786 151.526C175.541 151.691 175.309 151.876 175.094 152.079C174.89 152.323 174.716 152.59 174.576 152.875C174.253 153.419 174.085 154.041 174.091 154.673C174.087 154.758 174.099 154.843 174.128 154.922C174.158 155.002 174.203 155.074 174.261 155.136C174.319 155.197 174.389 155.246 174.467 155.28C174.545 155.313 174.629 155.331 174.714 155.33C174.801 155.335 174.889 155.322 174.971 155.291C175.053 155.259 175.128 155.211 175.19 155.149C175.252 155.087 175.3 155.013 175.331 154.931C175.363 154.849 175.376 154.761 175.371 154.673C175.354 154.57 175.354 154.465 175.371 154.362C175.357 154.247 175.357 154.131 175.371 154.016C175.371 154.016 175.371 154.016 175.371 153.843L175.786 153.186L175.993 152.909C176.177 152.974 176.378 152.962 176.554 152.878C176.729 152.794 176.863 152.643 176.927 152.46C176.992 152.276 176.98 152.075 176.896 151.9C176.812 151.725 176.661 151.59 176.478 151.526Z" fill="white"/>
<path d="M182.876 149.589H182.115H180.075C179.937 149.589 179.805 149.644 179.708 149.741C179.61 149.838 179.556 149.97 179.556 150.108C179.556 150.245 179.61 150.377 179.708 150.475C179.805 150.572 179.937 150.627 180.075 150.627H182.115H182.876C182.876 150.627 183.153 150.419 183.153 150.281C183.205 150.223 183.239 150.152 183.253 150.076C183.267 149.999 183.259 149.921 183.23 149.849C183.201 149.777 183.153 149.714 183.09 149.668C183.028 149.622 182.953 149.595 182.876 149.589Z" fill="white"/>
<path d="M174.506 145.473C173.538 145.715 173.296 146.822 173.192 147.687C173.192 147.86 173.192 148.033 173.192 148.24C173.209 148.32 173.209 148.403 173.192 148.482C173.192 148.309 173.192 148.482 173.192 148.482C173.212 148.574 173.212 148.668 173.192 148.759C173.202 148.828 173.202 148.898 173.192 148.967C173.086 149.12 173.037 149.305 173.054 149.491C173.071 149.676 173.152 149.85 173.284 149.982C173.416 150.113 173.589 150.195 173.775 150.211C173.96 150.228 174.146 150.179 174.299 150.073C174.608 149.704 174.822 149.265 174.921 148.794C174.974 148.38 174.974 147.962 174.921 147.549C174.904 147.376 174.904 147.202 174.921 147.03V146.649C174.906 146.558 174.906 146.464 174.921 146.373V146.096C174.936 146.028 174.938 145.957 174.925 145.888C174.912 145.82 174.885 145.754 174.846 145.696C174.808 145.638 174.758 145.588 174.699 145.55C174.641 145.512 174.575 145.486 174.506 145.473Z" fill="white"/>
<path d="M120.552 121.332C120.566 121.183 120.566 121.032 120.552 120.883C120.483 120.766 120.379 120.673 120.255 120.617C120.131 120.561 119.993 120.545 119.86 120.571C119.723 120.609 119.601 120.69 119.514 120.802C119.427 120.914 119.378 121.052 119.376 121.194V121.436C119.359 121.539 119.359 121.644 119.376 121.747C119.392 121.85 119.392 121.955 119.376 122.059V122.335C119.376 122.093 119.376 122.335 119.376 122.335L119.064 122.992C118.996 123.182 118.996 123.39 119.064 123.58C119.139 123.776 119.272 123.945 119.445 124.065C119.635 124.133 119.843 124.133 120.033 124.065C120.236 124.001 120.408 123.866 120.517 123.684C120.749 123.191 120.945 122.683 121.105 122.162C121.138 121.887 121.138 121.608 121.105 121.332C120.924 121.28 120.733 121.28 120.552 121.332Z" fill="white"/>
<path d="M127.538 124.307L127.296 123.926V123.684C127.237 123.513 127.155 123.35 127.054 123.2V122.992C126.811 122.286 126.422 121.638 125.913 121.09C125.803 120.98 125.653 120.919 125.498 120.919C125.342 120.919 125.193 120.98 125.083 121.09C124.971 121.206 124.908 121.361 124.908 121.522C124.908 121.684 124.971 121.839 125.083 121.955C125.095 122.012 125.095 122.071 125.083 122.128C125.195 122.265 125.288 122.416 125.359 122.577C125.532 122.86 125.671 123.162 125.774 123.477C125.901 123.805 126.063 124.118 126.259 124.41C126.469 124.685 126.726 124.919 127.02 125.102C127.125 125.171 127.254 125.195 127.377 125.169C127.5 125.143 127.608 125.069 127.677 124.964C127.746 124.858 127.77 124.73 127.744 124.607C127.718 124.483 127.644 124.375 127.538 124.307Z" fill="white"/>
<path d="M122.627 113.481C122.608 113.459 122.584 113.441 122.557 113.429C122.53 113.417 122.501 113.411 122.472 113.411C122.442 113.411 122.413 113.417 122.386 113.429C122.359 113.441 122.335 113.459 122.316 113.481C122.08 113.752 121.826 114.006 121.555 114.242C121.529 114.257 121.499 114.265 121.468 114.265C121.438 114.265 121.408 114.257 121.382 114.242C121.257 114.273 121.127 114.273 121.002 114.242C120.872 114.282 120.761 114.368 120.69 114.484C120.654 114.552 120.631 114.627 120.624 114.704C120.616 114.781 120.624 114.858 120.647 114.932C120.669 115.006 120.706 115.075 120.755 115.134C120.804 115.194 120.864 115.243 120.932 115.28C121.009 115.314 121.091 115.332 121.175 115.332C121.258 115.332 121.341 115.314 121.417 115.28C121.763 115.114 122.052 114.849 122.247 114.519C122.42 114.242 122.523 113.896 122.696 113.585C122.682 113.546 122.658 113.51 122.627 113.481Z" fill="white"/>
<path d="M128.403 109.331V108.777C128.42 108.663 128.42 108.546 128.403 108.432C128.376 108.339 128.322 108.257 128.248 108.195C128.174 108.134 128.083 108.096 127.988 108.086C127.889 108.084 127.792 108.118 127.716 108.182C127.64 108.245 127.589 108.334 127.573 108.432C127.573 108.432 127.573 108.674 127.573 108.777V109.331V110.472C127.513 110.616 127.513 110.778 127.573 110.922C127.709 111.04 127.878 111.112 128.057 111.129C128.224 111.105 128.38 111.033 128.507 110.922C128.57 110.866 128.618 110.797 128.649 110.718C128.679 110.64 128.689 110.556 128.68 110.472L128.403 109.331Z" fill="white"/>
<path d="M145.108 115.314C144.963 115.196 144.799 115.103 144.624 115.038H144.416C144.15 114.897 143.896 114.735 143.656 114.553C143.102 114.114 142.449 113.817 141.753 113.689C141.486 113.585 141.19 113.585 140.923 113.689C140.798 113.754 140.689 113.848 140.605 113.962C140.522 114.075 140.465 114.207 140.439 114.346C140.38 114.476 140.349 114.618 140.349 114.761C140.349 114.904 140.38 115.046 140.439 115.176C140.578 115.411 140.8 115.584 141.062 115.66C141.561 115.756 142.048 115.907 142.514 116.11H142.272C142.671 116.318 143.088 116.492 143.517 116.629H144.036C144.254 116.663 144.475 116.663 144.693 116.629L145.073 116.456C145.162 116.39 145.234 116.306 145.285 116.208C145.336 116.111 145.365 116.003 145.368 115.893C145.371 115.783 145.35 115.674 145.305 115.574C145.26 115.474 145.192 115.385 145.108 115.314Z" fill="white"/>
<path d="M144.935 127.523C144.664 127.24 144.375 126.975 144.07 126.728C143.823 126.527 143.592 126.307 143.379 126.071C143.285 125.94 143.204 125.801 143.137 125.656V125.379C143.117 125.149 143.117 124.917 143.137 124.687C143.113 124.598 143.071 124.514 143.015 124.441C142.958 124.369 142.887 124.308 142.806 124.263C142.726 124.217 142.637 124.189 142.545 124.179C142.453 124.168 142.36 124.177 142.272 124.203C142.09 124.252 141.935 124.369 141.838 124.531C141.741 124.692 141.711 124.884 141.753 125.068C141.919 125.918 142.314 126.707 142.894 127.35C143.503 127.848 144.164 128.277 144.866 128.63C145.013 128.639 145.157 128.59 145.267 128.492C145.378 128.395 145.445 128.258 145.454 128.111C145.463 127.964 145.413 127.82 145.316 127.71C145.219 127.599 145.082 127.532 144.935 127.523Z" fill="white"/>
<path d="M145.108 105.907C145.124 105.831 145.122 105.752 145.103 105.676C145.084 105.601 145.048 105.531 144.998 105.471C144.949 105.411 144.886 105.363 144.815 105.331C144.744 105.299 144.667 105.283 144.589 105.284C144.444 105.234 144.285 105.234 144.14 105.284L143.863 105.526C143.722 105.641 143.604 105.782 143.517 105.941C143.409 106.1 143.327 106.275 143.275 106.46C143.255 106.656 143.255 106.853 143.275 107.048C143.259 107.151 143.259 107.256 143.275 107.359C143.259 107.439 143.259 107.522 143.275 107.602C143.422 107.749 143.62 107.835 143.828 107.844C143.933 107.848 144.037 107.828 144.133 107.786C144.229 107.744 144.314 107.681 144.382 107.602C144.529 107.454 144.616 107.256 144.624 107.048C144.607 106.933 144.607 106.817 144.624 106.702C144.624 106.702 144.624 106.702 144.624 106.495L144.797 106.218C144.916 106.12 145.001 105.987 145.039 105.838L145.108 105.907Z" fill="white"/>
<path d="M149.397 120.813L149.086 120.641L148.498 120.26C148.022 119.959 147.469 119.803 146.907 119.81C146.791 119.803 146.675 119.822 146.568 119.867C146.461 119.911 146.366 119.979 146.289 120.066C146.213 120.152 146.157 120.256 146.126 120.367C146.095 120.479 146.09 120.596 146.111 120.71C146.122 120.825 146.158 120.937 146.217 121.037C146.276 121.137 146.356 121.223 146.451 121.289C146.547 121.355 146.656 121.399 146.77 121.419C146.885 121.438 147.002 121.432 147.114 121.401H147.425H147.737H148.29C148.689 121.548 149.11 121.63 149.535 121.644C149.645 121.625 149.744 121.564 149.808 121.473C149.873 121.382 149.899 121.269 149.881 121.159C149.863 121.049 149.801 120.951 149.711 120.886C149.62 120.821 149.507 120.795 149.397 120.813Z" fill="white"/>
<path d="M151.956 111.337L149.293 111.095C149.199 111.095 149.106 111.114 149.02 111.151C148.934 111.187 148.856 111.241 148.791 111.309C148.726 111.377 148.676 111.458 148.644 111.546C148.611 111.634 148.597 111.727 148.601 111.821C148.601 112.005 148.674 112.18 148.804 112.31C148.934 112.44 149.11 112.513 149.293 112.513L151.956 112.305C152.233 112.305 152.475 112.098 152.44 111.821C152.445 111.756 152.437 111.691 152.414 111.63C152.392 111.569 152.356 111.513 152.31 111.467C152.264 111.421 152.209 111.386 152.147 111.363C152.086 111.341 152.021 111.332 151.956 111.337Z" fill="white"/>
<path d="M94.958 137.968C94.8209 138.016 94.6924 138.087 94.5776 138.176L94.2663 138.418L93.713 138.902L93.367 139.144V139.317L93.1249 139.525L92.7791 139.698H92.5716C92.3267 139.706 92.0941 139.807 91.9208 139.981C91.7475 140.154 91.6463 140.386 91.6377 140.631C91.6467 140.873 91.7491 141.102 91.9233 141.269C92.0975 141.437 92.3298 141.531 92.5716 141.531C92.9757 141.521 93.3739 141.431 93.7423 141.265C94.1108 141.098 94.4419 140.859 94.7159 140.562C94.9944 140.303 95.2282 139.999 95.4077 139.663L95.6498 139.283C95.6824 139.123 95.6824 138.958 95.6498 138.798C95.688 138.696 95.6985 138.584 95.68 138.476C95.6615 138.368 95.6147 138.267 95.5445 138.183C95.4743 138.099 95.3832 138.034 95.2802 137.997C95.1772 137.959 95.066 137.949 94.958 137.968Z" fill="white"/>
<path d="M108.965 136.031C108.442 136.226 107.96 136.52 107.547 136.896L106.959 137.277L106.544 137.657L105.991 138.037H105.645H105.299H105.057C104.724 138.072 104.388 138.072 104.054 138.037C103.803 138.037 103.562 138.134 103.381 138.309C103.201 138.483 103.095 138.72 103.086 138.971C103.094 139.225 103.199 139.467 103.379 139.646C103.559 139.826 103.8 139.931 104.054 139.94C105.265 140.098 106.493 139.816 107.513 139.144C107.973 138.828 108.381 138.443 108.723 138.003L109.242 137.38C109.475 137.145 109.673 136.877 109.83 136.585C109.836 136.48 109.815 136.376 109.767 136.283C109.72 136.19 109.648 136.111 109.56 136.054C109.472 135.998 109.371 135.966 109.266 135.962C109.161 135.958 109.058 135.982 108.965 136.031Z" fill="white"/>
<path d="M225.659 177.673H225.452C224.991 177.834 224.559 178.068 224.172 178.365C223.429 179.016 222.735 179.721 222.097 180.475C221.98 180.602 221.916 180.769 221.916 180.942C221.916 181.114 221.98 181.281 222.097 181.408C222.228 181.518 222.393 181.578 222.564 181.578C222.735 181.578 222.9 181.518 223.031 181.408L224.068 180.302L224.622 179.783C224.693 179.694 224.775 179.613 224.864 179.541H225.14L225.659 179.333C225.919 179.25 226.155 179.108 226.351 178.918C226.532 178.695 226.661 178.436 226.731 178.157C226.795 178.015 226.801 177.853 226.746 177.707C226.691 177.561 226.58 177.443 226.437 177.379C226.295 177.315 226.133 177.31 225.987 177.365C225.841 177.42 225.723 177.531 225.659 177.673Z" fill="white"/>
<path d="M240.22 147.825C239.754 147.638 239.312 147.394 238.906 147.099C238.468 146.784 237.992 146.529 237.488 146.338C236.366 145.945 235.207 145.667 234.029 145.508C233.956 145.487 233.88 145.482 233.805 145.492C233.73 145.502 233.658 145.527 233.593 145.566C233.529 145.605 233.472 145.657 233.428 145.718C233.384 145.779 233.353 145.849 233.337 145.923C233.311 145.993 233.3 146.068 233.305 146.143C233.31 146.218 233.332 146.291 233.368 146.357C233.404 146.422 233.454 146.48 233.514 146.524C233.575 146.569 233.644 146.6 233.718 146.615C234.894 146.744 236.054 146.999 237.176 147.376C237.626 147.376 238.041 147.825 238.491 148.033C238.966 148.29 239.509 148.399 240.047 148.344C240.22 148.31 240.22 148.067 240.22 147.825Z" fill="white"/>
<path d="M240.739 134.233C240.63 134.133 240.488 134.078 240.341 134.078C240.194 134.078 240.052 134.133 239.943 134.233L239.217 134.821C238.97 135.022 238.739 135.242 238.525 135.478L237.142 136.827C237.015 136.956 236.944 137.13 236.944 137.311C236.944 137.492 237.015 137.666 237.142 137.795C237.206 137.863 237.284 137.917 237.37 137.954C237.457 137.991 237.549 138.011 237.643 138.011C237.737 138.011 237.83 137.991 237.916 137.954C238.002 137.917 238.08 137.863 238.145 137.795L239.459 136.446C239.703 136.254 239.924 136.033 240.116 135.789L240.739 135.028C240.838 134.92 240.894 134.778 240.894 134.631C240.894 134.483 240.838 134.341 240.739 134.233Z" fill="white"/>
<path d="M211.098 132.158C211.073 132.005 210.992 131.867 210.87 131.771C210.749 131.675 210.596 131.628 210.441 131.639C210.284 131.634 210.13 131.683 210.004 131.777C209.879 131.871 209.789 132.006 209.75 132.158C209.73 132.307 209.73 132.458 209.75 132.607V132.4C209.761 132.503 209.761 132.608 209.75 132.711L209.335 133.092C208.806 133.455 208.251 133.778 207.674 134.06C207.496 134.174 207.367 134.352 207.316 134.558C207.264 134.764 207.294 134.982 207.398 135.167C207.506 135.351 207.682 135.487 207.889 135.545C208.095 135.603 208.316 135.579 208.504 135.478C208.989 135.236 209.473 134.994 209.922 134.717C210.507 134.387 210.996 133.91 211.341 133.334C211.458 133.084 211.528 132.814 211.548 132.538C211.418 132.39 211.267 132.261 211.098 132.158Z" fill="white"/>
<path d="M171.843 118.773L170.218 118.496C169.609 118.427 168.994 118.427 168.385 118.496C168.146 118.496 167.917 118.591 167.749 118.76C167.58 118.928 167.485 119.157 167.485 119.395C167.485 119.634 167.58 119.863 167.749 120.031C167.917 120.2 168.146 120.295 168.385 120.295C168.995 120.329 169.607 120.329 170.218 120.295L171.843 119.983C172.004 119.983 172.158 119.92 172.271 119.806C172.385 119.693 172.449 119.539 172.449 119.378C172.449 119.218 172.385 119.064 172.271 118.95C172.158 118.837 172.004 118.773 171.843 118.773Z" fill="white"/>
<path d="M60.8217 125.863C60.8226 125.765 60.7975 125.669 60.7489 125.584C60.7003 125.498 60.6298 125.428 60.545 125.379C60.3899 125.273 60.2135 125.203 60.0282 125.173C59.8429 125.143 59.6533 125.154 59.4728 125.206C59.2069 125.292 58.9518 125.408 58.712 125.552C58.2503 125.892 57.8421 126.301 57.5014 126.762C57.4497 126.864 57.4229 126.977 57.4229 127.091C57.4229 127.205 57.4497 127.318 57.5014 127.419C57.5271 127.527 57.5741 127.628 57.6394 127.717C57.7048 127.806 57.7872 127.881 57.882 127.938C58.0932 128.021 58.3277 128.021 58.5389 127.938C58.7585 127.871 58.9442 127.723 59.0578 127.523C59.2155 127.314 59.4019 127.127 59.6113 126.97L60.0263 126.693L60.2338 126.52C60.3189 126.527 60.4045 126.514 60.4838 126.482C60.5631 126.451 60.6339 126.401 60.6908 126.338C60.7478 126.274 60.7893 126.198 60.812 126.116C60.8347 126.033 60.838 125.947 60.8217 125.863Z" fill="white"/>
<path d="M65.4218 109.677C65.3763 109.598 65.3108 109.532 65.2318 109.486C65.1529 109.441 65.0634 109.417 64.9722 109.417C64.881 109.417 64.7915 109.441 64.7125 109.486C64.6336 109.532 64.568 109.598 64.5225 109.677C64.5126 109.746 64.5126 109.815 64.5225 109.884C64.085 110.034 63.6756 110.256 63.3119 110.541C62.5057 111.16 61.7949 111.895 61.2022 112.72C61.1468 112.815 61.111 112.921 61.0967 113.03C61.0823 113.139 61.0898 113.25 61.1188 113.356C61.1478 113.462 61.1976 113.562 61.2653 113.649C61.3331 113.735 61.4176 113.808 61.5136 113.862C61.7041 113.954 61.9221 113.974 62.1262 113.917C62.3302 113.859 62.5061 113.729 62.6204 113.55L62.8623 113.239L63.3465 112.72C63.7085 112.427 64.0548 112.116 64.3841 111.786C64.4674 111.686 64.5601 111.593 64.6608 111.51L64.9722 111.302C65.1557 111.176 65.3092 111.01 65.4218 110.818C65.4418 110.704 65.4418 110.587 65.4218 110.472C65.504 110.213 65.504 109.936 65.4218 109.677Z" fill="white"/>
<path d="M83.1643 121.367L82.68 121.159H82.4725C82.1267 120.883 81.8153 120.571 81.4694 120.329C81.1235 120.087 79.6711 119.395 78.841 118.842C78.6879 118.763 78.5108 118.744 78.3445 118.789C78.1782 118.834 78.0346 118.939 77.9417 119.084C77.8629 119.237 77.844 119.414 77.8888 119.581C77.9335 119.747 78.0388 119.89 78.1839 119.983C79.0831 120.537 80.086 120.848 80.9161 121.436L81.3311 121.782L81.8844 122.197C82.2672 122.472 82.7276 122.617 83.1987 122.612C83.5791 122.335 83.7523 121.505 83.1643 121.367Z" fill="white"/>
<path d="M89.044 179.679C88.7247 179.661 88.4056 179.718 88.1116 179.844C87.8176 179.97 87.5567 180.162 87.3493 180.405C87.3185 180.519 87.3185 180.638 87.3493 180.751C87.354 180.831 87.3749 180.909 87.4106 180.98C87.4462 181.052 87.4959 181.115 87.5568 181.166C87.6596 181.264 87.7957 181.318 87.9372 181.318C88.0788 181.318 88.2151 181.264 88.3178 181.166L88.56 180.924H88.8019H89.1133C89.2046 180.943 89.2987 180.943 89.39 180.924C89.4217 180.835 89.4217 180.737 89.39 180.648C89.5184 180.602 89.6234 180.507 89.6817 180.383C89.7401 180.26 89.747 180.119 89.7012 179.99C89.6553 179.862 89.5603 179.757 89.4371 179.699C89.3138 179.64 89.1724 179.633 89.044 179.679Z" fill="white"/>
<path d="M113.808 158.236H113.254H112.978L112.735 158.063H112.563L111.974 157.682C111.588 157.432 111.169 157.234 110.729 157.094C110.196 156.955 109.637 156.955 109.104 157.094C108.92 157.151 108.763 157.275 108.667 157.442C108.571 157.609 108.542 157.806 108.585 157.994C108.641 158.178 108.766 158.334 108.933 158.43C109.099 158.526 109.297 158.556 109.484 158.512H109.969H110.522H110.764L111.317 158.858C111.693 159.113 112.122 159.28 112.571 159.346C113.02 159.412 113.478 159.375 113.911 159.239C114.008 159.202 114.091 159.135 114.147 159.048C114.203 158.961 114.229 158.858 114.223 158.754C114.239 158.692 114.24 158.627 114.227 158.564C114.213 158.501 114.185 158.442 114.145 158.391C114.105 158.341 114.053 158.301 113.995 158.274C113.936 158.247 113.872 158.234 113.808 158.236Z" fill="white"/>
<path d="M128.887 149.485C128.737 149.33 128.545 149.222 128.334 149.174H127.953C127.689 149.14 127.422 149.14 127.158 149.174C126.813 149.241 126.477 149.346 126.155 149.485L125.671 149.693H125.428C125.125 149.847 124.813 149.986 124.495 150.108C124.405 150.144 124.328 150.206 124.273 150.286C124.219 150.366 124.19 150.461 124.19 150.558C124.19 150.654 124.219 150.749 124.273 150.829C124.328 150.909 124.405 150.971 124.495 151.007L125.428 151.215C125.784 151.265 126.145 151.265 126.501 151.215H127.4H127.815H128.022H128.265H128.576C128.683 151.189 128.785 151.142 128.874 151.077C128.963 151.011 129.038 150.929 129.095 150.834C129.273 150.807 129.434 150.709 129.541 150.563C129.648 150.417 129.693 150.235 129.665 150.056C129.638 149.877 129.54 149.717 129.394 149.61C129.248 149.503 129.066 149.458 128.887 149.485Z" fill="white"/>
<path d="M137.672 143.018C137.65 142.957 137.613 142.903 137.565 142.861C137.516 142.819 137.458 142.789 137.395 142.776H136.081C135.995 142.773 135.91 142.79 135.832 142.826C135.754 142.862 135.685 142.916 135.631 142.983C135.524 143.095 135.462 143.243 135.459 143.398C135.457 143.565 135.519 143.725 135.631 143.848C135.778 143.895 135.935 143.895 136.081 143.848H137.084H137.395C137.491 143.798 137.574 143.727 137.637 143.64C137.665 143.593 137.679 143.539 137.679 143.485C137.679 143.43 137.665 143.376 137.637 143.329C137.667 143.284 137.686 143.232 137.692 143.178C137.698 143.123 137.691 143.069 137.672 143.018Z" fill="white"/>
<path d="M146.042 160.449C145.947 160.177 145.793 159.929 145.592 159.723L145.039 159.308C144.756 159.077 144.455 158.869 144.139 158.685L143.24 158.097L143.033 157.924L142.583 157.544C142.438 157.421 142.251 157.357 142.061 157.366C141.87 157.374 141.69 157.453 141.555 157.588C141.42 157.723 141.341 157.903 141.333 158.093C141.325 158.284 141.388 158.47 141.511 158.616C141.998 159.156 142.531 159.653 143.102 160.103L144.105 160.864H144.313C144.313 160.864 144.624 161.175 144.831 161.21H145.108C145.239 161.243 145.377 161.244 145.509 161.214C145.641 161.184 145.764 161.124 145.869 161.037C145.999 160.87 146.061 160.66 146.042 160.449Z" fill="white"/>
<path d="M148.152 152.391C148.095 152.34 148.021 152.311 147.944 152.311C147.868 152.311 147.794 152.34 147.737 152.391H147.529H147.322H146.837H146.595H145.973C145.854 152.358 145.726 152.371 145.617 152.429C145.507 152.487 145.425 152.585 145.385 152.702C145.37 152.761 145.366 152.823 145.376 152.883C145.385 152.943 145.406 153.001 145.439 153.053C145.471 153.105 145.514 153.149 145.564 153.184C145.614 153.219 145.671 153.243 145.731 153.255C146.172 153.376 146.638 153.376 147.08 153.255L147.633 152.979L147.944 152.702C147.956 152.598 147.956 152.494 147.944 152.391C148.011 152.418 148.085 152.418 148.152 152.391Z" fill="white"/>
<path d="M152.751 146.2H152.475L152.163 145.888C151.748 145.473 151.437 145.024 151.022 144.609C150.97 144.55 150.906 144.503 150.835 144.47C150.763 144.438 150.686 144.421 150.607 144.421C150.529 144.421 150.451 144.438 150.379 144.47C150.308 144.503 150.244 144.55 150.192 144.609C150.082 144.719 150.021 144.868 150.021 145.024C150.021 145.179 150.082 145.329 150.192 145.439C150.642 145.854 150.988 146.338 151.472 146.753C151.708 146.976 151.976 147.163 152.267 147.306L152.786 147.479C152.922 147.513 153.065 147.513 153.201 147.479H153.409C153.578 147.392 153.706 147.241 153.765 147.06C153.823 146.878 153.807 146.681 153.72 146.511C153.633 146.341 153.482 146.213 153.3 146.155C153.118 146.096 152.921 146.113 152.751 146.2Z" fill="white"/>
<path d="M160.949 177.604H160.672C160.548 177.568 160.416 177.568 160.292 177.604H156.833C156.677 177.604 156.527 177.666 156.417 177.776C156.307 177.886 156.245 178.036 156.245 178.192C156.253 178.345 156.318 178.49 156.426 178.598C156.535 178.707 156.68 178.772 156.833 178.78H160.672L161.018 178.607C161.111 178.556 161.187 178.48 161.238 178.387C161.289 178.294 161.312 178.189 161.304 178.083C161.297 177.978 161.26 177.877 161.197 177.792C161.134 177.707 161.048 177.641 160.949 177.604Z" fill="white"/>
<path d="M165.687 167.712H165.099C164.615 167.712 164.165 167.712 163.681 167.712C163.525 167.712 163.375 167.774 163.265 167.885C163.155 167.995 163.093 168.144 163.093 168.3C163.101 168.454 163.166 168.598 163.274 168.707C163.383 168.815 163.527 168.88 163.681 168.888C164.233 168.94 164.789 168.94 165.341 168.888C165.635 168.844 165.915 168.734 166.161 168.567C166.406 168.399 166.611 168.178 166.759 167.92C166.69 167.851 166.067 167.332 165.687 167.712Z" fill="white"/>
<path d="M172.984 178.503L171.912 177.466C171.685 177.262 171.442 177.077 171.186 176.912L170.46 176.532C169.506 176.019 168.459 175.702 167.381 175.598C166.863 175.598 166.724 176.428 167.381 176.497C168.33 176.699 169.233 177.074 170.045 177.604L170.702 178.053L171.393 178.365C171.843 178.572 172.258 178.814 172.673 179.057C172.74 179.064 172.808 179.051 172.868 179.02C172.928 178.989 172.977 178.941 173.011 178.882C173.044 178.823 173.059 178.756 173.054 178.689C173.05 178.621 173.025 178.557 172.984 178.503Z" fill="white"/>
<path d="M124.806 98.6091H124.529C124.393 98.574 124.25 98.574 124.114 98.6091H123.388C122.926 98.7527 122.517 99.0294 122.212 99.4046C122.149 99.4614 122.098 99.5306 122.062 99.6079C122.026 99.6853 122.007 99.7691 122.005 99.8542C122.002 99.9401 122.019 100.025 122.055 100.104C122.091 100.182 122.145 100.25 122.212 100.304C122.267 100.369 122.336 100.422 122.414 100.458C122.491 100.494 122.576 100.513 122.662 100.513C122.747 100.513 122.832 100.494 122.91 100.458C122.987 100.422 123.056 100.369 123.111 100.304L123.388 100.062L123.63 99.8888H123.976H124.287C124.459 99.9224 124.635 99.9224 124.806 99.8888C124.885 99.911 124.969 99.911 125.048 99.8888C125.075 99.7868 125.075 99.6796 125.048 99.5775C125.129 99.511 125.189 99.423 125.221 99.3238C125.254 99.2247 125.257 99.1183 125.232 99.0171C125.207 98.9158 125.153 98.8238 125.078 98.7516C125.003 98.6794 124.908 98.63 124.806 98.6091Z" fill="white"/>
<path d="M108.447 86.6077C108.066 86.6077 107.651 86.6077 107.236 86.6077H106.129C105.425 86.5085 104.738 86.3105 104.089 86.0197C104.012 85.9777 103.927 85.9516 103.84 85.9428C103.753 85.934 103.665 85.9427 103.581 85.9685C103.497 85.9943 103.419 86.0366 103.352 86.0929C103.285 86.1492 103.23 86.2184 103.19 86.2964C103.157 86.3778 103.143 86.4652 103.146 86.5527C103.15 86.6402 103.172 86.7259 103.212 86.8043C103.251 86.8826 103.306 86.9518 103.374 87.0073C103.441 87.0629 103.52 87.1035 103.605 87.1265C104.373 87.456 105.192 87.6547 106.026 87.7144C106.831 87.784 107.641 87.784 108.447 87.7144C108.594 87.7144 108.734 87.6562 108.838 87.5524C108.942 87.4486 109 87.3078 109 87.1611C109 87.0143 108.942 86.8735 108.838 86.7697C108.734 86.666 108.594 86.6077 108.447 86.6077Z" fill="white"/>
<path d="M112.251 79.9326L112.009 79.7597C111.852 79.7093 111.682 79.7093 111.525 79.7597C111.373 79.8956 111.197 80.0013 111.006 80.0709H110.729H110.314H109.692C109.601 80.068 109.51 80.0851 109.427 80.121C109.343 80.1568 109.268 80.2105 109.208 80.2784C109.133 80.3333 109.074 80.4071 109.038 80.4923C109.001 80.5774 108.988 80.6707 109 80.7626C108.997 80.8588 109.013 80.9546 109.049 81.0439C109.085 81.1333 109.139 81.2142 109.208 81.2815C109.32 81.3161 109.441 81.3161 109.553 81.2815C109.987 81.3655 110.434 81.3655 110.868 81.2815L111.248 81.1085C111.383 81.0604 111.503 80.9768 111.594 80.8664C111.773 80.7106 111.935 80.5367 112.078 80.3476C112.11 80.2228 112.11 80.0919 112.078 79.9672C112.137 79.965 112.196 79.9533 112.251 79.9326Z" fill="white"/>
<path d="M152.095 87.1612H151.818H151.403C151.12 87.1378 150.841 87.0797 150.573 86.9882C150.054 86.7958 149.556 86.5526 149.086 86.2619C148.163 85.6337 147.306 84.9153 146.526 84.1176C146.402 83.9937 146.234 83.9242 146.059 83.9242C145.884 83.9242 145.716 83.9937 145.592 84.1176C145.468 84.2414 145.399 84.4094 145.399 84.5845C145.399 84.7596 145.468 84.9276 145.592 85.0514C146.465 85.9839 147.427 86.8294 148.463 87.5762C149.018 87.9575 149.623 88.2601 150.261 88.4754C150.911 88.6994 151.617 88.6994 152.267 88.4754C152.442 88.4525 152.6 88.3613 152.707 88.2218C152.814 88.0824 152.861 87.9061 152.838 87.7318C152.815 87.5575 152.724 87.3995 152.584 87.2925C152.445 87.1855 152.269 87.1382 152.095 87.1612Z" fill="white"/>
<path d="M36.6459 139.628C36.5947 139.557 36.5271 139.499 36.4489 139.459C36.3708 139.419 36.2841 139.398 36.1963 139.398C36.1084 139.398 36.0218 139.419 35.9436 139.459C35.8654 139.499 35.7979 139.557 35.7466 139.628L35.4353 140.078L35.1587 140.528C35.0285 140.738 34.8779 140.935 34.7091 141.116L34.5016 141.461L34.0866 142.049L33.879 142.361L33.4984 142.776V142.949C33.3285 143.062 33.2062 143.234 33.1552 143.432C33.1041 143.63 33.128 143.839 33.2219 144.021C33.3297 144.197 33.5018 144.325 33.7019 144.376C33.9021 144.428 34.1144 144.4 34.2941 144.298C34.864 143.866 35.3554 143.34 35.7466 142.741C35.9887 142.395 36.2309 142.084 36.4384 141.738C36.6648 141.367 36.8502 140.973 36.9917 140.562V140.078C36.9148 139.902 36.7961 139.748 36.6459 139.628Z" fill="white"/>
<path d="M32.9452 144.194H32.5992H32.3227C32.3227 144.194 32.4956 144.194 32.3227 144.194L32.0806 143.952C32.0674 143.837 32.0674 143.721 32.0806 143.606C32.0806 143.606 32.0806 143.606 32.0806 143.433C32.0806 143.314 32.0331 143.199 31.9488 143.115C31.8645 143.031 31.7502 142.983 31.6309 142.983C31.5117 142.983 31.3973 143.031 31.313 143.115C31.2287 143.199 31.1813 143.314 31.1813 143.433C31.1663 143.501 31.1663 143.572 31.1813 143.64C31.1473 143.788 31.1473 143.942 31.1813 144.09C31.22 144.274 31.2902 144.449 31.3888 144.609C31.5168 144.89 31.6924 145.148 31.9077 145.37C32.151 145.574 32.418 145.748 32.7031 145.888H33.1181H33.3256C33.4968 145.923 33.6733 145.923 33.8445 145.888C33.9264 145.854 33.9964 145.797 34.0457 145.723C34.0949 145.649 34.121 145.562 34.121 145.473C34.121 145.385 34.0949 145.298 34.0457 145.224C33.9964 145.15 33.9264 145.092 33.8445 145.058L32.9452 144.194Z" fill="white"/>
<path d="M78.3223 136.896C77.9691 136.925 77.632 137.057 77.3538 137.276C76.9991 137.502 76.6637 137.757 76.3509 138.037C75.7629 138.522 75.2095 139.075 74.6215 139.525C74.5682 139.576 74.5258 139.638 74.4968 139.706C74.4678 139.775 74.4529 139.848 74.4529 139.922C74.4529 139.997 74.4678 140.07 74.4968 140.138C74.5258 140.207 74.5682 140.268 74.6215 140.32C74.7278 140.41 74.8626 140.46 75.0019 140.46C75.1413 140.46 75.2763 140.41 75.3826 140.32L76.9388 138.764L77.3538 138.383L77.5613 138.176C77.8034 137.968 78.0802 137.83 78.3223 137.657C78.4232 137.657 78.5199 137.617 78.5912 137.545C78.6626 137.474 78.7027 137.377 78.7027 137.276C78.7027 137.176 78.6626 137.079 78.5912 137.007C78.5199 136.936 78.4232 136.896 78.3223 136.896Z" fill="white"/>
<path d="M92.468 105.63C92.1109 105.402 91.7414 105.194 91.3612 105.008C90.9967 104.811 90.6145 104.649 90.2198 104.523C89.389 104.333 88.5258 104.333 87.6951 104.523C87.6951 104.523 87.6951 104.523 87.6951 104.731C88.5101 104.837 89.3106 105.034 90.0815 105.319C90.8424 105.526 91.6032 105.838 92.3641 106.114C92.537 106.011 92.6409 105.734 92.468 105.63Z" fill="white"/>
<path d="M209.334 157.094L208.608 156.783L208.02 156.575H207.709L207.155 156.368C206.785 156.221 206.403 156.105 206.014 156.022H205.253C204.97 156.043 204.691 156.101 204.423 156.195C204.317 156.234 204.226 156.305 204.161 156.398C204.097 156.491 204.062 156.601 204.062 156.714C204.062 156.827 204.097 156.937 204.161 157.03C204.226 157.123 204.317 157.193 204.423 157.233C204.648 157.281 204.868 157.35 205.08 157.44H205.703H206.014L206.533 157.717C206.932 157.936 207.348 158.121 207.778 158.27H208.331C208.648 158.357 208.983 158.357 209.3 158.27C209.411 158.219 209.505 158.138 209.573 158.036C209.64 157.934 209.677 157.815 209.681 157.693C209.685 157.571 209.654 157.45 209.593 157.344C209.532 157.238 209.442 157.152 209.334 157.094Z" fill="white"/>
<path d="M75.1748 92.7295C74.7365 92.6043 74.2817 92.546 73.8259 92.5565C73.6099 92.5051 73.3848 92.5051 73.1688 92.5565L72.7884 92.7987C72.1827 93.2095 71.605 93.6601 71.0591 94.1475C71.0591 94.1475 71.0591 94.1475 71.0591 94.1475C71.0591 94.1475 71.7852 93.6979 72.1657 93.5249C72.4068 93.3841 72.6821 93.3123 72.9613 93.3174H73.3417C73.3794 93.3358 73.4207 93.3454 73.4626 93.3454C73.5046 93.3454 73.5461 93.3358 73.5838 93.3174H73.8606C74.2829 93.2621 74.6995 93.1695 75.1056 93.0407C75.1478 93.0023 75.177 92.9518 75.1894 92.8961C75.2018 92.8404 75.1968 92.7822 75.1748 92.7295Z" fill="white"/>
</svg>
