<svg width="209" height="297" viewBox="0 0 209 297" fill="none" xmlns="http://www.w3.org/2000/svg">
<path d="M132.269 131.835C132.269 131.114 132.269 130.427 132.269 129.706C132.269 128.263 132.269 126.82 132.269 125.412C132.31 125.037 132.275 124.657 132.166 124.298C132.057 123.938 131.878 123.606 131.639 123.325C131.4 123.043 131.107 122.818 130.78 122.664C130.452 122.51 130.097 122.43 129.739 122.43C129.38 122.43 129.025 122.51 128.697 122.664C128.37 122.818 128.077 123.043 127.838 123.325C127.599 123.606 127.42 123.938 127.311 124.298C127.202 124.657 127.167 125.037 127.208 125.412C127.208 126.065 127.208 126.717 127.208 127.37C127.208 128.023 127.208 127.954 127.044 128.229C126.721 129.495 126.557 130.799 126.554 132.11C126.554 132.35 126.554 132.591 126.554 132.831C126.554 133.072 126.554 133.106 126.554 133.312C126.209 133.811 126.023 134.413 126.023 135.03C126.023 135.647 126.209 136.248 126.554 136.747C126.716 137.078 126.969 137.351 127.28 137.529C127.591 137.707 127.946 137.782 128.299 137.745C128.651 137.708 128.985 137.56 129.256 137.321C129.527 137.082 129.724 136.762 129.82 136.404C130.367 136.385 130.895 136.185 131.328 135.834C131.762 135.483 132.08 134.997 132.237 134.446C132.392 133.584 132.403 132.701 132.269 131.835Z" fill="#FCFCFC"/>
<path d="M98.4376 127.819C98.1437 127.372 97.9478 126.857 97.6538 126.41L97.1313 125.689L96.6415 125.002C96.6415 125.002 96.2822 124.521 96.1843 124.384C96.0863 124.246 95.7271 123.491 95.2699 123.319C94.8076 123.131 94.2953 123.131 93.833 123.319C93.2166 122.333 92.403 121.501 91.4491 120.88C91.0514 120.636 90.5938 120.522 90.1343 120.553C89.6749 120.583 89.2345 120.757 88.8692 121.052C88.5065 121.349 88.2334 121.751 88.0827 122.208C87.9321 122.665 87.9103 123.158 88.0201 123.628C88.3814 124.682 88.864 125.686 89.457 126.616C89.9469 127.441 90.4694 128.265 90.8939 129.124V129.399V129.776L91.1878 130.36C91.3838 130.738 91.5797 131.15 91.8083 131.528C92.0753 132.013 92.3812 132.472 92.7227 132.902C93.1684 133.453 93.7786 133.828 94.4535 133.967C94.6827 134.025 94.9216 134.027 95.1515 133.972C95.3815 133.918 95.5965 133.808 95.7796 133.652C95.9628 133.496 96.1093 133.297 96.2078 133.072C96.3063 132.847 96.3541 132.6 96.3476 132.353H96.7395C97.1529 132.299 97.5416 132.117 97.8559 131.829C98.1701 131.541 98.3954 131.161 98.5029 130.738C98.6842 130.273 98.772 129.774 98.7608 129.271C98.7495 128.769 98.6395 128.274 98.4376 127.819Z" fill="#FCFCFC"/>
<path d="M75.6114 58.5347C75.0287 58.2025 74.4291 57.9043 73.8153 57.6416C73.6432 57.3485 73.403 57.1065 73.1173 56.9382C72.8316 56.7699 72.5099 56.681 72.1824 56.6798H71.8232C71.5656 56.3519 71.2563 56.0731 70.9088 55.8555C69.8158 55.2918 68.5897 55.0768 67.3819 55.2371L66.1083 54.6189C64.8914 53.9945 63.5054 53.8366 62.1895 54.1723C61.8084 54.2921 61.4676 54.5238 61.2073 54.8402C60.947 55.1566 60.778 55.5445 60.72 55.9585C60.6648 56.3756 60.7285 56.8005 60.9028 57.1795C61.0772 57.5586 61.3545 57.8748 61.6997 58.0881C63.6751 59.2 65.8006 59.9877 68.0024 60.4239L68.4269 60.6299C70.5496 61.7291 73.9459 64.0648 76.0686 61.8321C76.283 61.6016 76.4439 61.3222 76.5389 61.0156C76.6338 60.709 76.6602 60.3835 76.616 60.0644C76.5717 59.7453 76.458 59.4412 76.2838 59.1759C76.1095 58.9105 75.8795 58.6911 75.6114 58.5347Z" fill="#FCFCFC"/>
<path d="M61.8988 121.526C61.9309 121.126 61.9309 120.724 61.8988 120.324C61.9278 119.958 61.9278 119.59 61.8988 119.224C61.7414 118.826 61.5444 118.446 61.311 118.091C61.1697 117.826 60.9727 117.598 60.7349 117.426C60.4972 117.253 60.2251 117.14 59.9394 117.095C59.6496 116.825 59.2809 116.667 58.8944 116.648C58.6081 116.643 58.3258 116.72 58.0782 116.871C57.8307 117.023 57.6273 117.243 57.4902 117.507C57.3836 117.739 57.2962 117.98 57.2289 118.228V118.606C57.2289 118.881 57.2289 119.156 57.2289 119.43L57.4248 118.95C57.1388 119.509 56.9927 120.135 57.0003 120.77C57.0003 120.77 57.0003 121.011 57.0003 121.148C57.0003 122.007 57.0003 122.865 57.0003 123.724C57.0087 124.304 57.2316 124.858 57.6218 125.269C58.0119 125.679 58.5387 125.914 59.0903 125.922H59.5148C60.0052 126 60.5055 125.885 60.9208 125.6C61.3362 125.315 61.6377 124.88 61.7682 124.377C61.7844 124.194 61.7844 124.01 61.7682 123.827C61.7682 123.037 61.8988 122.213 61.8988 121.526Z" fill="#FCFCFC"/>
<path d="M89.6867 143.314C89.3882 143.034 89.0296 142.833 88.6416 142.73C88.3704 142.697 88.0964 142.697 87.8252 142.73H87.4334H87.1068C86.8737 142.703 86.6377 142.732 86.4169 142.815C86.1961 142.898 85.9964 143.034 85.8332 143.211C85.775 143.318 85.6974 143.411 85.6046 143.486C85.4572 143.54 85.315 143.609 85.1801 143.692H83.4493C83.1461 143.692 82.8554 143.819 82.6411 144.044C82.4267 144.27 82.3063 144.575 82.3063 144.894C82.3247 145.125 82.4168 145.343 82.5675 145.512L82.241 145.753C81.9034 146.129 81.7153 146.627 81.7153 147.144C81.7153 147.661 81.9034 148.159 82.241 148.535C82.4882 148.9 82.8448 149.166 83.2533 149.291C83.7829 149.412 84.3358 149.339 84.8208 149.085C85.6271 148.651 86.3832 148.121 87.0741 147.505L87.564 147.196C87.9567 147.045 88.3609 146.93 88.7723 146.852H88.2498C88.7064 146.861 89.1572 146.743 89.556 146.509C89.8001 146.366 90.0077 146.164 90.1613 145.918C90.3148 145.673 90.4097 145.392 90.4378 145.1C90.4756 144.759 90.4258 144.414 90.2938 144.1C90.1617 143.785 89.9521 143.514 89.6867 143.314Z" fill="#FCFCFC"/>
<path d="M148.5 87.1722C148.565 86.7398 148.565 86.2994 148.5 85.867C148.5 85.283 148.304 84.7678 148.206 84.1839V83.5313V83.2565C148.222 82.9476 148.222 82.6379 148.206 82.329C148.286 82.2081 148.329 82.0642 148.329 81.9169C148.329 81.7695 148.286 81.6256 148.206 81.5047C148.181 80.9215 147.942 80.371 147.541 79.9679C147.139 79.5648 146.606 79.3401 146.051 79.3407C145.476 79.3406 144.924 79.5784 144.515 80.0026C144.105 80.4268 143.871 81.0033 143.863 81.6077C143.863 82.6382 143.863 83.6343 143.863 84.6648C143.847 84.9164 143.847 85.1688 143.863 85.4205V88.0653C143.871 88.6729 144.104 89.2531 144.513 89.6828C144.921 90.1125 145.473 90.3578 146.051 90.3667C146.472 90.3417 146.88 90.1978 147.23 89.95C147.581 89.7022 147.861 89.3597 148.043 88.9584C148.354 88.6992 148.591 88.3544 148.728 87.9622V87.1722H148.5Z" fill="#FCFCFC"/>
<path d="M208.524 166.185C208.328 165.573 208.029 165.003 207.642 164.502L207.185 164.158C206.97 163.967 206.741 163.795 206.499 163.643C206.046 163.334 205.533 163.135 204.997 163.059L204.376 162.75C204.271 162.529 204.114 162.339 203.919 162.2C203.472 161.945 203.002 161.738 202.515 161.582C200.998 160.621 199.285 160.056 197.519 159.933C197.223 159.948 196.939 160.055 196.702 160.242C196.537 160.148 196.384 160.033 196.245 159.899C196.024 159.694 195.74 159.58 195.445 159.58C195.15 159.58 194.866 159.694 194.645 159.899C194.443 160.128 194.331 160.428 194.331 160.74C194.331 161.053 194.443 161.353 194.645 161.582C195.235 162.264 195.992 162.763 196.833 163.025C198.137 164.036 199.627 164.75 201.209 165.12L201.731 165.292H202.025C202.505 165.492 202.974 165.722 203.429 165.979C204.344 166.372 205.152 166.997 205.781 167.799C206.793 169.104 209.112 167.696 208.524 166.185Z" fill="#FCFCFC"/>
<path d="M144.191 208.023C144.055 207.349 143.824 206.701 143.505 206.099C143.321 205.774 143.113 205.464 142.885 205.172C142.885 204.622 142.689 204.038 142.623 203.523V203.97C142.603 203.585 142.502 203.21 142.33 202.87L142.558 203.386C142.545 203.26 142.545 203.133 142.558 203.008C142.461 202.569 142.226 202.178 141.891 201.898C141.556 201.618 141.141 201.466 140.713 201.466C140.285 201.466 139.87 201.618 139.535 201.898C139.2 202.178 138.965 202.569 138.868 203.008C138.852 203.145 138.852 203.283 138.868 203.42C138.868 203.42 138.868 203.695 138.868 203.832V203.42C138.493 203.703 138.209 204.098 138.052 204.554C137.857 205.342 137.857 206.17 138.052 206.958C138.102 207.203 138.167 207.444 138.247 207.679C138.368 208.104 138.544 208.508 138.77 208.882C139.215 209.602 139.792 210.221 140.468 210.702C140.7 211.089 140.999 211.427 141.35 211.698C141.642 211.858 141.967 211.941 142.297 211.941C142.626 211.941 142.951 211.858 143.244 211.698C143.549 211.586 143.823 211.396 144.04 211.144C144.257 210.892 144.41 210.586 144.485 210.256C144.516 209.499 144.416 208.742 144.191 208.023Z" fill="#FCFCFC"/>
<path d="M151.731 180.205C151.459 179.605 151.013 179.111 150.457 178.796C149.889 178.489 149.266 178.314 148.628 178.281C148.271 178.227 147.908 178.227 147.55 178.281H147.355H146.734C146.477 178.125 146.179 178.061 145.885 178.098C145.591 178.135 145.316 178.272 145.101 178.487C144.905 178.718 144.782 179.006 144.747 179.314C144.712 179.621 144.767 179.932 144.905 180.205C145.052 180.382 145.217 180.543 145.395 180.685C145.652 180.961 145.965 181.172 146.31 181.304C146.963 182.22 147.708 183.06 148.53 183.811C148.846 184.134 149.266 184.318 149.706 184.326C150.147 184.325 150.57 184.14 150.881 183.811C151.088 183.571 151.224 183.272 151.273 182.953C151.413 182.89 151.538 182.796 151.639 182.677C151.741 182.559 151.816 182.418 151.861 182.266C152.074 181.587 152.027 180.848 151.731 180.205Z" fill="#FCFCFC"/>
<path d="M92.7246 286.397C92.7246 285.896 92.5354 285.415 92.1985 285.061C91.8617 284.707 91.4049 284.508 90.9285 284.508C90.4522 284.508 89.9953 284.707 89.6585 285.061C89.3216 285.415 89.1324 285.896 89.1324 286.397C89.1324 286.775 89.1324 287.152 89.1324 287.53V288.045C88.949 288.688 88.7309 289.318 88.4793 289.935C87.8617 291.331 87.5705 292.862 87.6302 294.4C87.6231 294.738 87.7089 295.07 87.8773 295.358C88.0457 295.645 88.2894 295.875 88.5792 296.02C88.8691 296.165 89.1926 296.219 89.5109 296.176C89.8292 296.132 90.1286 295.993 90.3733 295.774C90.5752 295.889 90.7976 295.959 91.0265 295.98C91.3984 295.94 91.7507 295.784 92.0388 295.534C92.3833 294.933 92.647 294.286 92.8226 293.61C92.7246 291.034 92.6593 288.629 92.7246 286.397Z" fill="#FCFCFC"/>
<path d="M83.6813 249.923C83.4557 249.618 83.1492 249.39 82.8005 249.268C82.4518 249.145 82.0765 249.135 81.7219 249.236C81.1065 249.411 80.522 249.69 79.9911 250.061C79.3442 250.503 78.7226 250.984 78.1297 251.503C77.5745 251.95 77.0847 252.396 76.5948 252.877C76.105 253.358 75.8764 253.702 75.4845 254.079C75.1815 254.285 74.934 254.568 74.7661 254.904C74.5311 255.346 74.4391 255.856 74.5038 256.358C74.5686 256.86 74.7867 257.326 75.1253 257.686C75.3962 257.952 75.7196 258.151 76.0723 258.27C76.3509 258.351 76.6423 258.372 76.9287 258.331C77.2151 258.289 77.4904 258.187 77.7378 258.03L78.195 257.686L78.5869 257.343C78.7425 257.194 78.8748 257.02 78.9788 256.827C79.4201 256.784 79.8453 256.631 80.2197 256.381C80.7909 256.044 81.2997 255.602 81.7219 255.076C82.4915 254.13 83.2006 253.132 83.8446 252.087C84.0192 251.749 84.0967 251.364 84.0678 250.98C84.0388 250.596 83.9046 250.229 83.6813 249.923Z" fill="#FCFCFC"/>
<path d="M122.474 255.966L122.082 255.451C122.06 255.384 122.06 255.311 122.082 255.245V255.073C122.082 254.832 122.082 255.073 122.082 255.073C122.128 254.753 122.07 254.427 121.919 254.145C121.736 253.84 121.459 253.61 121.135 253.493C120.9 253.424 120.652 253.424 120.417 253.493C120.249 253.013 119.981 252.579 119.633 252.222C119.279 251.893 118.831 251.699 118.359 251.672C117.977 251.685 117.61 251.83 117.314 252.085C117.109 252.26 116.942 252.479 116.823 252.728C116.705 252.977 116.639 253.249 116.628 253.527C116.628 253.527 116.628 253.527 116.628 253.699C116.613 253.778 116.613 253.86 116.628 253.939C116.611 254.065 116.611 254.192 116.628 254.317C116.669 254.449 116.724 254.576 116.792 254.695C117.184 255.691 117.51 256.722 118 257.683C118.273 258.23 118.625 258.729 119.045 259.16C119.347 259.42 119.663 259.661 119.992 259.882L120.221 260.156C120.407 260.35 120.635 260.494 120.884 260.578C121.134 260.661 121.399 260.682 121.658 260.637C121.917 260.603 122.166 260.507 122.386 260.359C122.607 260.21 122.793 260.012 122.931 259.779C123.264 259.179 123.399 258.48 123.317 257.791C123.234 257.102 122.938 256.46 122.474 255.966Z" fill="#FCFCFC"/>
<path d="M-24.9691 -0.507846C-24.893 -1.42331 -24.6185 -2.30827 -24.1667 -3.09483C-23.715 -3.88138 -23.0979 -4.54862 -22.3628 -5.04535C-21.6278 -5.54209 -20.7943 -5.85509 -19.9264 -5.96038C-19.0585 -6.06566 -18.1791 -5.96045 -17.3559 -5.65275C-14.7714 -4.33243 -12.6664 -2.1621 -11.3599 0.529429C-10.7683 1.23739 -10.2401 2.00131 -9.78204 2.81145C-8.28101 5.96665 -6.60835 9.02819 -4.77234 11.9809C-2.8 14.8023 -0.827682 17.6237 1.10521 20.5696C1.81525 21.1505 2.48596 21.7728 3.196 22.2707C7.14069 25.0921 8.99458 29.0753 12.5842 32.0626C15.789 34.353 18.6368 37.1524 21.0259 40.3608C26.4063 42.0399 31.4011 44.8644 35.7001 48.659C38.2738 51.1257 41.5734 52.5901 45.049 52.8081C47.8194 52.8488 50.5852 53.0566 53.3329 53.4305C57.7509 53.7209 62.0111 50.4846 66.0741 48.8664C68.9073 47.5468 71.8041 46.3834 74.7525 45.3812C77.4785 44.9319 80.2425 44.7928 82.9969 44.9663C86.3893 44.9663 89.1111 43.1407 92.3852 42.8502C97.1583 42.4768 100.551 46.4184 104.219 48.9909C106.823 50.775 109.86 51.2729 112.464 53.14C114.945 55.442 117.672 57.4331 120.59 59.0732C121.063 59.0732 120.905 60.1935 120.353 60.069C116.053 59.1977 113.371 54.7167 109.387 52.9326C107.144 52.1053 104.989 51.0345 102.957 49.7378C100.739 47.7151 98.2372 46.0637 95.5409 44.8418C92.7929 44.2987 89.9514 44.7216 87.4544 46.0451C84.6812 46.5905 81.8721 46.9096 79.0522 46.9993C72.4646 47.9121 65.7586 52.3102 59.8416 55.2975C54.9896 57.787 50.0193 56.9157 44.9307 58.2434C42.8416 58.6165 40.7003 58.5053 38.6562 57.9177C36.6122 57.33 34.7149 56.2801 33.0966 54.8411C29.6648 52.5176 26.7852 49.8622 23.3928 47.8291C23.7413 50.9077 23.6748 54.0226 23.1954 57.0817C21.9849 62.7121 22.7704 68.6138 25.4045 73.6781C28.2052 79.2794 30.6509 85.0881 33.57 90.6064C34.8957 92.779 36.3724 94.8453 37.988 96.7885C39.05 98.7627 39.7461 100.931 40.0393 103.178C40.0393 103.884 40.4732 104.63 40.7099 105.336C42.1829 107.855 43.4119 110.524 44.3784 113.302L44.6152 114.049C45.2489 114.92 46.0889 115.6 47.0511 116.022C48.0133 116.445 49.064 116.594 50.0982 116.455C57.9324 116.286 65.7251 117.695 73.0563 120.604C73.6086 120.314 74.2002 120.065 74.7525 119.733C81.6503 116.291 89.1358 114.344 96.7638 114.007C104.14 113.136 107.217 116.663 111.162 122.803C111.647 123.924 112.347 124.926 113.217 125.749C114.088 126.573 115.11 127.198 116.22 127.588C117.331 127.977 118.505 128.121 119.671 128.012C120.837 127.903 121.969 127.542 122.996 126.953C126.418 125.841 129.954 125.159 133.528 124.919C133.654 124.955 133.766 125.033 133.846 125.141C133.925 125.25 133.968 125.384 133.968 125.521C133.968 125.658 133.925 125.792 133.846 125.901C133.766 126.009 133.654 126.088 133.528 126.123C130.24 126.988 127.021 128.125 123.903 129.525C121.852 130.757 119.556 131.467 117.197 131.599C112.503 131.351 109.742 127.45 107.375 123.301C106.57 121.508 105.279 120.004 103.666 118.978C102.052 117.953 100.186 117.45 98.3023 117.534C94.9304 117.889 91.5837 118.471 88.2827 119.277C84.7055 119.614 81.1959 120.509 77.8688 121.932L77.3955 122.223L80.5907 123.384C84.4805 124.252 88.0369 126.317 90.8074 129.317C91.6471 130.622 92.3607 132.012 92.9375 133.467C94.4275 136.171 96.3336 138.597 98.5784 140.645C102.326 144.794 102.286 150.602 108.046 152.843C113.805 155.083 119.88 152.843 125.521 152.428C130.865 151.894 136.253 152.131 141.536 153.133C144.236 154.079 146.871 155.216 149.425 156.536C151.634 157.448 154.001 157.158 156.25 157.863C159.445 158.859 162.324 160.311 165.677 161.017C168.029 161.385 170.308 162.156 172.423 163.299C177.257 165.891 181.796 169.05 185.953 172.717C181.994 169.694 177.782 167.056 173.37 164.834C168.478 161.929 162.561 161.722 157.315 159.772C154.948 158.859 152.621 159.067 150.214 158.403C148.253 157.62 146.331 156.734 144.455 155.747C138.406 153.932 132.059 153.493 125.836 154.461C117.947 154.876 107.927 158.859 101.813 151.308C100.736 149.823 99.884 148.171 99.2884 146.412C97.8857 143.823 96.0086 141.552 93.7659 139.732C90.689 136.703 88.835 131.973 85.0087 130.064C80.3584 128.063 75.5185 126.589 70.5711 125.666H70.3345C64.1832 127.573 57.759 128.318 51.3605 127.865C49.5456 127.962 47.7402 127.533 46.1407 126.626C44.5411 125.719 43.2084 124.368 42.2877 122.72C42.2877 123.177 42.5245 123.55 42.6033 124.007C43.7868 130.521 42.6033 140.105 47.0214 145.25C48.9228 147.257 50.6521 149.437 52.1889 151.764C53.9695 154.467 56.4083 156.617 59.2499 157.988C63.4618 160.731 66.7675 164.773 68.7171 169.564C68.7646 169.688 68.7696 169.827 68.7311 169.955C68.6926 170.083 68.6131 170.193 68.5061 170.266C68.3991 170.34 68.2713 170.372 68.1444 170.357C68.0174 170.343 67.8992 170.282 67.8098 170.186C66.0178 167.581 64.0678 165.1 61.9718 162.759C59.9406 160.92 57.6689 159.397 55.2263 158.237C53.0732 156.78 51.2976 154.784 50.0587 152.428C48.402 149.69 45.9168 147.864 44.26 145.209C41.0648 140.064 41.6567 132.471 40.9072 126.579C40.1577 120.687 36.9624 115.46 35.6607 109.983C34.3234 108.146 32.6628 106.596 30.7693 105.419C27.8502 103.676 25.2467 101.477 22.3671 99.6514C20.1925 98.4484 18.4278 96.5633 17.3179 94.2576C14.9511 88.7393 17.3179 83.221 17.3179 77.6612C17.356 77.1918 17.356 76.7199 17.3179 76.2505C16.9913 76.5746 16.5914 76.8058 16.1562 76.9223C15.721 77.0388 15.2649 77.0368 14.8307 76.9163C14.3965 76.7959 13.9986 76.5611 13.6745 76.2341C13.3505 75.9071 13.111 75.4987 12.9787 75.0473C11.8348 71.811 12.3871 68.4917 11.0854 65.4214C9.71835 62.1149 7.99783 58.9829 5.9572 56.0859C1.57956 49.6284 -2.08618 42.6686 -4.96953 35.3404C-8.5974 28.1526 -12.6691 21.2226 -17.1586 14.5949C-18.2309 11.9986 -19.7715 9.6456 -21.6951 7.66589C-22.8265 6.68169 -23.715 5.42451 -24.2851 4.00136C-24.8551 2.57821 -25.0898 1.03123 -24.9691 -0.507846ZM61.8139 123.592H62.7213C58.955 122.39 55.0081 121.939 51.0844 122.264C50.1771 122.264 49.3487 122.513 48.5992 122.554C52.1889 124.795 58.461 124.09 61.8139 123.592ZM28.5997 95.0459C28.2446 94.5065 27.929 93.9672 27.6135 93.4278C25.365 89.5276 23.4716 85.42 21.4204 81.3954C21.4856 83.4443 21.7098 85.4841 22.0909 87.4946C23.156 91.6022 25.8384 93.1373 28.797 95.0459H28.5997ZM16.0556 50.0282C16.0017 48.4872 15.6192 46.9788 14.9364 45.6142C14.2536 44.2497 13.288 43.0641 12.1109 42.1449C11.4403 41.896 11.2431 41.564 11.2825 42.4768C12.8999 45.1737 14.4778 47.4972 16.2529 50.0282H16.0556Z" fill="#00253F"/>
</svg>
