<svg width="329" height="219" viewBox="0 0 329 219" fill="none" xmlns="http://www.w3.org/2000/svg">
<path d="M91.8556 196.975C91.6546 191.592 91.4774 186.208 91.326 180.824C91.0221 170.056 90.8172 159.286 90.7112 148.513C90.6053 137.741 90.6152 126.969 90.6776 116.196C90.7073 111.035 90.7607 105.873 90.836 100.712C90.8756 98.0195 90.9181 95.3269 90.9419 92.6343C90.9607 90.4565 91.3725 88.3866 90.2618 86.4869C90.1915 86.3671 90.0262 86.376 89.954 86.4869C88.8334 88.2015 89.0838 89.9229 89.0066 91.9611C88.9037 94.6527 88.8393 97.3463 88.7829 100.039C88.67 105.424 88.5819 110.81 88.5186 116.196C88.3889 127.192 88.4107 138.19 88.5166 149.186C88.6205 159.958 88.8245 170.729 89.1264 181.497C89.2778 186.882 89.4531 192.265 89.654 197.647C89.8461 202.787 89.5303 208.313 90.5341 213.362C90.7499 214.449 92.2318 214.069 92.3307 213.118C92.8782 207.878 92.0526 202.246 91.8556 196.975Z" fill="#00253F"/>
<path d="M107.941 151.868C107.643 132.132 108.249 112.308 107.525 92.5898C107.498 91.8592 106.445 91.8681 106.397 92.5898C105.077 112.237 105.598 132.189 105.778 151.868C105.958 171.592 106.088 191.435 107.298 211.127C107.384 212.526 109.522 212.553 109.497 211.127C109.151 191.373 108.24 171.629 107.941 151.868Z" fill="#00253F"/>
<path d="M177.12 216.955L177.119 216.954C177.129 205.281 176.351 193.533 175.844 181.892C175.279 168.918 175.134 155.699 173.404 142.817C173.338 142.326 172.619 142.288 172.608 142.817C172.341 155.81 173.484 168.909 173.947 181.892C174.409 194.905 174.297 208.004 175.107 220.995C175.173 222.056 176.795 222.406 177.054 221.259C177.39 219.769 177.451 218.453 177.12 216.955Z" fill="#00253F"/>
<path d="M848.331 66.3727C847.817 64.6858 846.615 64.3592 844.98 64.1246C841.556 63.6346 837.985 63.7048 834.556 64.0751C828.353 64.7443 822.301 66.5548 816.791 69.4939C807.164 74.6286 797.541 84.2536 795.004 95.1892C794.961 95.3763 794.993 95.5456 795.068 95.6891C794.696 95.6891 794.322 95.6862 793.953 95.6881C793.12 95.6941 792.287 95.7119 791.454 95.7337C791.94 95.5298 792.305 95.1051 792.233 94.4963C787.212 51.5011 750.622 19.8643 711.12 7.72292C688.45 0.754879 664.324 -0.971505 640.739 0.469817C619.048 1.79631 597.409 5.99551 577.07 13.7268C554.539 22.2896 533.514 35.1269 517.788 53.5938C517.694 53.7037 517.654 53.8205 517.633 53.9373C512.134 53.3928 506.445 54.6788 501.74 57.7208C500.421 48.7749 494.762 40.6615 486.392 36.879C477.922 33.051 468.053 34.2587 460.438 39.2786C459.274 30.2357 452.515 22.057 443.375 20.1504C434.551 18.3101 425.258 22.4509 420.359 29.8466C412.886 16.7282 397.646 9.5751 382.729 9.8117C365.257 10.0889 350.317 21.1908 342.247 36.288C337.95 44.3272 335.557 53.2523 335.135 62.3328C329.096 58.0118 320.625 58.0989 314.141 61.7755C307.202 65.7104 303.276 72.9625 301.392 80.5235C298.351 75.3908 292.067 72.5201 286.017 72.5111C279.897 72.5022 271.907 76.5203 270.466 82.6835C265.229 74.0564 258.772 66.1163 251.777 58.9027C237.711 44.3984 221.054 32.0591 202.439 24.0576C183.881 16.0808 163.965 13.117 143.951 16.1857C124.379 19.1862 104.985 26.276 88.013 36.4662C70.1875 47.1692 54.6359 62.0002 45.6464 80.9493C45.5207 81.2146 45.5741 81.464 45.7078 81.6511C28.4634 84.8495 12.0703 92.6996 0.217042 105.825C-0.458083 106.572 0.59123 107.634 1.32575 106.934C2.84627 105.483 4.41529 104.103 6.0249 102.786C4.90728 115.707 5.18644 128.869 5.24187 141.812C5.27058 148.458 5.37947 155.103 5.54776 161.746C5.72594 168.774 5.54578 176.021 6.42185 182.999C6.58024 184.262 8.40664 184.343 8.45416 182.999C8.69966 175.958 7.98791 168.795 7.80477 161.746C7.63154 155.103 7.52462 148.458 7.46424 141.812C7.3405 128.411 7.99187 114.951 7.56818 101.558C8.86399 100.548 10.1875 99.5835 11.5328 98.6549C9.69651 113.734 9.91231 129.352 9.94795 144.514C9.98457 159.979 10.0311 175.646 11.4259 191.058C11.5447 192.376 13.5532 192.425 13.5176 191.058C13.1097 175.534 12.1446 160.054 12.0555 144.514C11.9664 129.014 12.9721 113.443 12.5762 97.96C12.5762 97.956 12.5742 97.954 12.5742 97.9501C13.7968 97.1324 15.0401 96.3543 16.2993 95.604C15.4796 112.05 16.3191 128.737 16.913 145.175C17.21 153.38 17.5773 161.581 18.0158 169.78C18.4553 178.017 18.5761 186.428 19.6789 194.606C19.8194 195.648 21.4954 195.375 21.4874 194.361C21.427 186.185 20.4757 177.947 20.0253 169.78C19.5611 161.359 19.171 152.936 18.8552 144.51C18.2365 127.995 18.4514 111.396 17.503 94.9012C18.8186 94.1449 20.153 93.4252 21.5033 92.7401C20.1441 110.164 19.8927 127.748 20.154 145.214C20.2837 153.874 20.6034 162.528 21.0865 171.176C21.5706 179.844 21.7755 188.768 23.1653 197.345C23.3445 198.451 25.1313 198.178 25.1026 197.083C24.873 188.235 23.686 179.356 23.1842 170.511C22.6932 161.864 22.3635 153.206 22.1715 144.548C21.7824 127.03 22.2566 109.576 22.8654 92.072C24.2038 91.4216 25.559 90.8088 26.927 90.2267C25.853 98.8677 26.2569 107.852 26.2192 116.531C26.1777 126.076 26.3093 135.621 26.5449 145.163C27.0171 164.249 28.012 183.319 29.4583 202.354C29.5563 203.65 31.5896 203.661 31.4906 202.354C30.0512 183.54 29.0692 164.691 28.5396 145.829C28.2783 136.508 28.1516 127.185 28.0833 117.862C28.0159 108.584 28.7 99.0746 27.8942 89.8248C28.796 89.4536 29.7087 89.1111 30.6214 88.7696C29.7473 107.129 30.7461 125.799 31.3678 144.152C31.6777 153.3 32.0835 162.444 32.5547 171.586C32.7963 176.27 33.0744 180.951 33.3675 185.63C33.6466 190.091 33.5021 194.875 34.4871 199.237C34.7217 200.277 36.1521 199.945 36.2372 199C36.649 194.429 35.863 189.545 35.6066 184.961C35.3453 180.281 35.1008 175.598 34.8553 170.916C34.3772 161.774 33.9614 152.628 33.5813 143.481C32.819 125.142 32.9626 106.661 31.7202 88.3548C33.309 87.7836 34.9177 87.2718 36.5362 86.7878C35.2335 105.687 36.1382 124.99 36.8272 143.877C37.1836 153.649 37.7023 163.415 38.3448 173.172C38.9664 182.623 38.908 192.694 40.9275 201.963C41.1255 202.871 42.4757 202.63 42.5024 201.75C42.6509 196.891 41.9144 191.979 41.5333 187.137C41.1492 182.262 40.7978 177.386 40.481 172.508C39.8465 162.749 39.3584 152.984 38.9773 143.212C38.2388 124.273 38.7546 105.28 38.0052 86.3542C39.4733 85.9414 40.9552 85.5761 42.442 85.2336C41.0433 105.079 42.0599 125.375 42.9231 145.207C43.3676 155.421 43.9576 165.628 44.6921 175.824C45.0594 180.922 45.4633 186.018 45.9028 191.111C46.3225 195.968 46.3047 201.194 47.5174 205.922C47.7401 206.792 48.9894 206.566 49.0339 205.717C49.2982 200.713 48.2727 195.441 47.846 190.447C47.4104 185.354 47.0115 180.258 46.6492 175.16C45.9246 164.963 45.3445 154.755 44.9099 144.541C44.0655 124.707 44.4922 104.798 43.5517 84.9802C44.7466 84.7198 45.9493 84.4911 47.1541 84.2763C47.5579 104.354 48.3519 124.422 49.0933 144.489C49.4665 154.592 49.8763 164.695 50.2693 174.799C50.6693 185.094 50.6643 195.521 51.6176 205.781C51.7215 206.897 53.3727 206.94 53.3876 205.781C53.5202 195.482 52.6808 185.09 52.2581 174.799C51.8423 164.695 51.4444 154.591 51.0098 144.489C50.1436 124.359 49.3289 104.223 48.1222 84.1101C50.0931 83.7784 52.0779 83.5141 54.0686 83.3033C52.7392 102.886 53.0708 122.674 53.7113 142.277C54.032 152.113 54.5646 161.941 55.2506 171.759C55.5931 176.669 55.9921 181.575 56.4286 186.477C56.8365 191.048 56.6355 196.357 58.2313 200.687C58.4362 201.243 59.439 201.422 59.5488 200.687C60.2022 196.319 59.1212 191.533 58.748 187.145C58.3312 182.242 57.96 177.336 57.6135 172.428C56.9058 162.387 56.3821 152.333 55.9831 142.276C55.2021 122.567 55.4684 102.887 55.3199 83.1746C56.9651 83.0202 58.6163 82.9123 60.2695 82.839C58.7143 103.833 59.3796 125.176 59.7587 146.201C59.9517 156.92 60.2824 167.637 60.7536 178.348C61.2337 189.243 61.4366 200.29 62.6196 211.134C62.7502 212.335 64.5697 212.402 64.545 211.134C64.3282 200.434 63.3501 189.715 62.8997 179.018C62.4394 168.082 62.0771 157.142 61.8148 146.201C61.3079 125.076 62.0157 103.902 61.3564 82.7944C62.8878 82.7429 64.4212 82.74 65.9546 82.7578C65.1874 103.043 66.2724 123.525 66.6574 143.812C67.0495 164.454 67.1613 185.128 67.9384 205.759C67.9869 207.061 69.9757 207.073 69.9707 205.759C69.8866 185.113 69.1362 164.453 68.669 143.812C68.2086 123.524 68.4363 103.013 66.8277 82.7736C68.3779 82.8053 69.9281 82.8786 71.4774 82.9795C70.1192 103.709 71.1596 124.829 71.9892 145.555C72.8474 166.978 74.1808 188.436 76.3725 209.766C76.5091 211.093 78.5909 211.125 78.4761 209.766C76.6586 188.38 75.0579 167.003 74.1343 145.555C73.2374 124.741 73.6294 103.854 72.6465 83.0577C74.1739 83.1745 75.6994 83.329 77.2209 83.5141C76.9328 104.393 77.5594 125.313 78.1821 146.181C78.8206 167.596 79.5116 189.068 81.0697 210.439C81.1637 211.728 83.1505 211.757 83.102 210.439C82.3001 189.015 81.0934 167.608 80.3371 146.181C79.6016 125.355 79.3433 104.515 78.6186 83.6903C80.2431 83.9101 81.8626 84.1714 83.4762 84.4694C82.8248 88.8983 82.8882 93.5212 82.7466 97.9689C82.5763 103.325 82.4467 108.683 82.3685 114.042C82.2111 124.759 82.212 135.477 82.3783 146.194C82.71 167.628 83.686 189.046 85.2313 210.427C85.3273 211.761 87.419 211.772 87.323 210.427C85.8094 189.268 84.865 168.073 84.4918 146.863C84.3067 136.371 84.2533 125.876 84.3334 115.382C84.374 110.024 84.4443 104.666 84.5433 99.3083C84.6324 94.5062 85.0501 89.5269 84.7106 84.7099C86.0717 84.9792 87.4289 85.2682 88.7782 85.5939C91.3045 86.2037 93.8109 86.9065 96.2996 87.6797C95.6126 92.1402 95.664 96.8156 95.4789 101.299C95.2582 106.655 95.0978 112.015 94.982 117.375C94.7504 128.095 94.7019 138.817 94.8365 149.538C94.9711 160.258 95.278 170.976 95.7551 181.686C96.2303 192.345 96.4639 203.198 97.7953 213.788C97.9518 215.03 99.8405 215.117 99.8039 213.788C99.5049 203.091 98.3952 192.382 97.9013 181.686C97.4172 171.199 97.0965 160.705 96.9401 150.208C96.7837 139.712 96.7807 129.212 96.9282 118.716C97.0034 113.356 97.1262 107.997 97.2667 102.639C97.3934 97.857 97.8864 92.8965 97.63 88.0945C99.1248 88.5765 100.611 89.0943 102.091 89.6318C101.063 99.7696 101.092 110.062 100.932 120.239C100.763 131.012 100.748 141.791 100.845 152.565C101.039 174.118 101.74 195.665 103.178 217.173C103.268 218.52 105.359 218.54 105.293 217.173C104.235 195.65 103.41 174.112 103.113 152.565C102.965 141.79 102.957 131.014 103.048 120.239C103.132 110.204 103.64 100.118 103.329 90.0842C105.97 91.0741 108.583 92.1531 111.168 93.3093C110.746 112.691 111.212 132.137 111.404 151.52C111.601 171.369 111.463 191.275 112.172 211.113C112.223 212.553 114.405 212.564 114.418 211.113C114.596 191.263 113.925 171.367 113.59 151.52C113.266 132.304 113.206 113.019 112.289 93.8192C113.648 94.4418 114.998 95.0902 116.34 95.7554C115.967 99.5993 116.179 103.588 116.171 107.4C116.161 112.339 116.143 117.277 116.143 122.215C116.143 132.316 116.147 142.418 116.185 152.519C116.222 162.397 116.261 172.274 116.299 182.151C116.318 187.089 116.332 192.028 116.357 196.967C116.383 201.907 115.941 207.133 116.685 212.019C116.814 212.867 118.282 212.875 118.403 212.019C119.07 207.342 118.61 202.362 118.593 197.641C118.574 192.702 118.54 187.764 118.512 182.826C118.455 172.724 118.4 162.623 118.341 152.52C118.284 142.644 118.191 132.767 118.102 122.89C118.057 117.951 117.992 113.013 117.934 108.075C117.891 104.277 118.07 100.305 117.723 96.4642C118.989 97.1087 120.245 97.7729 121.493 98.453C120.983 107.898 121.459 117.49 121.623 126.935C121.797 137.043 122.107 147.151 122.48 157.254C122.845 167.134 123.326 177.009 123.879 186.879C124.155 191.814 124.457 196.748 124.785 201.681C125.09 206.288 124.736 211.602 126.126 216.013C126.34 216.692 127.519 216.834 127.649 216.013C128.346 211.637 127.358 206.771 127.071 202.354C126.751 197.421 126.447 192.486 126.158 187.552C125.566 177.456 125.072 167.356 124.628 157.254C124.195 147.375 123.863 137.493 123.574 127.609C123.298 118.178 123.473 108.646 122.865 99.2251C124.594 100.191 126.301 101.204 127.997 102.236C126.523 120.576 126.901 139.19 127.32 157.562C127.751 176.47 128.163 195.621 130.178 214.439C130.221 214.842 130.44 215.127 130.721 215.291C130.812 216.583 130.92 217.872 131.05 219.156C131.183 220.476 133.132 220.538 133.153 219.156C133.305 209.576 132.533 199.934 132.391 190.348C132.249 180.743 132.245 171.135 132.387 161.53C132.66 143.142 133.656 124.802 134.533 106.439C135.6 107.16 136.657 107.898 137.707 108.644C136.357 117.843 135.929 127.278 135.406 136.54C134.842 146.532 134.516 156.535 134.422 166.542C134.328 176.548 134.451 186.554 134.819 196.554C135.177 206.278 135.099 216.465 136.729 226.071C136.886 226.997 138.316 226.745 138.328 225.855C138.456 216.138 137.191 206.28 136.856 196.554C136.51 186.555 136.356 176.547 136.423 166.542C136.489 156.76 136.752 146.977 137.206 137.205C137.635 127.982 138.573 118.758 138.947 109.534C140.252 110.479 141.541 111.445 142.82 112.425C141.423 129.35 141.983 146.648 142.226 163.597C142.478 181.186 142.765 198.963 144.394 216.487C144.51 217.736 146.425 217.783 146.379 216.487C145.732 198.849 144.509 181.25 144.097 163.597C143.706 146.83 144.382 130.008 143.894 113.251C145.017 114.126 146.124 115.02 147.226 115.921C147.217 115.955 147.203 115.985 147.201 116.024C146.364 133.765 146.937 151.639 147.782 169.369C148.195 178.03 148.76 186.681 149.462 195.324C149.822 199.756 150.216 204.185 150.644 208.611C150.86 210.843 150.31 215.202 152.59 216.475C152.829 216.608 153.196 216.65 153.43 216.475C153.993 216.054 154.151 215.874 154.112 215.139C154.095 214.823 153.89 214.474 153.555 214.406C153.461 214.387 153.368 214.369 153.275 214.35C153.043 214.303 152.851 214.344 152.704 214.436C152.91 213.338 153.18 212.592 153.051 211.265C152.965 210.38 152.874 209.495 152.786 208.61C152.588 206.618 152.396 204.627 152.212 202.633C151.823 198.426 151.466 194.216 151.139 190.003C150.503 181.799 149.966 173.586 149.54 165.369C148.7 149.134 148.573 132.897 148.118 116.652C148.817 117.231 149.503 117.823 150.192 118.413C149.703 120.111 149.997 122.055 150.103 123.878C150.35 128.127 150.656 132.373 150.951 136.618C151.556 145.337 152.202 154.054 152.858 162.769C153.496 171.262 154.14 179.756 154.781 188.249C155.418 196.687 155.298 205.651 156.98 213.946C157.169 214.879 158.538 214.611 158.578 213.73C158.947 205.804 157.551 197.499 156.929 189.591C156.28 181.321 155.63 173.051 154.981 164.782C154.349 156.733 153.686 148.688 153.034 140.642C152.707 136.618 152.358 132.595 152.013 128.573C151.777 125.806 150.926 122.291 151.167 119.242C152.816 120.671 154.431 122.132 156.022 123.614C155.799 139.054 156.285 154.523 156.805 169.952C157.068 177.711 157.418 185.468 157.81 193.222C158.011 197.21 158.219 201.198 158.455 205.183C158.676 208.942 158.53 213.04 159.483 216.694C159.735 217.656 160.988 217.338 161.094 216.476C161.57 212.614 160.869 208.403 160.634 204.519C160.407 200.753 160.181 196.989 159.971 193.222C159.528 185.246 159.147 177.266 158.78 169.287C158.096 154.409 157.755 139.518 157.119 124.64C158.786 126.217 160.407 127.829 162.005 129.457C162.084 143.819 163.494 158.281 164.313 172.606C164.738 180.026 165.179 187.447 165.622 194.866C165.835 198.464 166.05 202.061 166.264 205.659C166.478 209.251 166.281 213.183 167.236 216.665C167.43 217.371 168.668 217.485 168.783 216.665C169.26 213.289 168.665 209.725 168.439 206.334C168.199 202.737 167.96 199.139 167.72 195.541C167.211 187.896 166.703 180.251 166.175 172.607C165.214 158.68 164.783 144.557 163.18 130.671C164.98 132.539 166.734 134.437 168.444 136.359C167.918 148.376 168.895 160.643 169.174 172.615C169.332 179.37 169.495 186.126 169.668 192.881C169.83 199.156 169.335 205.831 170.396 212.014C170.564 212.995 171.9 212.629 171.995 211.798C172.747 205.24 171.8 198.138 171.603 191.531C171.408 185.001 171.2 178.47 170.99 171.941C170.629 160.729 170.862 149.223 169.878 137.983C170.576 138.788 171.266 139.598 171.946 140.413C174.383 143.337 176.707 146.387 178.867 149.548C178.918 161.233 179.632 172.959 180.135 184.626C180.402 190.814 180.65 197.004 180.938 203.191C181.127 207.263 180.871 211.937 183.948 215.037C184.563 215.655 185.56 214.868 185.142 214.115C182.467 209.283 182.987 203.246 182.688 197.887C182.38 192.362 182.072 186.837 181.764 181.311C181.204 171.251 180.787 161.126 179.893 151.079C181.568 153.623 183.122 156.242 184.546 158.922C184.735 169.044 185.853 179.201 186.489 189.299C186.823 194.603 187.141 199.908 187.434 205.214C187.695 209.939 187.2 215.469 188.569 220.006C188.765 220.656 189.833 220.748 189.979 220.006C190.894 215.348 189.839 209.936 189.547 205.214C189.205 199.685 188.828 194.159 188.41 188.636C187.734 179.738 187.251 170.701 186.023 161.834C190.519 171.123 193.284 181.144 193.178 191.699C193.16 193.459 195.879 193.458 195.911 191.699C196.13 179.939 193.012 168.871 187.804 158.611C197.471 170.66 208.704 181.913 221.072 190.956C227.916 195.96 235.279 200.256 243.128 203.483C246.98 205.067 250.941 206.395 254.986 207.388C258.169 208.17 262.232 209.61 265.18 207.558C266.079 206.932 265.555 205.185 264.374 205.646C260.793 207.046 255.899 205.145 252.354 204.111C248.275 202.921 244.291 201.41 240.435 199.624C233.352 196.344 226.673 192.232 220.43 187.555C207.278 177.701 196.811 165.369 185.596 153.533C202.599 161.133 217.717 171.548 233.004 182.146C240.866 187.596 248.771 192.998 257.059 197.787C259.217 199.035 272.45 207.21 276.665 206.786C276.869 206.968 277.071 207.152 277.277 207.332C278.041 208.002 279.492 207.087 278.788 206.166C278.631 205.961 278.463 205.761 278.303 205.557C279.15 205.167 279.547 203.765 278.515 203.059C273.759 199.806 272.528 193.871 271.059 188.66C269.797 184.183 268.116 179.885 265.794 175.843C263.816 172.401 261.447 169.195 258.78 166.256C259.561 166.539 260.332 166.815 260.992 167.154C263.17 168.277 265.253 169.576 267.256 170.985C275.713 176.938 282.648 184.746 290.846 191.024C299.128 197.366 308.526 202.227 318.467 205.38C323.551 206.993 328.771 208.145 334.056 208.854C339.006 209.517 344.496 210.201 349.453 209.395C350.665 209.198 350.233 207.502 349.182 207.4C344.643 206.952 340.059 207.227 335.502 206.688C330.693 206.12 325.927 205.129 321.277 203.783C312.407 201.216 303.942 197.306 296.269 192.167C288.933 187.252 282.686 181.028 275.952 175.364C272.919 172.813 269.783 170.357 266.424 168.247C266.281 168.157 266.135 168.071 265.992 167.983C266.874 168.36 267.757 168.736 268.63 169.134C272.992 171.123 277.268 173.295 281.478 175.587C289.758 180.097 297.801 185.024 306.04 189.605C321.832 198.383 339.555 206.666 358.027 206.38C359.431 206.358 359.422 204.266 358.027 204.205C338.37 203.341 320.936 195.426 304.022 185.914C295.98 181.391 288.048 176.667 279.845 172.435C277.602 171.276 275.337 170.163 273.05 169.099C287.327 173.102 301.795 176.523 315.873 181.178C324.803 184.13 333.62 187.506 341.972 191.858C350.231 196.162 357.189 201.726 364.568 207.312C365.406 207.947 366.249 206.637 365.633 205.931C359.783 199.211 351.429 194.234 343.617 190.138C335.445 185.855 326.818 182.464 318.063 179.582C308.968 176.587 299.719 174.086 290.476 171.598C279.398 168.616 268.252 165.238 256.99 163.029C256.713 162.975 256.504 163.094 256.391 163.272C256.228 163.131 256.081 162.982 255.962 162.818C256.139 163.06 256.625 162.928 256.493 162.595C256.462 162.514 256.43 162.433 256.398 162.352C258.669 162.864 260.946 163.198 263.228 163.39C279.933 167.085 297.661 165.8 314.332 170.203C324.228 172.817 333.668 177.029 342.263 182.583C346.669 185.43 350.836 188.629 354.727 192.148C358.559 195.614 361.665 199.817 365.464 203.261C366.227 203.953 367.464 203.077 366.919 202.137C364.461 197.903 360.292 194.209 356.695 190.931C353.208 187.756 349.483 184.831 345.582 182.182C337.124 176.437 327.763 171.992 317.958 169.091C303.751 164.886 288.792 164.978 274.149 163.395C287.979 162.438 301.936 158.592 315.805 160.276C319.042 160.669 322.225 161.321 325.332 162.2C325.455 162.426 325.579 162.653 325.701 162.879C326.221 163.84 327.33 163.636 327.855 162.971C342.607 167.811 355.43 177.936 363.671 191.214C364.536 192.607 366.721 191.345 365.876 189.924C360.616 181.078 353.202 173.612 344.553 168.059C351.773 171.233 358.908 174.556 365.863 178.302C373.904 182.633 381.608 187.536 389.448 192.21C403.322 200.481 419.56 209.262 436.272 208.168C437.706 208.074 437.73 205.966 436.272 205.922C427.584 205.658 419.507 204.135 411.409 200.915C403.267 197.676 395.638 193.288 388.095 188.866C372.787 179.893 357.384 171.196 340.514 165.452C340.402 165.414 340.301 165.438 340.218 165.493C339.563 165.137 338.904 164.789 338.238 164.454C346.58 166.21 354.949 167.739 363.212 169.915C372.745 172.424 382.166 175.359 391.421 178.756C400.773 182.189 409.964 186.03 418.957 190.319C423.313 192.397 427.625 194.572 431.88 196.852C436.096 199.111 440.319 202.292 444.819 203.883C445.697 204.194 446.402 202.935 445.727 202.324C442.216 199.146 437.222 197.059 433.062 194.83C428.807 192.551 424.499 190.369 420.139 188.298C411.152 184.029 401.942 180.192 392.569 176.859C377.794 171.606 362.142 166.845 346.438 164.24C363.214 164.803 380.534 161.175 396.977 165.931C418.937 172.282 436.268 188.05 453.004 202.844C454.104 203.816 455.721 202.224 454.626 201.222C438.471 186.447 420.888 171.154 399.66 164.388C388.305 160.768 376.638 160.665 364.85 161.376C352.183 162.141 339.465 163.26 327.082 159.841C327.023 159.729 326.964 159.617 326.904 159.506C345.375 164.288 363.357 152.656 381.471 150.578C401.073 148.329 419.707 156.446 432.952 170.666C437.042 175.056 440.875 179.691 444.785 184.24C448.807 188.919 452.668 194.656 457.477 198.525C458.372 199.246 459.809 198.352 459.156 197.229C457.971 195.19 456.459 193.276 454.85 191.424C457.204 188.85 460.733 188.646 463.967 189.712C465.667 190.272 467.254 191.231 468.481 192.54C470.26 194.437 470.385 196.105 470.284 198.55C470.234 199.766 471.828 200.018 472.432 199.132C477.974 190.993 459.179 181.761 453.747 190.176C452.107 188.354 450.415 186.579 448.881 184.797C448.852 184.764 448.825 184.731 448.797 184.698C455.22 181.542 462.334 179.606 469.429 181.852C472.563 182.844 475.457 184.673 477.694 187.083C478.901 188.385 479.939 189.873 480.709 191.477C481.063 192.215 481.36 193 481.589 193.788C481.594 193.807 481.837 194.833 482.171 195.818C482.12 195.843 482.068 195.87 482.018 195.905C481.926 195.968 481.833 196.031 481.741 196.096C481.314 196.391 481.067 196.881 481.209 197.403C481.405 198.127 481.602 198.464 482.297 198.758C482.799 198.969 483.501 199.036 483.897 198.551C486.093 195.868 483.724 191.012 482.123 188.464C479.88 184.897 476.496 182.066 472.657 180.362C464.579 176.775 454.904 178.553 447.774 183.507C445.712 181.105 443.651 178.703 441.582 176.308C441.703 176.305 441.83 176.267 441.954 176.177C458.525 164.3 486.254 169.091 494.83 187.255C494.801 187.3 494.77 187.344 494.741 187.389C494.361 188.002 494.861 188.539 495.411 188.568C496.687 191.702 497.411 195.205 497.441 199.063C497.454 200.899 500.278 200.902 500.293 199.063C500.294 198.837 500.287 198.611 500.284 198.385C500.442 198.294 500.565 198.143 500.607 197.922C501.165 195.007 503.621 192.341 506.78 192.435C510.004 192.531 511.937 195.156 512.546 198.053C512.815 199.335 514.857 199.089 514.887 197.821C515.213 197.945 515.643 197.921 516.21 197.697C516.579 197.552 516.809 196.923 516.338 196.72C514.338 195.859 517.763 189.318 518.314 188.266C519.622 185.776 521.273 183.502 523.247 181.495C527.202 177.474 532.199 174.741 537.654 173.359C547.249 170.928 561.484 172.286 565.026 183.301C565.132 183.63 565.317 183.861 565.54 184.014C565.2 184.582 564.872 185.158 564.571 185.75C563.128 188.588 560.63 193.843 563.784 196.263C564.098 196.504 564.502 196.17 564.517 195.842C564.639 193.215 564.718 191.095 565.818 188.665C566.468 187.231 567.245 185.849 568.126 184.544C570.387 181.196 573.353 178.308 576.731 176.099C579.819 174.082 583.23 172.601 586.825 171.766C588.707 171.33 590.623 171.079 592.554 171.039C594.232 171.003 595.92 171.418 597.514 170.842C597.789 170.743 597.975 170.556 598.071 170.338C597.259 171.926 596.54 173.56 595.935 175.231C589.62 173.797 582.405 177.962 578.439 182.601C577.378 183.841 570.71 195.359 575.059 195.28C575.526 195.271 575.822 194.661 575.456 194.323L575.382 194.254C575.369 194.243 575.353 194.238 575.338 194.227C574.991 193.968 577.299 188.463 577.628 187.849C578.749 185.754 580.309 183.856 582.091 182.288C586.063 178.793 590.229 178.012 595.212 177.418C594.581 179.527 594.124 181.683 593.874 183.861C588.272 183.956 582.643 189.372 584.307 195.222C584.538 196.031 585.773 195.875 585.777 195.023C585.799 190.758 588.867 186.72 593.068 186.293C593.184 186.492 593.391 186.628 593.674 186.639C593.669 186.781 593.658 186.922 593.655 187.064C593.357 188.8 593.273 190.54 593.55 192.161C593.348 193.094 593.216 194.055 593.174 195.051C593.153 195.535 593.583 195.81 593.997 195.816C594.162 196.049 594.427 196.202 594.714 196.164C594.846 196.965 595.682 197.648 596.607 197.114C612.073 188.183 628.596 179.348 647.062 180.481C659.92 181.27 672.657 187.343 679.891 197.978C680.201 199.734 680.658 201.483 681.282 203.214C681.476 203.753 682.05 203.85 682.436 203.645C682.616 204.06 682.808 204.474 683.02 204.884C683.325 205.473 684.337 205.065 684.106 204.427C684.024 204.203 683.955 203.982 683.882 203.761C683.988 203.715 684.079 203.646 684.159 203.567C684.327 204.119 685.014 204.474 685.598 203.957C695.834 194.895 706.601 187.499 719.749 183.271C732.473 179.18 745.979 178.226 759.142 180.507C755.14 187.893 752.49 196.001 751.561 204.397C751.397 205.875 753.922 206.229 754.175 204.75C757.517 185.202 767.891 167.674 784.972 157.106C793.446 151.863 803.108 148.478 813.027 147.431C818.218 146.884 823.668 146.712 828.688 148.364C830.843 149.073 832.875 150.113 834.727 151.421C820.513 146.655 804.137 156.634 794.955 167.248C789.211 173.888 784.895 181.721 782.293 190.103C779.855 197.956 778.094 207.953 780.191 216.067C780.532 217.384 782.517 217.09 782.537 215.749C782.595 211.819 782.122 207.959 782.434 204.01C782.76 199.885 783.543 195.799 784.703 191.828C786.977 184.048 790.814 176.68 795.958 170.411C805.446 158.845 821.805 148.767 836.916 153.971C822.125 152.192 807.938 162.718 801.239 175.499C797.059 183.474 795.102 192.4 794.484 201.333C794.339 203.421 792.799 222.406 798.735 218.578C799.553 218.051 799.307 216.54 798.205 216.619C795.576 216.804 797.762 195.752 798.112 193.732C799.372 186.445 801.786 179.292 805.847 173.071C812.917 162.24 825.253 155.192 838.187 155.731C828.219 158.945 819.517 166.078 813.663 174.642C810.172 179.749 807.683 185.555 806.283 191.577C805.606 194.488 805.176 197.468 805.003 200.452C804.914 201.981 804.895 203.517 804.948 205.046C804.982 206.005 805.048 206.959 805.142 207.913C805.176 208.295 805.219 208.677 805.271 209.057C805.256 209.218 805.269 209.357 805.299 209.48C804.968 209.595 804.715 209.886 804.735 210.372C804.776 211.374 805.562 212.129 806.622 211.881C808.435 211.455 807.906 209.233 807.789 207.913C807.125 200.388 808.134 192.749 810.863 185.695C816.243 171.788 827.35 162.302 840.836 156.64C841.405 156.402 841.504 155.769 841.256 155.377C841.272 155.101 841.141 154.809 840.835 154.725C840.801 154.716 840.768 154.71 840.735 154.701C840.724 154.55 840.653 154.397 840.485 154.283C840.407 154.23 840.327 154.186 840.249 154.135C839.584 150.679 834.509 147.9 831.697 146.609C826.921 144.414 821.546 144.035 816.363 144.281C806.65 144.743 797.04 147.418 788.384 151.852C788.338 151.8 788.294 151.747 788.236 151.7C788.159 151.635 788.079 151.577 788.002 151.514C790.963 149.924 793.555 146.999 796.353 145.196C800.318 142.641 804.564 140.53 808.999 138.922C817.15 135.965 825.376 135.129 833.928 135.503C834.178 135.797 834.566 135.966 835 135.827C835.299 135.731 835.599 135.636 835.898 135.54C836.999 135.189 837.265 133.218 835.898 133.031C826.542 131.748 816.593 133.253 807.799 136.584C803.348 138.27 799.081 140.456 795.162 143.159C792.996 144.652 790.082 146.509 788.088 148.729C788.016 148.484 787.954 148.24 787.889 147.994C791.11 138.853 800.6 131.741 809.07 128.112C813.814 126.08 818.9 124.827 824.054 124.512C826.472 124.364 828.901 124.404 831.31 124.661C833.849 124.932 836.368 125.868 838.908 125.889C840.001 125.897 840.354 124.426 839.454 123.873C835.137 121.219 827.955 121.452 823.087 121.868C817.522 122.343 812.061 123.775 806.99 126.123C799.893 129.408 790.645 136.096 787.155 144.21C787.141 144.098 787.125 143.985 787.112 143.873C789.317 134.373 796.085 127.268 804.675 121.885C814.171 115.934 824.747 111.904 835.978 112.057C836.219 112.34 836.6 112.516 837.044 112.435C837.62 112.336 838.193 112.226 838.766 112.104C840.366 111.78 839.828 109.573 838.405 109.439C825.058 108.183 811.774 113.668 800.963 121.129C795.679 124.776 790.323 129.912 787.31 135.908C788.597 127.876 793.106 120.427 799.695 115.149C804.659 111.173 810.573 108.398 816.671 106.678C820.294 105.657 824.014 104.981 827.768 104.691C831.446 104.407 835.141 104.932 838.788 104.66C840.012 104.569 840.36 102.815 839.087 102.454C835.833 101.534 832.136 101.392 828.411 101.697C828.873 101.153 828.814 100.215 827.898 99.9131C819.316 97.0849 809.727 96.0217 800.5 95.7564C805.659 93.5944 810.915 91.973 816.638 91.5097C819.868 91.2483 823.147 91.3117 826.364 91.7077C829.843 92.1363 833.413 93.8786 836.855 93.8885C837.621 93.8905 838.185 92.8074 837.527 92.266C834.951 90.1436 830.83 89.7001 827.612 89.2398C823.614 88.6677 819.575 88.6053 815.561 89.0527C814.013 89.225 812.457 89.4724 810.909 89.7952C819.536 85.5078 828.619 82.9202 838.608 85.6642C838.383 86.6354 839.55 87.6164 840.364 86.7343C840.664 86.4096 840.965 86.0839 841.265 85.7592C841.935 85.0336 841.626 83.9368 840.703 83.6289C826.693 78.9585 811.641 84.8713 800.262 93.5004C800.214 93.5251 800.17 93.5539 800.122 93.5786C810.189 81.3423 825.273 74.3316 841.149 76.2402C841.245 76.6292 841.554 76.9311 842.1 76.8806C842.871 76.8084 843.56 76.7203 844.327 76.6085C845.554 76.4293 845.497 74.4148 844.327 74.1861C826.725 70.7372 806.389 78.6289 797.362 94.5438C797.214 94.8061 797.218 95.0467 797.309 95.2417C797.077 95.3932 796.839 95.5337 796.611 95.6911C796.537 95.6911 796.464 95.6911 796.39 95.6911C801.292 87.0164 806.158 79.2495 814.75 73.706C819.171 70.854 824.061 68.8168 829.185 67.6328C831.901 67.0052 834.664 66.6241 837.45 66.5033C839.055 66.4341 845.344 65.8362 846.238 67.2557C846.908 68.3248 848.722 67.6566 848.331 66.3727ZM631.668 4.05332C675.273 -0.302325 723.892 6.15095 757.525 36.6177C774.453 51.9525 786.236 72.137 789.468 94.8705C789.535 95.3417 789.833 95.6337 790.209 95.7742C787.554 95.8683 784.901 96.0356 782.254 96.2801C782.267 96.1871 782.276 96.09 782.272 95.9851C781.615 77.5964 773.136 60.4153 760.767 47.0465C747.112 32.2878 729.03 22.7162 709.74 17.537C688.809 11.9172 666.739 11.0758 645.205 12.4973C625.056 13.8277 604.95 17.4004 585.836 23.9962C565.295 31.086 544.034 41.7702 529.032 57.8544C528.964 57.9267 528.916 58.0019 528.875 58.0771C525.962 56.0003 522.628 54.6986 519.175 54.1343C549.443 24.2427 589.695 8.24563 631.668 4.05332ZM718.685 122.727C718.602 122.184 718.487 121.657 718.298 121.18C718.011 120.454 716.91 120.512 716.887 121.371C716.862 122.298 717.098 123.289 717.337 124.247C716.04 125.763 714.82 127.35 713.695 129.022C710.976 133.063 708.828 137.587 707.74 142.349C707.596 142.977 707.309 145.275 707.794 146.556C707.802 146.669 707.802 146.783 707.813 146.896C699.167 141.687 689.306 138.402 679.188 136.862C679.198 136.795 679.204 136.724 679.189 136.646C678.812 134.615 679.23 132.803 679.45 130.796C679.517 130.183 678.566 129.958 678.299 130.484C677.341 132.368 677.501 134.672 677.992 136.692C676.852 136.534 675.71 136.392 674.567 136.277C674.614 136.14 674.61 135.981 674.524 135.816C673.075 133.033 673.309 130.508 673.906 127.55C673.929 127.438 673.915 127.334 673.888 127.235C674.133 127.252 674.386 127.141 674.438 126.862C675.067 123.503 675.416 119.887 674.543 116.541C674.373 115.89 673.321 116.009 673.352 116.702C673.505 120.092 673.828 123.328 673.388 126.718C673.12 126.629 672.822 126.689 672.657 127.023C671.245 129.889 671.878 133.459 673.387 136.166C671.875 136.035 670.362 135.936 668.849 135.881C670.141 133.653 669.891 130.237 669.698 127.896C669.373 123.947 668.189 120.087 666.222 116.646C664.506 113.645 662.209 111.113 659.526 109.091C659.707 109.023 659.854 108.874 659.841 108.65C659.664 105.448 660.116 102.415 660.426 99.2439C660.5 98.4846 659.333 98.3777 659.13 99.0687C658.235 102.116 658.393 105.492 658.848 108.607C655.476 106.227 651.55 104.617 647.419 103.878C646.971 101.713 646.901 99.4805 647.118 97.2829C647.174 96.7206 646.232 96.59 646.126 97.1493C645.695 99.4192 645.863 101.572 646.592 103.742C642.674 103.152 638.778 103.319 635.021 104.118C635.784 101.453 631.232 97.2116 628.353 94.9091C627.319 91.6275 627.558 88.6597 627.773 85.2574C627.809 84.6842 627.003 84.6485 626.828 85.1296C625.792 87.9677 626.254 91.2335 627.278 94.0786C626.966 93.8449 626.699 93.6548 626.502 93.5212C620.572 89.4962 613.188 87.5203 606.041 88.0856C598.865 88.6528 592.079 91.6394 586.574 96.2316C583.681 98.646 579.469 102.669 578.066 106.908C576.628 103.245 573.991 99.7933 571.067 97.0493C571.793 94.5903 572.265 91.5028 571.433 89.0854C571.204 88.4221 570.307 88.5666 570.242 89.2467C570.125 90.497 570.289 91.7571 570.268 93.0134C570.251 94.0508 570.142 95.0674 569.997 96.0861C568.83 95.0813 567.635 94.1933 566.468 93.4568C562.501 90.9553 557.978 89.4497 553.326 88.8032C553.385 88.6934 553.406 88.5647 553.356 88.4231C552.951 87.2729 552.727 86.1126 552.771 84.8871C552.815 83.6557 553.223 82.5697 553.433 81.3729C553.558 80.6602 552.655 80.2157 552.239 80.869C550.801 83.1241 551.279 86.3106 552.259 88.6686C549.151 88.3251 546 88.3568 542.932 88.733C539.848 89.1101 536.787 89.8298 533.862 90.8969C540.615 81.5758 539.447 67.3289 530.748 59.569C530.573 59.4126 530.393 59.2631 530.213 59.1126C530.228 59.1017 530.242 59.0948 530.257 59.0839C533.247 56.6883 536.255 54.365 539.297 52.1208C538.98 54.3511 539.324 56.909 539.455 59.1086C539.504 59.9332 540.689 59.9352 540.738 59.1086C540.88 56.717 541.284 53.8997 540.806 51.5467C540.774 51.3893 540.687 51.2725 540.578 51.1853C544.099 48.6224 547.672 46.1743 551.315 43.85C551.254 44.6023 551.35 45.3874 551.373 46.1278C551.412 47.3296 551.451 48.5313 551.489 49.7331C551.516 50.5815 552.781 50.5834 552.808 49.7331C552.846 48.5313 552.885 47.3296 552.924 46.1278C552.957 45.0666 553.144 43.9332 552.801 42.9176C555.83 41.0248 558.909 39.2142 562.053 37.5027C562.101 38.6777 562.358 39.8884 562.509 41.0248C562.693 42.4126 562.884 43.7986 563.104 45.1815C563.201 45.7933 564.196 45.6437 564.178 45.0359C564.098 42.4057 564.297 39.244 563.633 36.6454C566.609 35.0695 569.639 33.5717 572.746 32.1779C572.735 32.2274 572.714 32.2719 572.713 32.3264C572.637 35.407 573.296 38.6282 573.655 41.6881C573.756 42.5463 575.086 42.5909 575.033 41.6881C574.853 38.5461 574.933 35.1981 574.312 32.1096C574.265 31.8779 574.142 31.7205 573.984 31.6275C575.944 30.7692 577.929 29.9446 579.949 29.1636C580.858 28.8122 581.774 28.4795 582.687 28.143C582.662 28.7834 582.717 29.4427 582.73 30.0555C582.755 31.2573 582.762 32.462 582.83 33.6608C582.888 34.6765 584.352 34.6784 584.41 33.6608C584.478 32.461 584.485 31.2563 584.51 30.0555C584.527 29.219 584.626 28.3182 584.489 27.4808C588.576 26.0216 592.711 24.6991 596.886 23.5141C596.907 24.0378 596.937 24.5634 596.921 25.0851C596.874 26.565 596.688 28.0202 596.363 29.4645C596.156 30.3871 597.519 30.7722 597.784 29.8565C598.354 27.8787 599.001 25.2593 598.707 23.0172C603.896 21.5957 609.139 20.3652 614.422 19.3357C614.163 21.5739 614.534 24.0724 614.586 26.2958C614.6 26.9452 615.58 26.9462 615.595 26.2958C615.649 23.9893 616.047 21.3868 615.727 19.0882C622.578 17.7954 629.488 16.8153 636.415 16.1293C636.245 16.9599 636.245 17.8538 636.169 18.6813C636.058 19.8811 635.947 21.0799 635.836 22.2797C635.765 23.0508 637.091 23.2419 637.201 22.4648C637.37 21.273 637.538 20.0811 637.706 18.8892C637.84 17.9389 638.098 16.9401 638.061 15.9759C650.566 14.8048 663.645 14.3633 676.65 15.1899C676.519 16.1383 676.742 17.1499 676.722 18.1111C676.695 19.4762 676.474 20.8077 676.194 22.1421C676.019 22.9776 677.216 23.3162 677.477 22.4955C677.903 21.1591 678.139 19.7772 678.232 18.3774C678.298 17.3855 678.401 16.262 678.109 15.2889C682.753 15.6185 687.384 16.1185 691.974 16.8035C691.867 17.635 691.967 18.516 691.987 19.3416C692.017 20.5424 692.019 21.7491 692.103 22.9469C692.163 23.7953 693.362 23.7963 693.422 22.9469C693.506 21.7491 693.508 20.5424 693.538 19.3416C693.556 18.5903 693.64 17.8053 693.576 17.048C707.188 19.2179 720.396 23.0974 732.43 29.3477C732.036 30.1654 732.206 31.0197 732.244 31.9106C732.29 32.9401 732.335 33.9706 732.38 35.0001C732.055 34.9516 731.699 35.1071 731.593 35.4842C731.296 36.5375 731.433 37.6759 731.452 38.7608C731.474 39.9636 731.524 41.1644 731.568 42.3662C731.601 43.268 732.937 43.27 732.97 42.3662C733.015 41.1644 733.064 39.9636 733.086 38.7608C733.106 37.6888 733.236 36.5791 732.957 35.5367C733.222 35.5288 733.482 35.3516 733.497 35.0001C733.542 33.9696 733.587 32.9402 733.632 31.9097C733.661 31.2494 733.761 30.6089 733.65 29.9882C738.254 32.457 742.675 35.2902 746.879 38.5074C746.881 39.2004 746.976 39.9002 746.957 40.5962C746.922 41.8266 746.745 43.0324 746.438 44.2252C746.196 45.1627 747.587 45.5378 747.881 44.6231C748.301 43.3184 748.753 41.596 748.762 39.9894C749.871 40.8833 750.968 41.7969 752.043 42.7492C755.234 45.5774 758.223 48.6274 760.971 51.8634C760.612 51.8575 760.254 52.1812 760.342 52.6257C760.628 54.068 761.237 55.4261 761.547 56.8704C761.893 58.484 762.112 60.1362 762.124 61.7854C762.127 62.1695 762.664 62.1487 762.706 61.7854C763.037 58.982 763.12 55.6152 761.881 52.9534C771.902 65.1531 778.482 79.9514 779.306 95.9851C779.318 96.2068 779.37 96.3999 779.451 96.5702C772.893 97.3116 766.388 98.5114 760.016 100.2C744.997 104.186 729.414 111.089 718.685 122.727ZM696.596 157.763C678.16 145.598 653.839 146.673 633.375 152.298C622.939 155.166 612.483 159.562 604.64 167.238C602.486 169.345 600.559 171.689 598.921 174.218C604.028 162.739 614.332 153.608 625.916 147.643C642.644 139.03 662.368 136.342 680.834 139.82C691.311 141.793 700.817 145.869 709.92 151.334C710.042 151.408 710.161 151.453 710.279 151.486C705.502 153.811 700.939 156.545 696.844 159.796C697.324 159.241 697.396 158.291 696.596 157.763ZM564.644 149.511C564.666 149.681 564.734 149.815 564.817 149.933C561.696 150.743 558.685 151.996 555.92 153.64C549.874 146.781 555.545 137.32 562.893 134.39C568.647 132.095 578.418 131.145 583.453 135.823C582.533 135.854 582.347 137.148 583.002 137.68C581.669 138.92 580.404 140.231 579.222 141.617C576.979 139.292 572.531 139.117 569.791 140.346C566.294 141.917 564.16 145.721 564.644 149.511ZM525.408 132.056C519.242 128.606 511.052 129.313 505.667 133.867C504.897 132.763 504.09 131.735 503.269 130.837C502.186 129.652 501.009 128.555 499.761 127.541C510.672 119.711 526.041 119.006 537.041 127.174C545.613 133.54 555.09 150.114 546.445 159.385C544.907 157.544 543.199 155.902 541.574 154.615C539.331 152.837 536.831 151.43 534.178 150.448C536.574 143.763 531.069 135.223 525.408 132.056ZM519.47 144.087C516.786 141.602 513.038 141.417 510.087 143.09C509.32 140.263 508.008 137.495 506.466 135.061C511.806 131.712 518.529 130.775 524.202 134.119C526.853 135.681 528.969 138.098 530.336 140.843C531.798 143.782 531.702 146.643 532.016 149.751C529.807 149.145 527.513 148.825 525.189 148.833C524.132 148.837 523.086 148.924 522.052 149.062C522.278 147.335 520.59 145.124 519.47 144.087ZM519.158 149.625C516.285 150.371 513.566 151.636 511.149 153.406C510.95 152.863 510.674 152.357 510.347 151.881C510.979 149.583 510.938 147.101 510.448 144.622C511.931 143.814 513.645 143.538 515.348 144.04C516.861 144.485 519.428 146.309 519.692 148.203C519.495 148.314 519.323 148.502 519.219 148.787C519.19 148.867 519.16 148.946 519.132 149.025C519.057 149.224 519.084 149.432 519.158 149.625ZM493.521 135.983C490.285 132.767 486.057 130.755 481.549 130.122C471.63 128.733 461.951 133.693 456.236 141.661C453.713 140.977 451.109 140.584 448.492 140.496C448.351 139.995 448.161 139.502 447.949 139.012C454.647 126.77 468.293 119.952 482.234 122.414C489.15 123.636 495.782 126.88 500.705 131.933C503.431 134.731 505.551 138.071 506.757 141.794C507.588 144.36 507.662 146.877 507.823 149.43C505.905 148.126 503.547 147.324 501.511 147.042C500.538 146.908 499.541 146.824 498.536 146.763C499.013 142.796 496.221 138.664 493.521 135.983ZM475.778 140.889C471.692 140.67 468.255 143.112 466.44 146.526C465.118 145.561 463.764 144.74 462.529 144.097C461.063 143.334 459.538 142.704 457.974 142.185C463.351 135.868 471.349 131.719 479.813 132.477C484.286 132.878 488.474 134.642 491.66 137.844C494.269 140.464 495.101 143.524 496.599 146.687C492.241 146.623 487.744 147.2 483.696 148.329C483.687 148.332 483.678 148.335 483.669 148.337C483.786 144.314 479.576 141.092 475.778 140.889ZM481.557 149.031C478.47 150.168 475.415 151.887 472.84 154.096C471.911 151.518 469.812 149.195 467.471 147.315C469.394 145.122 471.941 143.174 474.892 143.151C478.59 143.124 480.683 145.785 481.557 149.031ZM437.712 125.258C438.042 126.543 438.444 127.898 438.951 129.227C437.672 128.343 436.4 127.569 435.223 126.936C429.57 123.895 423.073 122.418 416.674 123.034C415.721 121.014 415.997 118.423 417.754 116.907C418.618 116.162 419.763 115.801 420.894 115.801C422.04 115.8 422.878 116.381 423.917 116.613C423.885 117.175 423.865 117.74 423.874 118.305C423.902 120.099 423.811 123.105 426.104 123.473C426.999 123.617 427.394 122.355 426.486 122.086C424.48 121.495 426.143 114.744 426.493 113.409C427.224 110.623 428.431 107.95 430.054 105.569C433.364 100.71 438.286 97.1196 443.77 95.0774C448.721 93.2341 454.117 92.5382 459.37 93.1302C462.02 93.4292 464.661 94.0667 467.14 95.0566C468.637 95.6545 470.085 96.3949 471.444 97.2621C472.224 97.7551 472.973 98.2936 473.688 98.8776C474.056 99.4013 474.489 99.6488 474.982 99.6389C474.684 100.105 474.844 100.672 475.171 101.063C475.411 101.349 475.648 101.507 475.909 101.583C474.231 102.877 472.66 104.287 471.269 105.801C467.473 102.33 460.762 101.737 455.928 102.298C450.481 102.93 445.155 105.293 441.281 109.223C439.364 111.167 437.559 113.605 436.859 116.277C436.091 119.204 436.978 122.41 437.712 125.258ZM415.097 123.234C412.925 123.562 410.802 124.127 408.759 124.902C406.654 122.017 403.926 119.846 400.836 118.291C401.144 117.481 401.537 116.521 401.684 116.282C402.332 115.221 403.075 114.214 403.906 113.291C405.506 111.514 407.437 110.016 409.571 108.938C414.839 106.277 420.135 106.796 425.581 108.446C425.673 108.474 425.762 108.483 425.848 108.484C425.042 110.383 424.459 112.37 424.144 114.402C422.03 112.95 418.245 113.865 416.541 115.367C414.338 117.313 413.814 120.655 415.097 123.234ZM399.001 117.453C395.832 116.158 392.357 115.462 388.818 115.263C389.966 105.506 397.756 98.4589 406.697 95.2585C411.616 93.4974 417.034 92.5224 422.216 93.5915C426.428 94.4616 429.264 96.7562 432.637 98.9677C430.198 101.198 428.141 103.83 426.621 106.816C426.549 106.739 426.463 106.667 426.354 106.612C419.954 103.344 411.662 104.467 405.968 108.671C404.376 109.846 399.943 114.097 399.001 117.453ZM517.487 101.839C517.574 101.943 517.66 102.048 517.745 102.154C517.849 102.282 518.012 102.37 518.187 102.417C516.06 105.273 514.258 108.56 513.118 112.002C509.784 106.841 500.942 104.974 495.618 105.747C487.836 106.876 481.451 112.553 478.043 119.454C474.273 119.324 470.537 119.799 466.989 120.819C467.099 109.127 479.151 101.108 489.01 97.0928C493.693 95.1853 498.758 94.1241 503.823 94.6289C508.198 95.0645 514.506 96.979 517.313 100.855C517.197 101.153 517.225 101.517 517.487 101.839ZM540.548 115.555C538.11 115.856 535.517 116.962 534.225 119.152C533.655 120.118 533.372 121.174 533.507 122.13C530.867 120.883 528.086 120.017 525.249 119.52C525.259 119.477 525.28 119.441 525.284 119.394C526.034 110.645 538.367 105.141 546.042 104.852C549.752 104.712 553.45 105.759 556.459 107.953C559.585 110.232 560.577 112.988 561.922 116.229C558.549 117.942 555.384 120.078 552.727 122.662C552.083 117.657 544.861 115.022 540.548 115.555ZM551.351 124.092C549.074 126.621 547.271 129.53 546.174 132.831C544.453 130.418 542.428 128.225 540.156 126.345C538.761 125.192 537.286 124.182 535.755 123.303C533.705 121.161 537.323 118.626 539.122 118.096C540.774 117.609 542.552 117.662 544.211 118.087C547.766 118.998 548.904 121.435 551.121 123.909C551.188 123.987 551.267 124.047 551.351 124.092ZM558.519 106.258C554.646 103.227 549.798 101.954 544.924 102.407C536.921 103.148 523.304 109.621 523.808 119.301C520.405 118.858 516.942 118.948 513.561 119.556C515.118 112.699 517.301 106.557 522.369 101.298C527.861 95.5971 535.31 92.3541 543.113 91.4067C550.313 90.5326 557.889 91.6057 564.221 95.2724C567.678 97.274 570.642 100.061 572.851 103.39C574.596 106.02 575.373 108.902 576.499 111.732C574.579 111.891 572.64 112.25 570.678 112.811C568.552 113.418 566.414 114.18 564.326 115.095C563.924 111.63 561.08 108.262 558.519 106.258ZM497.451 116.497C494.029 116.604 491.007 118.75 489.574 121.774C487.229 120.898 484.805 120.246 482.357 119.861C481.502 119.726 480.645 119.625 479.787 119.554C483.424 114.216 488.352 109.617 494.888 108.289C498.149 107.626 501.618 107.942 504.716 109.159C508.156 110.51 509.74 112.926 512.261 115.23C511.95 116.79 511.78 118.362 511.802 119.921C509.81 120.391 507.858 121.054 505.971 121.889C505.145 118.448 500.735 116.394 497.451 116.497ZM504.052 122.818C502.081 123.848 500.195 125.076 498.44 126.524C496.171 124.858 493.691 123.47 491.091 122.37C492.71 119.994 495.129 118.394 498.171 118.743C501.057 119.073 502.297 120.948 504.052 122.818ZM439.824 115.246C440.959 112.904 442.85 110.896 444.884 109.307C448.534 106.455 453.085 104.849 457.702 104.618C462.4 104.384 465.673 105.992 469.816 107.506C467.72 110.173 466.198 113.124 465.588 116.313C462.864 113.438 456.762 113.937 454.2 116.543C451.283 119.51 451.503 124.769 454.935 127.112C451.838 129.655 449.21 132.793 447.246 136.462C446.687 136.111 446.171 135.737 445.694 135.342C444.95 134.406 444.112 133.509 443.217 132.662C441.591 130.364 440.651 127.636 439.947 124.643C439.216 121.541 438.363 118.26 439.824 115.246ZM465.399 121.317C462.046 122.459 458.894 124.107 456.078 126.214C453.657 124.154 453.517 119.911 456.053 117.863C457.383 116.789 459.133 116.482 460.794 116.751C462.567 117.038 463.722 118.131 465.284 118.847C465.291 118.85 465.297 118.85 465.303 118.853C465.275 119.662 465.302 120.483 465.399 121.317ZM547.41 134.681C550.83 125.058 560.179 118.89 569.611 115.873C576.275 113.74 582.581 113.546 588.918 116.823C593.992 119.446 598.226 123.09 601.572 127.626C595.997 128.887 590.752 131.492 586.214 134.958C580.429 128.083 567.634 129.123 560.391 132.709C555.924 134.921 552.401 139.55 551.509 144.387C550.677 140.966 549.272 137.682 547.41 134.681ZM657.317 125.354C654.386 120.701 649.49 117.367 644.062 116.445C634.479 114.815 624.644 119.973 620.427 128.59C616.754 127.352 612.882 126.755 609.009 126.783C616.871 115.437 627.385 105.455 642.188 105.761C649.163 105.905 656.153 108.48 660.947 113.67C663.446 116.374 665.257 119.705 666.273 123.239C666.521 124.098 667.759 135.197 666.71 134.958C666.046 134.807 665.484 135.275 665.32 135.824C663.481 135.827 661.645 135.876 659.823 135.989C661.108 133.115 658.524 127.27 657.317 125.354ZM656.845 136.217C655.949 136.303 655.053 136.39 654.165 136.5C651.389 136.848 648.593 137.335 645.804 137.949C646.206 133.348 642.896 128.681 638.128 128.199C634.352 127.818 631.061 130.129 629.568 133.365C627.503 131.811 625.245 130.524 622.862 129.512C622.561 129.384 622.258 129.263 621.955 129.144C625.732 122.602 632.936 118.293 640.59 118.378C645.113 118.429 649.448 120.226 652.687 123.385C654.209 124.87 655.441 126.609 656.289 128.557C656.765 129.65 658.065 133.183 657.596 134.882C657.259 134.988 656.952 135.233 656.882 135.593C656.835 135.833 656.827 136.031 656.845 136.217ZM643.754 138.426C641.126 139.066 638.511 139.818 635.93 140.696C635.521 138.371 632.998 136.27 631.365 134.828C631.171 134.656 630.97 134.492 630.772 134.326C632.076 131.638 634.865 129.684 637.992 130.17C641.779 130.759 644.083 134.373 643.721 138.048C643.706 138.189 643.722 138.313 643.754 138.426ZM604.106 115.745C607.49 115.056 609.712 116.987 611.908 119.155C610.075 121.549 608.498 124.129 607.24 126.843C606.238 126.901 605.237 126.987 604.241 127.132C603.403 124.546 601.341 122.165 598.898 120.104C599.883 117.965 601.676 116.24 604.106 115.745ZM597.656 119.105C595.172 117.205 592.457 115.63 590.274 114.504C590.049 114.388 589.824 114.287 589.599 114.178C592.002 108.97 598.796 106.464 603.922 104.913C607.277 103.898 610.955 103.278 614.396 104.265C617.731 105.221 619.529 107.464 621.812 109.815C618.594 111.988 615.667 114.626 613.154 117.606C611.44 114.55 607.371 113.082 603.995 113.749C600.99 114.342 598.734 116.429 597.656 119.105ZM632.297 104.464C632.26 104.589 632.256 104.709 632.267 104.824C629.149 105.758 626.152 107.113 623.352 108.824C620.65 101.405 610.943 100.532 604.425 102.393C598.591 104.06 590.366 107.256 588.163 113.535C585.257 112.339 582.305 111.723 579.303 111.649C578.079 105.818 585.239 99.6666 589.486 96.6315C594.189 93.2698 599.753 91.0028 605.53 90.4693C610.958 89.9684 616.5 91.0039 621.397 93.3955C623.833 94.5854 626.113 96.0881 628.124 97.9105C629.775 99.4092 633.028 102.028 632.297 104.464ZM552.316 151.426C552.831 152.524 553.545 153.571 554.495 154.532C553.47 155.215 552.484 155.954 551.548 156.749C552.059 155.066 552.282 153.217 552.316 151.426ZM566.32 149.511C566.371 146.408 567.945 143.204 571.087 142.187C573.73 141.331 575.577 142.374 577.702 143.471C576.482 145.007 574.658 146.904 574.587 148.87C571.825 148.749 569.035 149.001 566.306 149.581C566.308 149.557 566.319 149.539 566.32 149.511ZM581.801 142.421C583.045 141.069 584.379 139.799 585.779 138.607C585.857 138.631 585.936 138.656 586.015 138.679C586.99 138.979 587.792 138.02 587.608 137.133C587.921 136.895 588.229 136.648 588.549 136.418C593.415 132.921 599.079 130.445 605.044 129.671C610.651 128.943 616.448 129.717 621.658 131.917C624.224 133.001 626.644 134.44 628.793 136.217C628.83 136.524 629.101 136.709 629.401 136.736C630.988 138.191 632.163 140.008 633.645 141.508C629.232 143.145 624.941 145.137 620.893 147.5C620.01 145.267 617.143 143.052 615.627 142.056C611.939 139.632 607.448 138.721 603.087 139.144C596.093 139.822 586.732 143.785 585.519 151.49C582.845 150.213 579.928 149.431 576.971 149.072C576.967 149.055 576.966 149.039 576.962 149.022C576.938 148.926 576.894 148.847 576.839 148.779C578.454 146.955 581.323 142.941 581.801 142.421ZM601.625 141.632C604.764 141.148 608.056 141.314 611.05 142.423C612.762 143.059 614.393 143.993 615.78 145.185C616.292 145.628 616.772 146.103 617.219 146.611C617.59 147.356 618.101 147.932 618.746 148.346C618.691 148.396 618.634 148.447 618.59 148.514C618.54 148.588 618.492 148.664 618.442 148.738C618.382 148.829 618.348 148.946 618.328 149.069C615.08 151.15 612.004 153.473 609.187 156.064C608.122 153.073 603.965 151.888 601.092 152.35C597.755 152.888 595.177 155.329 593.749 158.283C593.058 157.34 592.313 156.471 591.555 155.713C590.161 154.318 588.588 153.161 586.9 152.212C588.198 145.864 595.832 142.526 601.625 141.632ZM287.615 75.181C293.754 75.8818 299.538 79.6782 300.456 86.1067C300.643 87.4183 302.929 87.4243 303.111 86.1067C304.216 78.0705 307.37 69.5988 314.391 64.9026C320.776 60.6321 329.985 60.5786 335.472 66.3271C336.319 67.2151 337.871 66.5321 337.87 65.3333C337.857 44.4727 349.535 22.0105 370.123 14.8672C388.139 8.61686 410.666 15.9571 419.006 33.7033C419.473 34.6962 421.11 34.6636 421.587 33.7033C425.365 26.0948 434.089 21.3066 442.576 23.0429C451.378 24.8446 457.627 33.2658 457.608 42.084C457.605 43.4837 459.211 43.9411 460.175 43.1472C467.204 37.3651 477.495 35.8248 485.751 39.8963C493.552 43.7441 498.607 51.8516 498.998 60.4757C499.06 61.8498 500.575 62.3823 501.577 61.5438C509.363 55.0351 521.933 55.1322 529.28 62.3398C536.576 69.4979 537.001 81.4887 531.182 89.6209C530.535 90.5257 531.133 91.3859 531.963 91.6473C527.691 93.4707 523.774 96.0772 520.59 99.5162C520.373 99.7508 520.162 100.001 519.949 100.245C518.762 97.7531 512.575 94.3191 511.552 93.8964C505.377 91.3434 498.457 91.4424 492.115 93.3193C487.669 94.6349 482.497 96.98 477.884 100.151C477.695 97.7986 474.607 96.094 472.79 94.9556C469.761 93.0579 466.329 91.7492 462.83 91.0464C455.613 89.5962 448.001 90.4485 441.261 93.3945C438.832 94.4557 436.55 95.8059 434.481 97.4136C431.787 94.0587 426.925 91.9977 422.888 91.1523C416.92 89.903 410.598 91.0336 404.987 93.2332C395.482 96.9582 387.649 104.707 386.887 115.202C380.312 115.171 373.665 116.82 368.47 119.673C365.709 121.189 363.233 123.146 361.124 125.412C352.784 119.345 340.31 122.1 332.041 126.995C324.825 131.267 319.553 139.173 320.131 147.439C313.163 135.914 304.817 125.194 293.449 117.791C289.608 115.29 285.482 113.252 281.166 111.801C281.617 111.493 281.914 110.957 281.767 110.273C279.846 101.397 276.412 93.0381 271.957 85.2217C272.367 78.2349 281.318 74.4623 287.615 75.181ZM59.8527 80.0692C55.5595 80.2375 51.2464 80.6829 46.9244 81.4274C65.325 49.3134 98.814 29.3269 134.198 21.0235C154.556 16.2462 174.96 17.0064 194.662 24.1527C213.143 30.8564 229.858 42.1414 244.109 55.5756C260.226 70.7699 273.858 89.1626 278.958 111.046C278.965 111.074 278.977 111.097 278.985 111.124C275.566 110.147 272.041 109.537 268.449 109.369C267.007 109.302 265.571 109.301 264.137 109.347C264.17 109.187 264.168 109.01 264.108 108.817C261.778 101.365 257.175 94.2627 252.811 87.8401C248.517 81.5234 243.711 75.5463 238.464 69.9968C227.587 58.4949 214.774 48.7808 200.708 41.5089C184.817 33.2925 167.212 27.5372 149.148 29.0567C131.031 30.5802 111.954 34.9734 95.5512 42.9205C79.8253 50.5409 65.518 63.1297 59.8527 80.0692ZM72.2356 80.3256C68.76 80.0455 65.2626 79.9454 61.7514 80.0177C75.834 47.8552 113.026 36.2039 145.329 32.3749C177.691 28.539 210.226 46.3446 232.762 68.4555C238.767 74.3465 244.254 80.7681 249.095 87.649C253.999 94.62 257.551 102.233 261.974 109.456C253.574 110.004 245.297 112.051 236.925 112.921C233.009 113.328 228.89 113.433 224.825 113.05C225.349 112.716 225.749 112.108 225.951 111.359C226.646 108.77 224.486 104.75 223.595 102.382C221.116 95.7961 217.984 89.4526 214.221 83.5052C206.897 71.933 197.272 61.8418 185.852 54.2551C162.345 38.6401 131.618 35.7 105.796 47.3632C91.541 53.8007 77.9989 65.454 72.2356 80.3256ZM74.2274 80.5008C80.6896 69.0346 89.291 59.5244 100.851 52.9256C111.845 46.6505 124.457 43.3719 137.085 43.0215C162.579 42.3127 186.315 54.0234 202.887 73.1239C207.447 78.3794 211.448 84.0992 214.829 90.1812C216.601 93.3708 218.205 96.6543 219.62 100.018C220.315 101.67 220.963 103.341 221.566 105.03C221.936 106.068 222.816 110.462 223.718 110.792C222.532 110.357 221.782 111.966 222.51 112.778C221.799 112.676 221.089 112.558 220.384 112.422C222.693 107.839 210.737 92.0759 208.958 89.8951C201.5 80.7542 192.196 73.1081 181.877 67.4032C161.503 56.1379 135.864 51.7565 113.49 59.468C102.16 63.3722 90.9491 70.9263 86.2846 82.3737C82.3031 81.5333 78.2801 80.9037 74.2274 80.5008ZM87.6665 82.6776C98.5328 63.9751 121.144 57.3951 141.794 58.5197C162.651 59.6551 182.935 68.6277 198.24 82.7648C202.55 86.7442 206.493 91.1355 209.914 95.9029C210.848 97.2057 219.638 110.713 217.791 111.36C217.585 111.432 217.421 111.553 217.292 111.7C213.617 110.672 210.133 109.088 207.068 106.76C206.707 106.487 206.283 107.07 206.592 107.376C208.409 109.172 210.318 110.618 212.304 111.779C212.321 111.808 212.329 111.837 212.352 111.864C213.163 112.832 213.985 113.799 214.82 114.763C213.111 112.987 211.273 111.322 209.277 109.798C207.917 108.76 206.514 107.836 205.082 107.009C205.505 106.858 205.842 106.495 205.798 105.98C204.953 96.1445 195.053 87.5421 187.596 82.2381C177.894 75.3384 166.661 69.9819 155.044 67.2883C134.869 62.61 110.225 67.1617 98.1359 85.5128C94.686 84.41 91.1916 83.4666 87.6665 82.6776ZM191.098 122.104C197.606 124.346 203.946 127.064 209.94 130.456C212.878 132.119 215.728 133.937 218.458 135.925C220.05 137.086 221.602 138.304 223.101 139.581C223.67 140.065 224.256 140.546 224.792 141.065C225.341 141.596 226.135 142.923 226.891 143.284C226.913 143.313 226.937 143.341 226.959 143.37C226.879 143.375 226.801 143.388 226.727 143.413C223.085 141.47 219.251 139.835 215.542 138.318C207.959 135.217 200.147 132.73 192.412 130.047C178.251 125.134 164.545 119.219 151.061 112.741C164.533 115.426 178.037 117.603 191.098 122.104ZM161.136 112.793C170.994 112.612 181.198 110.015 190.822 112.128C199.636 114.062 206.235 120.681 212.43 126.832C214.718 129.104 216.946 131.438 219.11 133.83C213.433 129.778 207.263 126.434 200.851 123.693C188.298 118.327 174.743 115 161.136 112.793ZM223.323 135.416C220.453 132.086 217.455 128.871 214.329 125.781C208.524 120.043 202.238 113.68 194.302 111.07C180.365 106.488 165.722 112.546 151.5 110.465C154.18 110.516 156.867 110.411 159.564 110.117C165.527 109.468 171.224 107.782 177.034 106.391C183.383 104.872 189.75 104.1 196.117 105.933C201.373 107.445 206.131 110.383 210.192 114.007C214.256 117.635 217.689 121.92 220.53 126.561C223.119 130.79 224.932 135.371 227.109 139.797C225.854 138.302 224.555 136.846 223.323 135.416ZM99.699 86.0206C113.326 69.9552 134.793 65.063 154.912 69.9997C165.466 72.5894 175.426 77.43 184.426 83.4725C188.711 86.3492 192.773 89.6338 196.178 93.5291C199.597 97.4393 201.19 101.652 203.484 106.136C196.639 102.618 189.073 101.448 181.142 102.828C177.86 103.399 174.646 104.263 171.429 105.114C171.564 104.898 171.635 104.626 171.587 104.304C171.119 101.224 169.069 98.1085 167.423 95.505C165.688 92.76 163.683 90.1614 161.408 87.842C156.648 82.9914 150.664 79.3475 144.002 77.8478C137.677 76.4233 130.968 76.8431 125.073 79.6396C121.832 81.1769 118.997 83.5487 116.33 85.9186C114.614 87.4421 112.96 89.117 113.274 91.3919C108.836 89.3576 104.305 87.5579 99.699 86.0206ZM117.296 93.3014C117.288 93.2599 117.284 93.2163 117.276 93.1747C117.23 92.9381 116.909 92.8936 116.756 93.0401C116.123 92.7293 115.487 92.4244 114.851 92.1225C114.852 92.0848 114.864 92.0542 114.859 92.0136C114.404 88.4182 120.216 85.2346 122.783 83.626C125.203 82.1094 127.794 80.9552 130.578 80.286C136.181 78.9397 142.14 79.5149 147.505 81.5551C152.749 83.5478 157.301 87.0204 160.996 91.2048C162.775 93.2203 164.347 95.409 165.733 97.7105C167.162 100.082 168.062 102.891 169.677 105.109C169.799 105.276 169.943 105.382 170.092 105.463C167.345 106.18 164.588 106.86 161.778 107.307C160.52 107.507 159.255 107.66 157.987 107.792C158.016 107.733 158.049 107.682 158.067 107.612C159.118 103.546 156.519 98.3372 154.152 95.1397C151.542 91.6126 147.772 88.833 143.454 87.8401C135.902 86.1028 127.371 89.8773 124.386 97.0681C122.051 95.7525 119.69 94.4893 117.296 93.3014ZM130.386 161.527C130.284 166.03 130.216 170.534 130.182 175.038C129.895 169.217 129.652 163.393 129.515 157.559C129.089 139.352 129.568 121.13 129.134 102.93C130.668 103.883 132.18 104.869 133.683 105.871C131.658 124.335 130.81 142.968 130.386 161.527ZM140.74 107.641C135.859 104.066 130.774 100.741 125.522 97.7175C129.017 91.6582 136.376 88.2657 143.284 90.1258C147.135 91.1622 150.444 93.8498 152.652 97.1255C154.932 100.509 154.988 103.974 156.311 107.614C156.359 107.744 156.437 107.849 156.525 107.942C151.274 108.382 145.969 108.256 140.74 107.641ZM146.315 110.169C147.018 110.487 147.724 110.78 148.435 111.032C148.043 110.985 147.65 110.936 147.258 110.891C146.721 110.629 146.183 110.372 145.646 110.107C145.87 110.13 146.094 110.148 146.315 110.169ZM147.142 112.531C146.8 112.262 146.46 111.994 146.118 111.726C146.122 111.727 146.124 111.73 146.128 111.731C146.267 111.76 146.406 111.788 146.545 111.817C160.098 119.392 174.408 125.706 189.002 130.956C196.566 133.677 204.253 136.051 211.773 138.894C216.705 140.759 221.289 142.987 225.799 145.424C222.945 144.912 220.067 144.589 217.176 144.37C214.259 143.829 211.355 143.189 208.455 142.369C200.753 140.188 193.306 137.239 186.04 133.894C172.547 127.683 160.088 119.731 147.142 112.531ZM164.104 127.383C160.891 124.222 157.578 121.19 154.215 118.318C164.607 125.048 175.525 131.172 186.691 136.304C192.641 139.04 198.981 141.659 205.498 143.734C200.7 143.471 195.916 143.077 191.204 142.062C181.114 139.889 172.346 133.84 164.104 127.383ZM171.261 134.876C176.581 138.653 182.24 141.801 188.387 143.486C197.018 145.853 205.986 145.733 214.864 146.262C218.28 147.011 221.715 147.563 225.143 147.853C225.367 147.982 225.594 148.097 225.821 148.205C223.575 147.853 221.307 147.636 219.024 147.582C212.723 147.43 206.452 148.269 200.181 148.727C196.877 148.969 193.563 149.109 190.252 148.947C187.271 148.8 184.372 148.06 181.421 147.82C178.356 143.313 174.928 138.994 171.261 134.876ZM272.684 203.046C271.575 202.518 270.6 202.063 270.462 201.999C268.473 201.071 266.509 200.094 264.565 199.075C260.508 196.951 256.547 194.649 252.653 192.24C244.978 187.489 237.554 182.346 230.112 177.241C217.455 168.558 204.307 159.651 189.921 153.971C204.868 157.604 220.243 160.198 234.002 167.316C250.072 175.628 260.129 190.659 272.684 203.046ZM265.43 181.101C267.604 185.794 268.511 191.475 270.479 196.459C266.171 191.826 261.636 187.353 257.341 182.855C250.88 176.091 244.007 169.92 235.674 165.552C219.553 157.102 201.067 154.674 183.469 150.969C183.261 150.64 183.06 150.306 182.849 149.978C187.038 151.554 192.231 151.49 196.434 151.382C202.727 151.222 208.975 150.323 215.268 150.156C226.107 149.87 236.481 152.68 245.616 158.56C254.137 164.046 261.162 171.891 265.43 181.101ZM232.508 149.7C232.611 149.601 232.687 149.47 232.727 149.328C233.256 149.636 233.783 149.936 234.314 150.248C234.501 150.358 234.698 150.369 234.876 150.318C234.949 150.382 235.018 150.449 235.09 150.513C234.238 150.218 233.376 149.953 232.508 149.7ZM254.346 161.846C254.615 161.921 254.885 161.978 255.154 162.046C255.006 162.099 254.887 162.172 254.794 162.264C254.642 162.127 254.499 161.982 254.346 161.846ZM258.192 160.677C256.77 160.317 255.356 159.916 253.949 159.473C254.038 159.056 253.918 158.609 253.467 158.399C248.11 155.903 242.62 153.421 237.982 149.691C232.97 145.66 230.249 140.243 227.646 134.507C224.994 128.662 221.812 123.068 217.803 118.137C229.347 130.918 243.07 142.738 259.532 147.918C278.436 153.867 298.897 151.698 317.663 157.942C297.819 155.258 277.854 163.642 258.192 160.677ZM269.22 137.611C253.029 133.096 237.394 127.784 222.905 119.208C238.391 125.366 256.192 124.108 272.259 128.302C281.438 130.699 290.194 134.549 298.201 139.635C303.508 143.005 308.194 146.904 312.596 151.167C298.634 145.298 283.767 141.668 269.22 137.611ZM315.985 155.03C316.167 155.107 316.344 155.132 316.513 155.122C316.559 155.169 316.605 155.216 316.651 155.263C299.531 149.788 280.848 151.273 263.449 146.713C247.287 142.477 235.219 132.22 223.593 121.176C236.6 129.617 251.761 134.616 266.509 138.969C283.181 143.892 299.955 148.193 315.985 155.03ZM321.049 156.839C310.08 142.677 293.393 132.346 276.42 127.208C257.413 121.456 236.725 123.61 218.236 116.032C217.31 115.14 216.385 114.248 215.456 113.358C233.168 120.87 255.991 109.064 274.518 112.677C297.995 117.255 311.861 137.922 322.791 157.572C322.212 157.318 321.632 157.074 321.049 156.839ZM333.176 158.411C330.791 158.395 328.391 158.197 325.976 157.767C324.727 155.43 323.438 153.098 322.105 150.786C320.417 141.736 325.881 133.329 333.759 128.881C341.306 124.622 351.803 122.474 359.49 127.319C358.036 129.172 356.81 131.189 355.849 133.31C354.077 132.745 351.367 133.685 349.814 134.189C346.055 135.41 342.622 137.563 339.836 140.359C337.062 143.143 334.926 146.564 333.739 150.317C333.04 152.528 332.027 156.089 333.176 158.411ZM334.792 158.399C333.457 155.865 335.175 151.667 336.232 149.348C337.354 146.885 338.932 144.604 340.801 142.651C342.675 140.692 344.872 139.037 347.292 137.808C347.719 137.591 353.661 135.798 354.932 135.6C353.69 139.144 353.181 142.914 353.567 146.674C353.543 146.665 353.523 146.652 353.497 146.644C347.32 144.672 341.797 151.841 345.837 157.021C342.187 157.781 338.506 158.3 334.792 158.399ZM347.083 156.752C347.071 156.707 347.063 156.66 347.038 156.615C344.638 152.325 347.952 147.199 352.935 148.683C353.302 148.792 353.606 148.709 353.83 148.528C354.197 150.536 354.823 152.528 355.743 154.472C352.873 155.315 349.987 156.103 347.083 156.752ZM367.872 150.86C367.817 148.093 367.338 145.607 368.038 142.81C368.79 139.807 370.411 137.056 372.801 135.066C375.397 132.905 378.868 131.431 382.183 130.868C386.702 130.101 390.001 131.539 392.452 135.31C393.064 136.251 394.55 135.663 394.276 134.54C392.042 125.391 379.13 128.261 373.495 131.749C367.811 135.266 362.689 144.725 366.733 151.177C364.926 151.689 363.125 152.229 361.327 152.782C360.015 153.185 358.698 153.589 357.38 153.984C352.32 141.558 358.624 127.664 370.189 121.575C375.779 118.633 382.254 117.394 388.541 117.85C395.757 118.374 401.171 121.258 406.39 125.908C403.327 127.358 400.482 129.277 397.975 131.569C395.54 133.796 393.418 136.409 391.787 139.282C391.654 139.519 391.513 139.765 391.373 140.019C388.58 136.762 382.083 138.754 379.336 141.046C377.715 142.399 376.086 144.56 376.019 146.773C375.994 147.588 376.282 148.339 376.766 148.762C373.778 149.32 370.817 150.048 367.872 150.86ZM379.035 148.377C379.18 147.934 378.772 147.402 378.255 147.702C377.463 148.163 378.598 145.064 378.626 145.017C378.959 144.433 379.391 143.903 379.861 143.425C380.89 142.377 382.182 141.615 383.571 141.149C384.715 140.765 385.967 140.582 387.172 140.693C388.377 140.804 389.404 141.374 390.569 141.526C389.62 143.424 388.843 145.553 389.241 147.457C389.256 147.526 389.293 147.582 389.34 147.624C385.854 147.557 382.425 147.849 379.035 148.377ZM389.811 147.637C389.822 147.628 389.837 147.627 389.847 147.616C391.539 145.834 392.211 142.954 393.485 140.833C395.007 138.302 396.857 135.991 398.989 133.948C403.541 129.584 409.412 126.569 415.677 125.696C421.924 124.825 428.39 126.173 433.909 129.185C436.562 130.633 439.004 132.44 441.138 134.581C442.93 136.379 444.159 138.547 445.66 140.515C441.111 140.729 436.408 141.839 432.112 143.804C430.488 136.546 420.791 134.615 414.625 135.977C408.158 137.405 400.8 141.714 399.519 148.689C396.317 148.085 393.069 147.726 389.811 147.637ZM402.387 149.293C402.762 149.037 402.584 148.428 402.07 148.526C401.838 148.551 401.607 148.576 401.375 148.6C403.456 143.168 408.459 139.916 414.046 138.455C417.558 137.536 421.423 137.378 424.763 139.006C427.436 140.31 428.791 142.334 430.091 144.801C427.906 145.979 425.858 147.389 424.035 149.03C423.989 148.895 423.915 148.763 423.805 148.637C419.604 143.829 411.962 145.812 410.475 151.784C407.839 150.772 405.134 149.945 402.387 149.293ZM415.68 154.048C414.505 153.471 413.309 152.935 412.101 152.433C413.439 147.849 418.935 146.539 422.242 150.2C422.346 150.315 422.457 150.393 422.57 150.45C421.074 152.014 419.763 153.746 418.711 155.66C417.724 155.095 416.715 154.556 415.68 154.048ZM441.022 174.976C440.888 175.11 440.827 175.272 440.818 175.435C439.765 174.22 438.716 173.001 437.651 171.797C436.779 170.811 435.894 169.843 434.996 168.893C436.699 166.458 439.623 164.983 442.614 165.85C445.117 166.575 445.808 168.762 447.746 170.061C447.818 170.109 447.89 170.138 447.962 170.156C445.384 171.38 443.026 172.97 441.022 174.976ZM458.374 167.242C454.996 167.664 451.7 168.498 448.688 169.828C448.769 169.708 448.828 169.572 448.845 169.429C449.242 166.271 444.772 163.873 442.119 163.569C438.732 163.181 435.614 164.932 433.911 167.757C432.112 165.909 430.245 164.151 428.302 162.488C432.292 157.183 438.499 153.775 445.274 154.694C448.392 155.117 451.314 156.416 453.761 158.388C456.006 160.198 459.775 164.062 458.374 167.242ZM461.19 166.982C462.86 161.009 453.31 154.418 448.671 153.021C440.558 150.579 431.388 154.203 427.258 161.609C425.027 159.772 422.687 158.071 420.205 156.546C426.486 148.743 434.931 143.708 445.117 143.141C450.129 142.862 455.232 143.676 459.819 145.758C462.128 146.807 464.334 148.172 466.217 149.878C468.227 151.7 469.317 153.928 470.816 156.047C468.028 159.075 466.146 162.78 466 166.971C464.402 166.885 462.792 166.893 461.19 166.982ZM467.67 167.093C469.527 158.955 475.608 153.223 483.785 150.835C488.193 149.547 492.81 149.205 497.385 149.283C499.965 149.328 502.673 149.432 504.997 150.688C506.896 151.716 507.964 153.355 509.424 154.799C509.402 154.819 509.378 154.837 509.356 154.857C507.853 156.204 506.522 157.733 505.325 159.362C501.434 154.481 493.308 155.329 488.212 157.485C483.588 159.441 477.089 163.6 478.051 169.296C474.855 168.179 471.314 167.422 467.67 167.093ZM488.523 175.147C485.836 172.957 482.806 171.159 479.547 169.857C478.61 164.119 486.462 160.373 490.902 158.984C496.069 157.367 499.735 158.629 504.052 161.2C503.891 161.447 503.731 161.695 503.575 161.945C503.22 162.517 501.42 166.401 500.147 168.881C497.666 166.161 493.358 164.831 490.227 167.094C487.861 168.805 486.865 172.766 488.523 175.147ZM490.923 175.7C488.925 173.813 489.23 170.129 491.68 168.706C494.261 167.206 496.825 168.785 498.58 170.749C498.517 170.798 498.461 170.855 498.431 170.921C498.245 171.343 498.156 171.557 498.149 172.01C498.149 172.043 498.157 172.071 498.159 172.103C495.383 172.896 492.754 174.182 491.1 176.065C491.098 175.944 491.046 175.816 490.923 175.7ZM514.131 194.813C512.803 192.057 509.913 190.043 506.776 190.08C503.752 190.115 501.241 191.961 499.952 194.492C499.524 191.724 498.695 189.068 497.532 186.576C499.706 184.374 502.597 182.897 505.735 182.709C509.907 182.459 512.988 184.39 516.091 186.933C516.173 187 516.262 187.048 516.354 187.087C515.592 188.991 514.427 192.342 514.131 194.813ZM517.365 185.02C512.118 178.354 502.217 179.331 496.695 184.921C495.32 182.386 493.59 180.044 491.58 177.951C493.421 177.089 495.068 175.746 496.992 174.988C499.779 173.89 502.816 173.375 505.806 173.53C511.686 173.837 516.43 176.666 520.422 180.79C519.286 182.103 518.26 183.516 517.365 185.02ZM522.122 178.979C520.719 177.259 519.01 175.786 517.114 174.593C517.661 172.045 519.538 169.785 522.31 169.601C525.435 169.396 527.081 171.531 528.479 173.955C528.512 174.011 528.559 174.05 528.6 174.096C526.24 175.445 524.056 177.082 522.122 178.979ZM532.639 172.139C531.833 172.461 531.045 172.825 530.27 173.21C529.798 169.521 525.743 166.946 522.161 167.362C518.776 167.755 516.229 170.539 515.691 173.774C513.56 172.64 511.247 171.843 508.891 171.423C508.957 171.367 509.022 171.305 509.076 171.216C512.687 165.323 518.301 159.963 525.65 159.868C528.864 159.826 532.061 160.948 534.598 162.906C537.19 164.905 538.249 167.361 539.221 170.307C536.821 170.735 534.575 171.362 532.639 172.139ZM541.243 170.001C541.639 167.228 539.352 164.03 537.557 162.245C534.867 159.571 531.218 157.946 527.459 157.582C518.934 156.756 511.106 162.954 507.793 170.466C507.658 170.773 507.723 171.062 507.881 171.269C507.372 171.203 506.863 171.148 506.354 171.118C505.01 171.039 503.395 171.117 501.706 171.357C501.7 171.341 501.699 171.325 501.692 171.309C501.673 171.262 501.648 171.216 501.628 171.169C502.028 170.414 502.325 169.548 502.707 168.781C503.96 166.263 505.327 163.79 506.966 161.499C510.685 156.298 515.759 152.554 522.199 151.679C528.204 150.863 534.299 152.495 539.173 156.078C541.198 157.568 543 159.374 544.534 161.37C544.395 161.973 544.911 162.657 545.55 162.773C545.58 162.819 545.613 162.862 545.644 162.908C547.102 165.091 547.919 167.541 549.204 169.789C546.54 169.584 543.829 169.675 541.243 170.001ZM573.209 175.423C570.98 177.163 568.966 179.18 567.268 181.435C566.477 178.902 565.117 176.849 563.37 175.203C564.728 173.56 566.51 171.995 568.698 171.872C571.404 171.72 572.248 173.393 573.268 175.379C573.249 175.393 573.229 175.407 573.209 175.423ZM575.127 174.04C574.832 171.801 571.869 170.073 569.83 169.901C566.651 169.635 564.047 171.812 562.292 174.271C560.524 172.887 558.439 171.859 556.183 171.126C557.528 164.655 564.639 161.626 570.797 162.293C573.463 162.581 576.057 163.464 578.321 164.91C580.413 166.247 581.652 168.769 583.762 169.84C580.7 170.814 577.789 172.242 575.127 174.04ZM584.77 169.533C584.803 169.454 584.826 169.37 584.825 169.272C584.804 166.445 581.329 164.018 579.108 162.681C576.133 160.889 572.64 159.924 569.167 159.942C562.779 159.974 555.482 163.894 554.743 170.705C553.616 170.41 552.46 170.175 551.28 170.011C551.404 169.786 551.464 169.516 551.424 169.225C551.085 166.805 549.967 164.347 548.461 162.067C555.319 155.509 563.909 151.009 573.639 151.214C579 151.327 584.534 152.886 588.652 156.447C592.549 159.819 593.559 163.602 594.74 168.196C591.482 167.78 587.343 168.806 584.77 169.533ZM597.722 169.226C597.525 169.09 597.316 168.967 597.097 168.858C597.577 165.682 596.369 162.311 594.552 159.459C596.018 157.177 597.964 155.084 600.752 154.536C603.906 153.915 605.568 155.621 607.702 157.475L607.703 157.476C605.808 159.341 604.036 161.328 602.417 163.445C600.77 165.596 599.311 167.909 598.073 170.331C598.229 169.962 598.123 169.505 597.722 169.226ZM598.781 179.198C601.023 174.762 604.167 170.812 607.89 167.529C615.849 160.509 626.123 156.653 636.281 154.103C656.096 149.128 677.391 149.187 695.271 160.03C695.715 160.299 696.142 160.277 696.481 160.092C693.361 162.61 690.516 165.426 688.064 168.593C687.974 168.508 687.869 168.428 687.734 168.364C670.935 160.345 651.087 159.05 633.142 163.601C624.111 165.89 615.401 169.702 607.716 174.984C603.706 177.74 599.591 181.053 596.759 185.096C596.743 184.942 596.702 184.797 596.634 184.66C597.194 182.782 597.896 180.949 598.781 179.198ZM679.429 193.852C672.41 184.701 660.903 179.352 649.409 178.021C631.594 175.957 613.51 183.601 598.471 192.874C608.727 183.695 620.314 176.821 634.082 173.946C642.02 172.289 650.261 172.056 658.289 173.177C662.259 173.731 666.178 174.613 670.002 175.814C673.883 177.032 677.472 178.994 681.317 180.231C681.408 180.26 681.493 180.274 681.575 180.281C679.992 184.669 679.22 189.256 679.429 193.852ZM658.616 170.766C650.424 169.638 642.079 169.868 633.967 171.498C619.712 174.363 605.353 181.841 595.64 192.907C595.618 192.613 595.605 192.322 595.589 192.03C598.24 184.62 604.975 179.412 611.549 175.334C618.871 170.79 626.924 167.532 635.315 165.584C652.534 161.586 670.33 163.458 686.474 170.519C686.524 170.541 686.573 170.553 686.623 170.568C685.778 171.789 684.982 173.054 684.254 174.375C683.515 175.717 682.857 177.091 682.276 178.486C682.228 178.433 682.174 178.385 682.113 178.34C675.711 173.773 666.258 171.818 658.616 170.766ZM760.543 178.038C760.433 177.984 760.314 177.937 760.171 177.91C746.48 175.314 732.265 176.325 719.01 180.599C706.329 184.69 693.418 191.912 684.735 202.252C681.947 198.172 699.68 185.569 701.925 184.045C708.249 179.753 715.083 176.233 722.265 173.617C729.268 171.066 736.596 169.32 744.01 168.535C747.774 168.137 751.564 167.971 755.349 168.048C759.126 168.124 762.911 168.886 766.665 168.871C766.854 168.87 767.018 168.828 767.163 168.762C764.71 171.67 762.489 174.774 760.543 178.038ZM767.752 168.077C767.937 167.496 767.706 166.77 766.979 166.548C762.734 165.256 757.689 165.355 753.283 165.372C749.032 165.388 744.79 165.718 740.582 166.319C731.591 167.601 722.824 170.205 714.559 173.964C706.304 177.718 698.615 182.667 691.823 188.678C688.758 191.391 685.28 194.465 683.015 197.904C682.907 198.068 682.811 198.25 682.72 198.439C680.992 180.534 702.082 168.691 716.994 163.523C726.238 160.32 735.945 158.505 745.722 158.157C750.378 157.992 755.048 158.149 759.681 158.641C764.645 159.168 769.616 160.908 774.557 161.155C774.596 161.157 774.633 161.152 774.671 161.15C772.209 163.297 769.89 165.607 767.752 168.077ZM785.419 153.454C781.972 155.433 778.714 157.728 775.672 160.281C775.815 159.785 775.68 159.212 775.152 158.951C770.66 156.723 764.638 156.331 759.681 155.817C754.274 155.257 748.821 155.147 743.395 155.477C732.418 156.146 721.546 158.574 711.369 162.747C702.167 166.521 692.765 171.55 686.545 179.538C684.63 181.997 683.107 184.771 682.106 187.692C683.234 181.562 685.929 175.671 689.662 170.733C696.589 161.566 706.955 155.515 717.449 151.278C739.479 142.383 765.375 138.685 785.686 153.307C785.596 153.357 785.506 153.403 785.419 153.454ZM785.075 142.739C784.745 144.909 784.764 147.148 785.232 149.436C769.521 138.489 748.609 138.961 730.743 143.934C724.938 145.549 718.96 147.569 713.211 150.13C721.259 140.882 731.702 136.066 743.608 133.191C750.369 131.559 757.3 130.354 764.224 129.708C767.981 129.357 771.758 129.2 775.531 129.341C779.091 129.475 782.57 130.271 786.091 130.561C784.909 134.51 784.502 138.648 785.075 142.739ZM797.025 113.968C792.528 117.816 788.956 122.817 786.865 128.292C779.901 125.687 770.752 126.475 763.596 127.184C756.322 127.906 749.033 129.159 741.953 130.987C730.934 133.832 718.617 138.853 711.951 148.638C712.745 144.65 717.193 141.879 720.256 139.556C722.984 137.49 725.803 135.54 728.718 133.749C734.92 129.935 741.547 126.802 748.431 124.432C755.139 122.123 762.102 120.505 769.151 119.68C772.729 119.261 776.334 119.043 779.939 119.026C783.507 119.01 787.195 119.649 790.734 119.384C791.878 119.298 792.191 117.674 791.012 117.33C787.226 116.223 782.775 116.463 778.858 116.521C774.892 116.58 770.935 116.893 767.005 117.426C758.848 118.53 750.838 120.626 743.19 123.672C735.717 126.648 728.593 130.489 722.061 135.189C718.933 137.44 715.799 139.876 713.075 142.608C711.567 144.12 709.767 146.336 710.289 148.456C710.046 148.294 709.799 148.14 709.553 147.982C709.555 147.73 709.573 147.489 709.582 147.241C709.67 147.2 709.762 147.152 709.858 147.096C710.06 146.978 710.185 146.706 710.111 146.476C710.074 146.362 710.038 146.249 710 146.135C709.942 145.956 709.807 145.863 709.66 145.84C711.181 128.213 729.996 120.839 745.342 116.479C754.551 113.863 764.006 112.1 773.541 111.234C777.943 110.834 782.363 110.621 786.783 110.596C791.454 110.57 796.276 111.28 800.926 110.999C799.576 111.918 798.27 112.902 797.025 113.968ZM807.527 98.8015C813.912 99.4073 820.07 100.809 826.356 101.912C822.487 102.391 818.669 103.29 815.369 104.258C810.749 105.613 806.304 107.574 802.242 110.146C802.359 109.673 802.176 109.149 801.559 108.998C796.688 107.805 791.145 108.113 786.151 108.164C780.889 108.219 775.63 108.536 770.399 109.119C760.038 110.273 749.79 112.418 739.86 115.595C733.387 117.667 726.715 120.082 721.003 123.889C722.058 122.799 723.151 121.747 724.285 120.742C732.228 113.707 741.943 108.678 751.936 105.257C763.87 101.171 776.412 98.8559 789.01 98.3203C795.184 98.059 801.374 98.2184 807.527 98.8015Z" fill="#00253F"/>
</svg>
