<svg width="14" height="14" viewBox="0 0 14 14" fill="none" xmlns="http://www.w3.org/2000/svg">
<g clip-path="url(#clip0_37_4676)">
<path d="M8.94419 6.50853L9.65335 7.21769L9.9774 6.89363C10.0669 6.80417 10.1842 6.7594 10.3014 6.7594C10.4187 6.7594 10.536 6.80414 10.6254 6.89363C10.8044 7.0726 10.8044 7.36274 10.6254 7.54168L10.3014 7.86573L13.8658 11.4301C14.0447 11.6091 14.0447 11.8992 13.8658 12.0782L12.5696 13.3743C12.3907 13.5533 12.1005 13.5533 11.9216 13.3743C11.7404 13.1931 8.54278 9.99548 8.35723 9.80993L8.03318 10.134C7.85424 10.3129 7.56407 10.3129 7.38513 10.134C7.20619 9.95501 7.20616 9.66487 7.38513 9.48593L7.70918 9.16188L7.00002 8.45272L6.29083 9.16188L6.61488 9.48593C6.79385 9.66492 6.79385 9.95507 6.61488 10.134C6.43595 10.313 6.14577 10.313 5.96684 10.134L5.64279 9.80998C5.45723 9.99548 2.25965 13.1931 2.07842 13.3743C1.89948 13.5533 1.60931 13.5533 1.43037 13.3743L0.134224 12.0782C-0.0447412 11.8992 -0.0447412 11.6091 0.134224 11.4301L3.69859 7.86576L3.37454 7.54171C3.19558 7.36274 3.19558 7.0726 3.37454 6.89366C3.55348 6.7147 3.84365 6.71467 4.02259 6.89366L4.34664 7.21771L5.05583 6.50853L0.134224 1.58695C-0.0820107 1.37074 -0.0293467 1.00726 0.238376 0.860866C0.685173 0.616494 1.17525 0.491369 1.67597 0.491369C2.44734 0.491369 3.21707 0.781378 3.80865 1.37296L7.00002 4.56433L10.1914 1.37296C10.7835 0.780831 11.5535 0.491369 12.3241 0.491369C12.8248 0.491369 13.3149 0.616522 13.7617 0.860866C14.0299 1.00754 14.0816 1.37115 13.8658 1.58695L8.94419 6.50853ZM12.2456 12.4022L12.8937 11.7542L12.2456 11.1061L11.5976 11.7542L12.2456 12.4022ZM10.9495 11.1061L11.5976 10.458L10.9495 9.80993L10.3014 10.458L10.9495 11.1061ZM9.65338 9.80995L10.3014 9.16191L9.65338 8.51386L9.00533 9.16191L9.65338 9.80995ZM1.10632 11.7541L1.75437 12.4022L2.40242 11.7541L1.75437 11.1061L1.10632 11.7541ZM3.05052 9.80995L2.40242 10.4581L3.05046 11.1061L3.69856 10.458L3.05052 9.80995ZM4.34664 8.51383L3.69859 9.16188L4.34664 9.80993L4.99468 9.16188L4.34664 8.51383ZM4.99474 7.86579L5.64279 8.51383L6.35197 7.80467L5.7039 7.1566L4.99474 7.86579ZM3.16055 2.02103C2.66502 1.52548 1.95674 1.32194 1.29015 1.44679L8.35723 8.51383L9.0053 7.86579L3.16055 2.02103ZM10.8394 2.02101L7.64807 5.21241L8.29617 5.86051L12.7099 1.44676C12.0432 1.32183 11.335 1.52551 10.8394 2.02101Z" fill="#B9B9B9"/>
</g>
<defs>
<clipPath id="clip0_37_4676">
<rect width="14" height="14" fill="white" transform="matrix(1 0 0 -1 0 14)"/>
</clipPath>
</defs>
</svg>
