<svg width="16" height="15" viewBox="0 0 16 15" fill="none" xmlns="http://www.w3.org/2000/svg">
<path d="M8.25005 13.9033C11.7469 13.9033 14.6534 10.9968 14.6534 7.49995C14.6534 3.99691 11.7405 1.09656 8.24362 1.09656C4.74085 1.09656 1.84692 3.99691 1.84692 7.49995C1.84692 10.9968 4.74701 13.9033 8.25005 13.9033ZM5.97112 9.83566V7.3245C5.97112 6.91629 6.12808 6.70924 6.46719 6.65888V5.89924C6.46719 4.67513 7.20782 3.88415 8.25005 3.88415C9.29201 3.88415 10.0329 4.67513 10.0329 5.89924V6.65272C10.3656 6.70281 10.5225 6.90986 10.5225 7.3245V9.83566C10.5225 10.3066 10.3155 10.5198 9.88237 10.5198H6.61773C6.17844 10.5198 5.97112 10.3066 5.97112 9.83566ZM7.12023 6.64629L9.38014 6.64013V5.8304C9.38014 5.03941 8.928 4.51816 8.24978 4.51816C7.5721 4.51816 7.11996 5.03915 7.11996 5.8304L7.12023 6.64629Z" fill="#DF0000"/>
</svg>
