<svg width="338" height="321" viewBox="0 0 338 321" fill="none" xmlns="http://www.w3.org/2000/svg">
<mask id="mask0_50_5938" style="mask-type:alpha" maskUnits="userSpaceOnUse" x="0" y="0" width="338" height="321">
<path d="M103.215 119.731C136.869 111.209 234.998 87.1131 302.914 80.7328C330.225 78.1706 338.709 87.9295 337.12 88.1053C335.531 88.2811 258.352 91.5592 105.457 133.232L103.215 119.731Z" fill="#58606E"/>
<path d="M303.046 78.6919C235.136 85.0659 136.687 110.091 103.033 118.644L104.202 125.722C106.029 124.905 105.91 123.611 108.246 122.946C110.839 122.199 111.273 123.706 113.86 122.946C116.447 122.186 116.02 120.685 118.62 119.975C121.22 119.266 121.641 120.773 124.24 120.063C126.84 119.354 126.426 117.834 129.026 117.118C131.626 116.402 132.034 117.953 134.64 117.275C137.246 116.597 136.85 115.077 139.463 114.399C142.075 113.721 142.458 115.24 145.064 114.556C147.67 113.871 147.294 112.389 149.912 111.743C152.531 111.096 152.908 112.622 155.527 111.981C158.145 111.341 157.768 109.815 160.387 109.174C163.006 108.534 163.37 110.041 165.989 109.432C168.607 108.822 168.256 107.303 170.887 106.706C173.518 106.11 173.87 107.636 176.495 107.033C179.12 106.43 178.774 104.904 181.399 104.307C184.024 103.711 184.37 105.23 186.995 104.653C189.62 104.075 189.299 102.568 191.943 102.015C194.587 101.463 194.907 102.995 197.539 102.442C200.17 101.89 199.856 100.357 202.5 99.8047C205.144 99.252 205.451 100.791 208.082 100.238C210.714 99.6853 210.419 98.1656 213.062 97.6507C215.706 97.1357 216.014 98.6743 218.658 98.1656C221.301 97.657 221.006 96.1121 223.65 95.5972C226.294 95.0822 226.589 96.6271 229.233 96.1184C231.877 95.6097 231.588 94.0523 234.257 93.5751C236.926 93.0978 237.196 94.6426 239.846 94.1654C242.496 93.6881 242.213 92.137 244.87 91.6534C247.526 91.1699 247.796 92.721 250.446 92.2437C253.096 91.7665 252.833 90.2405 255.47 89.7883C258.108 89.3362 258.39 90.8999 261.047 90.454C263.703 90.0081 263.452 88.4633 266.114 88.0237C268.777 87.5841 269.022 89.1541 271.685 88.7396C274.347 88.3251 274.109 86.7928 276.777 86.3909C279.446 85.989 279.666 87.5276 282.335 87.1571C285.004 86.7866 284.791 85.2731 287.466 84.8901C290.141 84.507 290.336 86.0769 293.005 85.763C295.674 85.449 295.517 83.879 298.185 83.609C300.854 83.3389 301.03 84.8649 303.693 84.664C304.648 84.6012 305.562 84.2534 306.318 83.6655C307.095 83.0961 308.03 82.7803 308.993 82.7612C309.954 82.7007 310.909 82.9613 311.706 83.5022C312.495 84.0364 313.428 84.3188 314.381 84.3123C317.056 84.394 317.119 82.8114 319.838 82.981C322.557 83.1505 322.407 84.7519 325.044 85.0659C325.981 85.2137 326.94 85.0894 327.807 84.7079C328.699 84.3379 329.684 84.2564 330.625 84.4749C331.565 84.6934 332.414 85.2009 333.051 85.9262C333.323 86.2258 333.612 86.5089 333.918 86.774C334.338 87.0998 334.806 87.3583 335.306 87.5401C335.785 87.7603 336.299 87.8962 336.825 87.9421H337.265C337.698 86.6861 328.856 76.2678 303.046 78.6919Z" fill="#B6BDE0"/>
<path d="M303.046 78.6918L297.206 79.4265L290.499 80.2492C287.905 80.5318 284.998 80.9839 281.82 81.4423L271.565 82.9369L260.155 84.8209L254.126 85.7943L247.965 86.8995L235.406 89.1791L222.846 91.5654C218.708 92.3316 214.651 93.1856 210.713 93.9769L199.372 96.2627L189.236 98.379L168.287 102.775L174.008 101.387L180.583 99.8234L184.627 98.8626L189.123 97.8515L199.24 95.5845C202.826 94.7744 206.625 93.9894 210.544 93.1668C214.462 92.3441 218.532 91.4838 222.67 90.6988L235.23 88.2497L247.821 86.0266L253.994 84.9528L260.035 83.9982C264.004 83.3703 267.835 82.7799 271.483 82.2587L281.77 80.9211L286.341 80.3308C287.792 80.1361 289.174 80.0357 290.474 79.8975L297.193 79.2695L303.046 78.6918Z" fill="white"/>
<g style="mix-blend-mode:overlay" opacity="0.2">
<path d="M305.137 91.2829C298.794 92.0804 291.503 93.0789 283.264 94.3223L290.938 79.9855C295.064 79.4956 299.102 79.056 303.045 78.6918C306.04 78.4015 309.049 78.2862 312.057 78.3464L305.137 91.2829ZM141.861 123.662C149.891 121.635 157.674 119.718 165.209 117.909L174.001 101.462C165.944 103.29 158.195 105.092 150.885 106.832L141.861 123.662ZM220.07 105.676C224.604 104.747 229 103.866 233.258 103.032L241.541 87.5401C237.183 88.3314 232.814 89.1477 228.435 89.9892L220.07 105.676Z" fill="white"/>
</g>
<path d="M99.6106 136.002C99.6106 136.002 96.0436 159.124 96.0876 174.61C96.1315 190.096 107.328 248.888 107.328 248.888L103.454 260.958H138.728V136.617L99.6106 136.002Z" fill="#3C90CF"/>
<path d="M109.005 137.352L80.3756 208.998C80.3756 208.998 63.8032 228.566 63.4766 229.483C63.1501 230.4 58.2832 238.828 58.7416 240.159C59.2 241.49 65.9006 253.924 78.0395 259.89C82.9629 263.03 89.45 261.981 92.2759 260.725C95.1018 259.469 112.579 247.958 113.207 247.224C113.835 246.489 114.463 241.572 114.463 241.572L131.104 221.998V137.352H109.005Z" fill="#31363D"/>
<path d="M129.515 215.222L131.085 214.499V144.95L88.8221 187.86L80.3758 208.998C80.3758 208.998 77.0098 212.973 73.2795 217.426C73.2795 217.426 95.9183 222.757 98.6438 224.12C101.369 225.483 109.527 238.771 109.527 238.771L110.048 225.477L114.13 233.226L129.515 215.222Z" fill="#25272B"/>
<path d="M229.371 144.68C229.371 144.68 274.366 265.573 274.372 265.938C274.379 266.302 270.429 280.953 270.429 280.953V320.359H209.269V144.68H229.371Z" fill="#31363D"/>
<path d="M229.371 144.68H209.275V320.359H230.52V232.912L236.467 163.765L229.371 144.68Z" fill="#25272B"/>
<path d="M295.341 185.43L284.633 178.761C284.633 178.761 256.311 228.372 227.914 262.364L239.262 271.458C239.262 271.458 274.579 224.221 295.341 185.43Z" fill="#28854D"/>
<path d="M292.91 192.2C293.331 191.616 297.438 184.218 297.771 183.571C297.884 183.199 297.91 182.806 297.846 182.423C297.781 182.039 297.629 181.676 297.4 181.361C297.067 181.022 287.692 175.709 287.013 175.439C286.335 175.169 285.205 175.062 284.696 175.822C284.187 176.582 279.672 184.419 279.597 184.67C279.521 184.922 280.093 185.725 280.476 185.87C280.602 185.92 281.902 186.68 283.566 187.672C283.543 187.086 283.678 186.505 283.959 185.989C284.239 185.474 284.654 185.044 285.158 184.745C285.663 184.446 286.239 184.289 286.826 184.291C287.412 184.293 287.987 184.453 288.49 184.755C288.993 185.057 289.405 185.489 289.682 186.006C289.96 186.523 290.092 187.105 290.066 187.691C290.039 188.277 289.855 188.845 289.532 189.335C289.209 189.824 288.76 190.218 288.232 190.473L291.491 192.432C291.491 192.432 292.489 192.784 292.91 192.2Z" fill="#FFAA00"/>
<path d="M233.71 255.231C233.71 255.231 244.668 263.614 244.876 263.796C245.067 263.972 245.194 264.206 245.237 264.462C245.28 264.718 245.237 264.981 245.114 265.209C244.775 265.906 241.943 270.673 241.943 270.673L228.529 259.369C228.529 259.369 231.92 255.859 232.41 255.444C232.569 255.263 232.785 255.143 233.022 255.104C233.259 255.065 233.502 255.11 233.71 255.231Z" fill="#FF8C00"/>
<path d="M239.94 274.616C239.94 274.616 236.31 277.8 236.003 278.008C235.904 278.082 235.784 278.123 235.66 278.123C235.537 278.123 235.416 278.082 235.318 278.008C235.149 277.92 223.845 269.561 223.537 269.323C223.229 269.084 223.179 268.506 223.242 267.91C223.305 267.313 225.471 262.886 225.471 262.886L240.568 273.769L239.94 274.616Z" fill="#FF8C00"/>
<path d="M216.749 257.453C216.55 257.306 216.382 257.121 216.255 256.908C216.128 256.696 216.043 256.46 216.007 256.215C215.971 255.97 215.984 255.721 216.044 255.481C216.104 255.24 216.212 255.015 216.359 254.816L218.061 252.517C218.358 252.117 218.802 251.85 219.295 251.776C219.788 251.702 220.291 251.826 220.692 252.122L250.792 274.422C250.991 274.569 251.159 274.753 251.287 274.966C251.415 275.178 251.5 275.413 251.537 275.658C251.573 275.903 251.561 276.153 251.501 276.393C251.442 276.634 251.335 276.86 251.187 277.059L249.485 279.357C249.338 279.556 249.153 279.724 248.94 279.851C248.728 279.979 248.492 280.063 248.247 280.099C248.002 280.135 247.753 280.123 247.513 280.062C247.272 280.002 247.047 279.895 246.848 279.747L216.749 257.453Z" fill="#FFAA00"/>
<path d="M286.241 188.758L280.413 189.669L282.643 195.132L288.47 194.216L286.241 188.758Z" fill="#E0E5FF"/>
<path d="M281.305 197.362L275.465 198.178L277.6 203.667L283.434 202.851L281.305 197.362Z" fill="#E0E5FF"/>
<path d="M276.275 205.683L270.429 206.392L272.47 211.918L278.31 211.209L276.275 205.683Z" fill="#E0E5FF"/>
<path d="M271.157 213.771L265.304 214.387L267.244 219.944L273.097 219.329L271.157 213.771Z" fill="#E0E5FF"/>
<path d="M265.951 221.69L260.092 222.199L261.932 227.788L267.797 227.279L265.951 221.69Z" fill="#E0E5FF"/>
<path d="M260.663 229.483L254.798 229.891L256.544 235.512L262.415 235.104L260.663 229.483Z" fill="#E0E5FF"/>
<path d="M255.3 237.207L249.422 237.515L251.074 243.167L256.952 242.859L255.3 237.207Z" fill="#E0E5FF"/>
<path d="M249.862 244.919L243.971 245.126L245.523 250.809L251.413 250.602L249.862 244.919Z" fill="#E0E5FF"/>
<path d="M244.348 252.668L238.452 252.769L239.909 258.483L245.812 258.383L244.348 252.668Z" fill="#E0E5FF"/>
<path d="M143.959 101.651C143.959 101.651 149.768 123.8 149.925 124.346C150.082 124.893 116.566 135.964 116.566 135.964C116.566 135.964 127.788 162.735 133.245 172.626C138.703 182.516 150.766 181.807 162.698 181.807H191.428C197.551 181.807 205.715 173.882 208.145 166.032C210.575 158.182 215.392 132.918 215.392 132.918L183.698 121.458L186.272 101.664L143.959 101.651Z" fill="#FFCBAB"/>
<path d="M171.904 127.097C172.859 126.343 179.804 118.933 184.709 113.683L186.272 101.651H143.959L145.585 107.843C154.773 119.147 162.874 125.74 164.952 127.097C167.031 128.453 170.416 128.271 171.904 127.097Z" fill="#FF9580"/>
<path d="M143.281 133.71L117.967 147.362L133.214 226.369L201.865 213.118L143.281 133.71Z" fill="#31363D"/>
<path d="M149.931 143.205L186.806 216.026L201.865 213.118L149.931 143.205Z" fill="#25272B"/>
<path d="M147.67 119.335L214.475 210.688L199.523 213.57L143.281 133.71L147.67 119.335Z" fill="#31363D"/>
<path d="M169.662 171.169L175.722 157.692L167.288 146.162L161.178 159.124L169.662 171.169Z" fill="#25272B"/>
<path d="M192.716 132.617L220.158 141.226V221.69H150.239L192.716 132.617Z" fill="#31363D"/>
<path d="M187.987 143.205L165.58 221.69H150.239L187.987 143.205Z" fill="#25272B"/>
<path d="M185.682 119.335L137.403 221.69H152.631L192.716 132.617L185.682 119.335Z" fill="#31363D"/>
<path d="M135.249 127.329L99.4536 135.757C99.4536 135.757 118.739 171.998 128.159 212.188C121.458 239.606 116.566 248.888 116.566 248.888L103.454 260.958C103.454 260.958 106.387 266.189 115.178 269.749H164.952L170.648 224.748L157.322 197.531L135.249 127.329Z" fill="#8FCFFF"/>
<path d="M164.952 269.749L170.139 228.786L166.227 223.423C166.227 223.423 155.683 213.231 152.336 207.793L136.95 216.999C136.95 216.999 134.646 236.573 135.067 246.1H129.936L116.566 248.888L103.454 260.958C103.454 260.958 106.387 266.189 115.178 269.749H164.952Z" fill="#75BEF5"/>
<g style="mix-blend-mode:multiply">
<path d="M119.888 269.75H164.952L170.139 228.786L165.982 224.748C152.216 241.303 136.768 256.384 119.888 269.75Z" fill="#AEC1CF"/>
</g>
<path d="M128.159 212.189L131.085 183.458C125.641 163.024 116.165 141.572 112.095 132.786L99.479 135.757C99.479 135.757 118.739 171.998 128.159 212.189Z" fill="#5DACE8"/>
<g style="mix-blend-mode:multiply">
<path d="M128.159 212.189C128.159 212.189 132.969 177.022 131.87 160.694L124.567 198.543L128.159 212.189Z" fill="#AEC1CF"/>
</g>
<path d="M147.777 116.189C147.476 116.222 147.185 116.315 146.921 116.463C146.657 116.611 146.425 116.81 146.239 117.049C145.454 117.909 135.249 127.329 135.249 127.329C135.249 127.329 154.635 200.96 155.263 202.926C155.891 204.891 182.58 253.164 182.58 253.164H198.123C198.123 253.164 168.764 199.629 168.45 198.216C168.136 196.803 147.777 116.189 147.777 116.189Z" fill="#5DACE8"/>
<path d="M198.122 253.164C198.122 253.164 185.713 230.526 176.94 214.305C174.466 210.813 168.877 203.001 168.45 202.926C167.904 202.844 155.262 202.926 155.262 202.926C155.89 204.885 182.58 253.164 182.58 253.164H198.122Z" fill="#3C90CF"/>
<path d="M195.14 123.222L238.684 139.55C238.684 139.55 229.264 178.893 225.075 191.773L230.52 232.912C230.52 232.912 240.775 250.91 240.775 251.959C240.775 253.007 233.453 264.518 225.917 269.749H148.047L187.817 213.444L195.14 123.222Z" fill="#8FCFFF"/>
<path d="M195.133 123.304L189.349 194.58L191.057 215.222C191.057 215.222 195.139 177.022 196.081 166.189C196.081 141.855 195.334 123.291 195.334 123.291L195.133 123.304Z" fill="#E8F5FF"/>
<path d="M240.775 251.959C240.775 251.959 216.334 238.419 215.392 237.936C214.45 237.452 183.522 256.461 183.522 256.461C183.522 256.461 191.058 245.679 194.411 240.605C193.099 240.605 175.829 243.117 175.829 243.117C175.829 243.117 165.317 251.971 155.558 259.111L148.022 269.749H225.892C233.453 264.518 240.775 253.007 240.775 251.959Z" fill="#75BEF5"/>
<path d="M184.621 114.33L183.698 121.445L176.514 206.744C174.209 211.347 143.544 260.644 129.936 269.75H148.041C148.041 269.75 176.928 241.597 191.058 215.222C191.058 215.222 196.395 161.322 195.14 123.222L184.69 113.802L184.621 114.33Z" fill="#5DACE8"/>
<path d="M176.853 210.223C176.08 211.692 155.344 248.53 132.699 269.749H148.041C148.041 269.749 176.928 241.597 191.058 215.222C191.058 215.222 181.72 209.909 180.539 209.363C179.358 208.816 177.638 208.735 176.853 210.223Z" fill="#3C90CF"/>
<path d="M228.573 135.757L221.665 169.668L225.069 191.798C229.264 178.893 238.684 139.55 238.684 139.55L228.573 135.757Z" fill="#5DACE8"/>
<g style="mix-blend-mode:multiply">
<path d="M217.515 143.814L225.05 191.773C225.05 191.773 227.858 182.252 228.73 178.981C228.756 178.981 225.597 165.404 217.515 143.814Z" fill="#AEC1CF"/>
</g>
<g style="mix-blend-mode:multiply">
<path d="M159.784 269.75C159.784 269.75 190.555 241.98 211.574 228.026C199.849 237.923 194.304 243.481 194.304 243.481C188.684 252.04 174.63 269.75 174.63 269.75H159.784Z" fill="#AEC1CF"/>
</g>
<path d="M215.392 237.936L240.775 251.959C240.775 251.959 228.579 242.878 215.392 237.936Z" fill="#E8F5FF"/>
<path d="M195.353 123.291L238.684 139.55C238.684 139.55 211.467 132.824 195.353 123.291Z" fill="#E8F5FF"/>
<path d="M225.911 269.749L242.132 285.794V289.587L252.443 320.359H99.479L103.454 304.816L102.179 298.379L115.179 269.749H225.911Z" fill="#3C90CF"/>
<path d="M163.64 267.451L112.912 268.707C112.912 268.707 111.518 269.925 111.204 270.139C110.89 270.352 101.413 286.887 101.627 287.829C101.84 288.771 105.288 291.283 105.288 291.283C105.288 291.283 147.834 287.094 169.713 282.906C203.624 283.013 238.037 281.706 238.037 281.706C238.037 281.706 239.419 279.873 239.105 279.037C238.791 278.202 233.993 265.222 233.773 264.594C233.463 264.05 233.034 263.584 232.517 263.231L183.007 264.487L163.64 267.451Z" fill="#FFAA00"/>
<path d="M159.784 266.427C159.784 266.427 135.537 260.933 134.294 260.7C133.051 260.468 131.782 261.799 131.085 263.564C130.388 265.328 129.829 268.707 130.382 270.277C130.934 271.847 132.234 284.808 132.699 286.523C132.916 287.451 133.438 288.28 134.181 288.878C134.924 289.475 135.846 289.807 136.8 289.82C138.897 289.757 168.764 281.738 168.764 281.738L163.194 267.683L159.784 266.427Z" fill="#FF7B00"/>
<path d="M203.642 282.655C214.362 282.46 223.618 282.209 229.816 282.027L224.497 263.476L209.966 263.846L203.642 282.655Z" fill="#FF7B00"/>
<path d="M162.252 269.021C151.89 268.154 138.897 269.303 136.8 269.749C134.702 270.195 133.911 272.318 134.464 274.434C135.016 276.55 139.331 292.018 140.505 294.297C141.121 295.388 142.127 296.205 143.322 296.584C144.516 296.963 145.81 296.875 146.942 296.338C149.221 295.239 167.904 284.877 167.904 284.877C167.904 284.877 168.607 286.604 168.846 286.68C169.084 286.755 190.273 287.779 191.058 287.546C191.843 287.314 192.785 285.11 192.709 284.563L193.883 284.639L194.411 283.54C194.411 283.54 211.153 284.168 218.77 282.755C220.583 277.488 221.121 271.867 220.34 266.352C219.474 261.246 214.764 249.315 213.747 247.864C212.729 246.413 209.979 246.439 208.723 247.236C207.467 248.034 192 261.315 192 261.315C192 261.315 190.04 260.373 189.412 260.606C188.784 260.838 183.603 263.984 183.603 263.984C183.603 263.984 182.228 261.636 181.324 261.969C180.42 262.301 177.556 263.225 177.556 263.225C177.556 263.225 163.15 264.43 161.856 264.663C160.563 264.895 159.759 266.39 159.759 266.39C159.759 266.39 161.228 266.823 162.252 269.021Z" fill="#FFAA00"/>
<path d="M168.846 286.68C169.078 286.755 189.519 287.741 190.989 287.553C185.695 286.228 172.564 282.799 171.747 281.11C170.931 279.42 165.901 269.059 163.678 264.493C162.767 264.587 162.108 264.657 161.882 264.701C160.626 264.939 159.784 266.427 159.784 266.427C159.784 266.427 161.228 266.823 162.252 269.021L161.844 268.99L163.728 273.963L141.83 271.753L151.953 274.265L158.861 277.273L164.513 276.544L165.568 279.37L156.776 281.8C155.909 282.039 146.647 289.418 146.647 289.418L166.353 280.94L167.923 284.865C167.923 284.865 168.607 286.605 168.846 286.68Z" fill="#FF7B00"/>
<path d="M183.604 263.997C183.604 263.997 188.86 273.963 189.883 276.243C190.907 278.522 192.709 284.564 192.709 284.564L193.884 284.639C193.884 284.639 192.552 274.748 191.924 272.393C191.296 270.038 186.976 261.981 186.976 261.981L183.604 263.997Z" fill="#FF7B00"/>
<path d="M192 261.328C192 261.328 195.522 268.782 195.334 270.038C195.146 271.294 194.411 283.54 194.411 283.54H198.122C198.122 283.54 200.873 270.666 201.03 268.55C201.187 266.434 197.049 257.008 197.049 257.008L192 261.328Z" fill="#FF7B00"/>
<path d="M181.305 27.5616C179.139 17.4322 174.479 1.95242 159.062 1.56935C143.645 1.18628 133.704 7.84918 122.086 14.4744C110.469 21.0996 105.966 23.9381 100.528 25.5332C95.0894 27.1283 77.6063 28.7987 73.7317 27.863C75.8228 33.1004 82.5234 38.3315 90.48 37.7035C76.1368 50.4767 62.114 55.601 57.0901 55.8145C57.0901 55.8145 60.1233 58.8037 63.8912 58.7723C57.4041 62.4084 44.7377 63.0363 38.9854 62.3016C49.8683 71.2001 58.1388 74.5912 63.2632 74.8299C68.3875 75.0685 83.7794 73.1908 83.7794 73.1908C83.7794 73.1908 69.3358 84.8587 63.1627 86.2968C66.3803 87.594 69.8493 88.1479 73.3109 87.917C67.6591 92.9409 59.916 97.0479 59.916 97.0479C59.916 97.0479 75.0944 98.1469 86.9193 93.28C98.7442 88.4131 104.817 82.4222 104.817 82.4222L97.3878 95.7982C97.3878 95.7982 111.831 90.6739 118.632 83.6593C118.632 83.6593 117.584 92.7651 117.898 97.1609C122.922 90.4604 139.877 71.5204 139.877 71.5204C139.877 71.5204 139.249 81.6686 139.877 87.22C149.793 71.5204 161.229 56.8633 166.749 51.7389C172.268 46.6146 181.305 27.5616 181.305 27.5616Z" fill="#25272B"/>
<path d="M89.2238 152.423C89.2238 152.423 91.1392 153.29 91.3464 154.22C91.5537 155.149 100.59 220.666 100.59 220.666C92.6778 224.328 78.0206 227.989 63.7905 223.593C64.519 192.407 66.8237 154.829 66.8237 154.829C66.8237 154.829 67.8724 153.472 68.9149 153.472C69.9573 153.472 89.2238 152.423 89.2238 152.423Z" fill="#B6BDE0"/>
<path d="M98.273 203.937C97.0673 204.734 95.8678 205.507 94.6809 206.229C86.3225 206.474 78.1712 204.408 71.7407 202.065C82.1275 200.809 91.2082 195.848 96.6465 192.206C96.5774 191.741 96.5146 191.283 96.4518 190.824C90.8 194.699 80.6015 200.401 69.0718 201.042C67.4139 200.376 65.9319 199.71 64.5942 199.095C64.5942 199.541 64.5628 199.999 64.544 200.451C71.006 203.441 81.4995 207.322 92.5583 207.497C83.6438 212.769 73.9827 216.66 63.9035 219.04C63.9035 219.473 63.9035 219.9 63.8721 220.333C65.8816 219.894 68.3684 219.26 71.2509 218.355C71.4393 218.355 87.7354 217.325 99.8429 215.284C99.7927 214.889 99.7362 214.474 99.6734 214.028C91.6101 215.385 81.644 216.289 75.8854 216.741C83.8175 213.789 91.3908 209.951 98.4614 205.299L98.273 203.937Z" fill="#8B95BD"/>
<path d="M95.554 184.356C95.4975 183.942 95.441 183.521 95.3782 183.1C80.8215 185.487 70.1458 185.286 65.235 184.984L65.1785 186.24C66.7421 186.341 68.8647 186.429 71.4583 186.429C79.5328 186.386 87.5908 185.693 95.554 184.356Z" fill="#8B95BD"/>
<path d="M66.2522 164.82C66.2522 165.228 66.2019 165.649 66.1831 166.076C69.323 166.302 73.2354 166.49 77.694 166.49C82.7904 166.493 87.8836 166.237 92.954 165.724C92.8996 165.305 92.8431 164.887 92.7845 164.468C83.9669 165.348 75.09 165.465 66.2522 164.82Z" fill="#8B95BD"/>
<path d="M65.6304 176.551C65.6304 176.965 65.5865 177.386 65.5676 177.806C76.1366 177.178 86.8123 173.36 93.6196 170.447C93.5568 170.013 93.494 169.58 93.4375 169.191C86.7683 172.042 76.1429 175.885 65.6304 176.551Z" fill="#8B95BD"/>
<g style="mix-blend-mode:multiply" opacity="0.5">
<path d="M91.3149 154.22C91.1077 153.29 89.1923 152.423 89.1923 152.423L84.7085 152.668L72.3687 159.438C72.3687 159.438 81.7884 167.313 81.8575 173.423C81.9203 177.618 82.7555 207.215 83.2704 225.301C89.2537 224.689 95.1008 223.124 100.59 220.666C100.59 220.666 91.5221 155.143 91.3149 154.22Z" fill="#AEC1CF"/>
</g>
<path d="M66.158 155.626C65.7657 156.352 65.5123 157.144 65.4107 157.962C65.304 159.174 66.1141 160.826 66.472 160.889C66.83 160.951 71.0123 162.364 79.8543 161.479C88.6963 160.593 91.786 157.447 91.786 157.447C91.786 157.447 92.5145 155.042 92.2005 154.1C91.8579 153.339 91.3791 152.648 90.7875 152.059L66.158 155.626Z" fill="#8B95BD"/>
<path d="M63.7907 223.593C63.7907 223.593 62.0889 225.219 62.0889 226.004C62.0889 226.789 62.6541 229.816 63.1564 230.105C63.6588 230.394 70.328 232.517 82.6239 231.575C94.9198 230.633 102.481 226.369 102.481 226.369C102.481 226.369 103.033 223.26 102.638 222.707C101.991 221.982 101.297 221.3 100.559 220.667C100.559 220.667 81.8955 227.706 63.7907 223.593Z" fill="#8B95BD"/>
<path d="M4.20093 148.9L8.08186 160.889C8.08186 160.889 61.7179 141.27 105.363 133.603L102.562 119.335C102.562 119.335 45.0889 132.661 4.20093 148.9Z" fill="#28854D"/>
<path d="M10.4182 145.302C9.72745 145.472 1.81487 148.442 1.14293 148.756C0.816174 148.967 0.542865 149.251 0.34453 149.585C0.146196 149.92 0.0282545 150.296 0 150.684C0 151.161 3.7679 161.284 4.11329 161.906C4.45868 162.528 5.25622 163.363 6.1354 163.112C7.01457 162.86 15.5112 159.777 15.731 159.639C15.8571 159.415 15.9321 159.166 15.9506 158.91C15.969 158.654 15.9305 158.396 15.8377 158.157C15.7687 158.038 15.2725 156.612 14.6446 154.785C14.2843 155.245 13.8065 155.599 13.2615 155.811C12.7166 156.022 12.1246 156.082 11.5483 155.985C10.9719 155.888 10.4324 155.637 9.98678 155.259C9.54116 154.881 9.20591 154.389 9.01642 153.836C8.82694 153.283 8.79024 152.689 8.91021 152.117C9.03018 151.545 9.30236 151.016 9.69802 150.586C10.0937 150.156 10.5982 149.84 11.1582 149.673C11.7183 149.506 12.3131 149.493 12.8799 149.635L11.6616 146.037C11.6616 146.037 11.1216 145.126 10.4182 145.302Z" fill="#FFAA00"/>
<path d="M96.3138 135.33C96.3138 135.33 93.356 121.859 93.3121 121.577C93.274 121.316 93.3252 121.05 93.4574 120.822C93.5897 120.594 93.7952 120.417 94.0405 120.321C94.7502 120.013 99.9875 118.192 99.9875 118.192L102.952 135.48C102.952 135.48 98.091 135.97 97.4505 135.976C96.8099 135.983 96.4018 135.706 96.3138 135.33Z" fill="#FF8C00"/>
<path d="M104.076 116.509C104.076 116.509 108.905 116.415 109.275 116.459C109.646 116.503 109.709 116.748 109.784 116.923C109.859 117.099 113.1 130.739 113.181 131.154C113.263 131.568 112.93 132.014 112.497 132.409C112.064 132.805 107.548 134.802 107.548 134.802L103.04 116.735L104.076 116.509Z" fill="#FF8C00"/>
<path d="M110.707 144.574C110.764 144.814 110.773 145.064 110.733 145.308C110.694 145.553 110.607 145.787 110.477 145.997C110.347 146.208 110.176 146.391 109.976 146.535C109.775 146.68 109.548 146.784 109.307 146.841L106.525 147.5C106.284 147.557 106.034 147.566 105.79 147.526C105.546 147.487 105.312 147.4 105.101 147.269C104.891 147.139 104.708 146.969 104.563 146.768C104.418 146.568 104.315 146.34 104.258 146.1L95.6419 109.645C95.5849 109.404 95.576 109.155 95.6155 108.911C95.6551 108.666 95.7424 108.432 95.8724 108.222C96.0025 108.011 96.1727 107.828 96.3735 107.684C96.5742 107.539 96.8014 107.435 97.0423 107.378L99.8242 106.719C100.065 106.661 100.316 106.651 100.561 106.69C100.806 106.73 101.041 106.817 101.252 106.947C101.463 107.077 101.646 107.247 101.792 107.449C101.937 107.65 102.041 107.878 102.098 108.119L110.707 144.574Z" fill="#FFAA00"/>
<path d="M13.2944 152.235L18.3371 155.293L20.1583 149.685L15.1156 146.621L13.2944 152.235Z" fill="#E0E5FF"/>
<path d="M22.6201 148.844L27.6063 151.99L29.5154 146.414L24.5292 143.274L22.6201 148.844Z" fill="#E0E5FF"/>
<path d="M31.8325 145.729L36.7559 148.957L38.7654 143.418L33.8358 140.196L31.8325 145.729Z" fill="#E0E5FF"/>
<path d="M40.9634 142.853L45.8303 146.156L47.9277 140.661L43.0608 137.352L40.9634 142.853Z" fill="#E0E5FF"/>
<path d="M50.0437 140.159L54.8541 143.55L57.0457 138.093L52.2416 134.702L50.0437 140.159Z" fill="#E0E5FF"/>
<path d="M59.1123 137.616L63.8599 141.088L66.152 135.669L61.4044 132.19L59.1123 137.616Z" fill="#E0E5FF"/>
<path d="M68.1929 135.173L72.8839 138.727L75.2702 133.345L70.5792 129.791L68.1929 135.173Z" fill="#E0E5FF"/>
<path d="M77.3237 132.786L81.9582 136.435L84.4325 131.084L79.8043 127.442L77.3237 132.786Z" fill="#E0E5FF"/>
<path d="M86.5359 130.425L91.1076 134.149L93.6823 128.843L89.1043 125.119L86.5359 130.425Z" fill="#E0E5FF"/>
<path d="M73.612 157.962C69.4485 157.705 65.1845 155.871 64.1923 153.391C63.2001 150.91 62.5784 144.442 62.5784 144.442L88.7213 136.002L90.8062 142.464L73.612 157.962Z" fill="#574A44"/>
<path d="M64.0418 126.588C64.0418 126.588 62.4844 125.558 61.5738 125.728C60.6633 125.897 57.5861 128.409 56.8388 129.075C56.0915 129.741 56.0601 132.516 56.349 133.395C56.6379 134.275 57.7243 139.104 58.233 139.675C58.7416 140.247 62.9805 144.184 63.7529 145.082C64.5254 145.98 65.3731 146.382 66.7296 145.283C68.086 144.184 69.1662 143.091 69.5618 142.099C70.0235 140.903 70.0235 139.578 69.5618 138.382C68.9966 137.226 64.0418 126.588 64.0418 126.588Z" fill="#786B66"/>
<path d="M61.7999 125.709C61.9695 126.714 62.9491 132.617 63.125 133.553C63.3008 134.488 63.4766 135.782 62.7105 136.353C61.9444 136.925 59.7716 138.3 59.8783 139.223C59.9851 140.146 61.8439 141.811 63.4955 143.87C65.1471 145.93 66.4721 145.158 67.6841 143.726C68.3121 143.016 69.028 142.307 69.7062 141.553C69.9963 140.499 69.9346 139.379 69.5304 138.363C68.9966 137.226 64.0418 126.588 64.0418 126.588C63.3688 126.133 62.6031 125.833 61.7999 125.709Z" fill="#574A44"/>
<path d="M73.2416 122.638C73.2416 122.638 71.747 121.206 70.7296 121.213C69.7123 121.219 65.8439 123.342 64.8831 123.913C63.9223 124.484 63.3445 127.518 63.4764 128.522C63.6083 129.527 63.8281 135.022 64.2551 135.732C64.6821 136.441 68.538 141.603 69.1973 142.74C69.8567 143.877 70.7045 144.479 72.4063 143.55C74.1082 142.621 75.5086 141.666 76.1428 140.642C76.8797 139.427 77.1372 137.981 76.865 136.586L73.2416 122.638Z" fill="#786B66"/>
<path d="M70.9684 121.238C70.9684 122.362 70.8365 129.006 70.8428 130.029C70.8428 131.185 70.78 132.541 69.8255 133.006C68.8709 133.471 66.2271 134.538 66.158 135.568C66.089 136.598 67.7908 138.784 69.1786 141.365C70.5665 143.946 72.1678 143.368 73.7755 142.049C74.573 141.421 75.5275 140.793 76.4256 140.083C76.9528 138.991 77.1073 137.756 76.8652 136.567L73.2417 122.607C73.2417 122.607 71.9732 121.426 70.9684 121.238Z" fill="#574A44"/>
<path d="M83.9613 119.203C83.9613 119.203 82.743 117.319 81.6629 117.074C80.5828 116.829 75.9797 118.104 74.8305 118.475C73.6812 118.845 72.3185 121.891 72.2118 122.996C72.105 124.101 70.9558 129.935 71.251 130.789C71.5461 131.643 74.3092 138.036 74.7237 139.399C75.1382 140.762 75.8855 141.609 77.9076 141.05C79.9297 140.492 81.6755 139.795 82.5609 138.909C83.6425 137.814 84.2744 136.353 84.3318 134.815C84.2942 133.301 83.9613 119.203 83.9613 119.203Z" fill="#786B66"/>
<path d="M81.9142 117.162C81.619 118.343 79.8607 125.326 79.6032 126.431C79.3269 127.65 78.9124 129.056 77.7946 129.314C76.6768 129.571 73.6185 130.042 73.292 131.11C72.9654 132.177 74.2151 134.878 75.0378 137.967C75.8604 141.057 77.7004 140.818 79.7163 139.851C80.721 139.355 81.8828 138.934 82.9943 138.438C83.82 137.416 84.2896 136.153 84.3319 134.84C84.2943 133.327 83.9614 119.228 83.9614 119.228C83.9614 119.228 82.9441 117.608 81.9142 117.162Z" fill="#574A44"/>
<path d="M91.9243 131.474C91.9243 131.474 95.5038 120.987 95.7362 120.089C95.9685 119.191 96.2762 118.412 95.9309 117.344L95.0328 114.562C94.8193 113.897 93.2996 113.306 92.4581 113.124C91.6166 112.942 88.7593 113.181 87.4908 113.388C86.6472 113.553 85.8704 113.961 85.2565 114.563C84.6427 115.164 84.2186 115.933 84.0369 116.773C83.5722 118.864 82.1529 124.397 82.3099 125.282C82.4669 126.167 83.8924 131.656 84.2943 133.301C84.6962 134.947 84.9851 135.863 86.5048 135.6C88.0246 135.336 91.4533 134.174 91.9243 131.474Z" fill="#786B66"/>
<path d="M91.9242 131.474C91.9242 131.474 92.2382 130.538 92.6903 129.207C92.2952 128.391 91.7762 127.641 91.1518 126.984C90.4422 126.412 86.9757 125.251 85.255 125.313C84.9103 125.337 84.5745 125.433 84.2695 125.595C83.9645 125.758 83.6972 125.982 83.485 126.255C83.2728 126.528 83.1205 126.842 83.0381 127.178C82.9557 127.513 82.9451 127.862 83.0069 128.202C83.4841 130.086 84.0619 132.347 84.2942 133.301C84.6898 134.94 84.985 135.864 86.5047 135.6C88.0244 135.336 91.4532 134.174 91.9242 131.474Z" fill="#574A44"/>
<path d="M73.6121 157.962C72.6074 153.61 74.9623 147.035 79.2075 144.26C81.7507 142.596 84.4801 141.237 87.3398 140.209C87.3398 140.209 82.1904 137.697 80.5388 135.487C78.8872 133.276 80.3567 129.533 81.7508 128.478C83.1449 127.423 84.7086 129.364 88.5832 129.766C92.4579 130.168 94.4486 130.13 95.152 130.438C95.8553 130.745 99.3406 135.75 100.031 136.868C100.722 137.986 100.892 139.744 99.9686 141.842C99.0454 143.939 92.7593 151.651 91.1077 152.781C86.0226 156.423 79.8602 158.248 73.6121 157.962Z" fill="#786B66"/>
<path d="M135.23 74.5786C133.892 73.0087 130.52 72.8517 129.578 73.7183C128.636 74.5849 127.38 80.7831 127.926 82.51C128.473 84.237 132.165 90.6738 132.988 91.8858C133.811 93.0978 135.858 94.4794 136.681 94.9504C137.503 95.4214 139.858 94.9504 139.858 94.9504L135.23 74.5786Z" fill="#FF9580"/>
<path d="M195.931 74.5786C197.262 73.0087 200.641 72.8517 201.583 73.7183C202.525 74.5849 203.781 80.7831 203.228 82.51C202.675 84.237 198.989 90.6738 198.167 91.8858C197.344 93.0978 195.303 94.4794 194.474 94.9504C193.645 95.4214 191.296 94.9504 191.296 94.9504L195.931 74.5786Z" fill="#FF9580"/>
<path d="M165.58 27.5615C199.567 27.5615 200.823 52.6808 199.881 62.8856C198.939 73.0903 195.096 92.4008 189.519 101.582C183.943 110.763 167.722 118.851 165.58 118.851C163.439 118.851 147.212 110.769 141.635 101.582C136.059 92.3945 132.216 73.0903 131.274 62.8856C130.332 52.6808 131.588 27.5615 165.58 27.5615Z" fill="#FFCBAB"/>
<path d="M165.58 27.5615C131.588 27.5615 130.332 52.6808 131.274 62.8856C132.16 71.3204 133.778 79.6621 136.109 87.8165C141.416 80.2807 148.512 70.4779 152.261 66.2202C149.121 73.2598 147.702 81.8632 147.702 81.8632C147.702 81.8632 161.298 69.5485 165.775 62.4774C165.775 62.4774 164.4 71.7276 162.139 82.3405C168.231 76.2491 176.225 59.1051 178.203 52.1973C181.751 61.1461 183.327 76.6886 183.327 76.6886C183.327 76.6886 186.561 71.7527 187.503 66.352C188.32 71.3759 191.767 89.9956 191.767 89.9956C191.767 89.9956 194.738 83.4081 195.636 79.4329C195.935 80.1705 196.285 80.886 196.684 81.5743C198.161 75.4199 199.228 69.1746 199.881 62.8793C200.823 52.6808 199.567 27.5615 165.58 27.5615Z" fill="#FF9580"/>
<path d="M169.687 72.9144C169.687 72.9144 171.157 74.1138 171.778 74.5032C172.496 74.9715 173.366 75.1468 174.209 74.993C174.931 74.7544 186.14 71.0367 187.064 70.7667C188.448 70.5641 189.846 70.4654 191.246 70.4715C191.246 70.4715 187.221 69.1339 186.279 69.3474C185.337 69.5609 173.662 72.6255 172.934 72.7762C171.859 72.9342 170.771 72.9805 169.687 72.9144Z" fill="#25272B"/>
<path d="M179.654 75.263C177.474 76.2804 175.886 78.0701 174.793 80.9149C179.591 84.0862 183.208 83.7094 186.787 81.3356C187.7 80.169 188.302 78.7909 188.54 77.3291C188.54 77.3291 184.784 73.5989 179.654 75.263Z" fill="white"/>
<path d="M185.349 80.6325C184.954 81.3774 184.346 81.9883 183.603 82.3879C182.861 82.7875 182.016 82.9578 181.177 82.8773C180.337 82.7969 179.54 82.4692 178.887 81.9358C178.233 81.4025 177.753 80.6873 177.506 79.8808C177.259 79.0743 177.257 78.2128 177.5 77.4051C177.743 76.5974 178.22 75.8798 178.87 75.3432C179.521 74.8066 180.316 74.475 181.155 74.3903C181.995 74.3057 182.84 74.4718 183.585 74.8676C184.583 75.3983 185.33 76.3037 185.661 77.3847C185.992 78.4658 185.88 79.634 185.349 80.6325Z" fill="#585F6B"/>
<path d="M182.994 79.3829C182.846 79.661 182.618 79.8889 182.34 80.0377C182.062 80.1866 181.746 80.2497 181.433 80.2191C181.119 80.1886 180.821 80.0657 180.577 79.866C180.333 79.6663 180.154 79.3988 180.062 79.0972C179.97 78.7957 179.969 78.4736 180.06 78.1717C180.151 77.8698 180.329 77.6016 180.572 77.401C180.816 77.2004 181.113 77.0764 181.427 77.0446C181.74 77.0129 182.056 77.0748 182.335 77.2226C182.52 77.3209 182.684 77.4549 182.818 77.6168C182.951 77.7786 183.052 77.9653 183.113 78.1659C183.174 78.3666 183.195 78.5774 183.175 78.7862C183.154 78.995 183.093 79.1978 182.994 79.3829Z" fill="#25272B"/>
<g style="mix-blend-mode:multiply" opacity="0.5">
<path d="M185.776 77.863C185.601 76.7471 184.99 75.7464 184.078 75.081C183.165 74.4156 182.025 74.14 180.909 74.3149C179.793 74.4898 178.793 75.1008 178.127 76.0135C177.462 76.9262 177.186 78.0659 177.361 79.1818C180.037 78.1358 182.909 77.6857 185.776 77.863Z" fill="#25272B"/>
</g>
<path d="M179.145 80.1678C179.024 80.3955 178.838 80.5822 178.61 80.7043C178.383 80.8265 178.125 80.8786 177.868 80.8541C177.611 80.8296 177.367 80.7296 177.167 80.5667C176.967 80.4038 176.82 80.1853 176.744 79.9388C176.668 79.6923 176.666 79.4288 176.74 79.1815C176.813 78.9342 176.959 78.7143 177.157 78.5493C177.355 78.3844 177.598 78.2819 177.855 78.2548C178.111 78.2277 178.37 78.2771 178.599 78.3969C178.905 78.5597 179.135 78.8375 179.238 79.1695C179.34 79.5014 179.307 79.8604 179.145 80.1678Z" fill="white"/>
<path d="M173.411 80.4753C175.584 78.0011 179.264 75.3007 182.58 75.3761C183.56 75.4014 184.526 75.6215 185.421 76.0237C186.316 76.4258 187.122 77.0019 187.792 77.7185C187.463 79.136 187.056 80.5343 186.574 81.9071C188.018 80.7516 189.142 77.6431 189.205 76.9649C187.591 75.194 184.212 73.0714 180.225 74.4529C176.815 75.6273 175.082 77.888 173.411 80.4753Z" fill="#25272B"/>
<path d="M177.317 76.5129C176.252 77.713 175.429 79.1076 174.893 80.6199C176.369 78.6428 178.079 76.8525 179.986 75.2883C179.038 75.5545 178.137 75.9677 177.317 76.5129Z" fill="#25272B"/>
<path d="M187.993 75.8595C188.438 76.2088 188.985 76.401 189.551 76.4058C190.022 76.3619 191.246 76.4058 191.246 76.4058L188.169 79.7404L187.993 75.8595Z" fill="#25272B"/>
<path d="M161.473 72.9144C161.473 72.9144 160.004 74.1138 159.382 74.5032C158.662 74.9719 157.791 75.1472 156.946 74.993C156.223 74.7544 145.014 71.0367 144.097 70.7667C142.71 70.5642 141.31 70.4656 139.908 70.4715C139.908 70.4715 143.94 69.1339 144.882 69.3474C145.824 69.5609 157.492 72.6255 158.22 72.7762C159.297 72.9341 160.387 72.9804 161.473 72.9144Z" fill="#25272B"/>
<path d="M151.526 75.263C153.711 76.2804 155.294 78.0701 156.393 80.9149C151.589 84.0862 147.978 83.7094 144.392 81.3356C143.48 80.169 142.877 78.7909 142.64 77.3291C142.64 77.3291 146.37 73.5989 151.526 75.263Z" fill="white"/>
<path d="M145.805 80.6325C146.201 81.3774 146.808 81.9883 147.551 82.3879C148.294 82.7875 149.138 82.9578 149.978 82.8773C150.818 82.7969 151.614 82.4692 152.268 81.9358C152.921 81.4025 153.402 80.6873 153.648 79.8808C153.895 79.0743 153.897 78.2128 153.655 77.4051C153.412 76.5974 152.935 75.8798 152.284 75.3432C151.633 74.8066 150.838 74.475 149.999 74.3903C149.16 74.3057 148.315 74.4718 147.57 74.8676C146.571 75.3983 145.825 76.3037 145.494 77.3847C145.163 78.4658 145.275 79.634 145.805 80.6325Z" fill="#585F6B"/>
<path d="M148.16 79.3826C148.308 79.6609 148.535 79.8892 148.813 80.0385C149.09 80.1879 149.406 80.2517 149.72 80.2218C150.033 80.192 150.331 80.0698 150.576 79.8708C150.82 79.6718 151 79.4048 151.093 79.1036C151.186 78.8024 151.187 78.4804 151.097 78.1784C151.007 77.8763 150.83 77.6077 150.587 77.4064C150.344 77.2051 150.048 77.0802 149.734 77.0475C149.421 77.0147 149.105 77.0755 148.826 77.2223C148.64 77.3201 148.475 77.4537 148.341 77.6153C148.207 77.7769 148.106 77.9635 148.044 78.1642C147.982 78.3649 147.961 78.5759 147.981 78.7849C148 78.994 148.061 79.1971 148.16 79.3826Z" fill="#25272B"/>
<g style="mix-blend-mode:multiply" opacity="0.5">
<path d="M145.378 77.8631C145.584 76.7743 146.205 75.8083 147.11 75.1695C148.015 74.5307 149.133 74.2694 150.228 74.4408C151.323 74.6122 152.307 75.2029 152.974 76.0878C153.641 76.9728 153.937 78.0824 153.799 79.1818C151.121 78.1366 148.248 77.6867 145.378 77.8631Z" fill="#25272B"/>
</g>
<path d="M144.593 78.874C144.714 79.1024 144.9 79.2897 145.128 79.4122C145.355 79.5348 145.614 79.5871 145.871 79.5626C146.129 79.538 146.373 79.4376 146.573 79.2742C146.773 79.1108 146.921 78.8917 146.996 78.6445C147.072 78.3974 147.072 78.1334 146.998 77.8859C146.923 77.6384 146.777 77.4186 146.578 77.2542C146.378 77.0898 146.135 76.9883 145.877 76.9626C145.62 76.9368 145.361 76.9879 145.133 77.1094C144.828 77.272 144.599 77.5492 144.498 77.88C144.397 78.2108 144.431 78.5683 144.593 78.874Z" fill="white"/>
<path d="M157.75 80.4753C155.577 78.0011 151.89 75.3007 148.581 75.3761C147.6 75.4014 146.634 75.6215 145.74 76.0237C144.845 76.4258 144.039 77.0019 143.369 77.7185C143.694 79.1369 144.101 80.5354 144.587 81.9071C143.143 80.7516 142.012 77.6431 141.956 76.9649C143.563 75.194 146.942 73.0714 150.93 74.4529C154.346 75.6273 156.079 77.888 157.75 80.4753Z" fill="#25272B"/>
<path d="M153.837 76.5129C154.904 77.7113 155.728 79.1064 156.261 80.6199C154.788 78.641 153.078 76.8504 151.168 75.2883C152.116 75.5545 153.017 75.9677 153.837 76.5129Z" fill="#25272B"/>
<path d="M143.168 75.8595C142.723 76.2088 142.176 76.401 141.61 76.4058C141.139 76.3619 139.908 76.4058 139.908 76.4058L142.986 79.7404L143.168 75.8595Z" fill="#25272B"/>
<path d="M163.251 90.699C163.251 90.699 163.251 96.2189 163.357 96.7653C163.464 97.3116 164.111 99.384 164.111 99.384C164.111 99.384 161.524 98.9381 160.971 96.9223C161.228 95.1576 163.251 90.699 163.251 90.699Z" fill="#FF9580"/>
<path d="M166.887 99.2271C167.282 98.7059 168.325 97.3934 168.72 97.6069C169.129 97.8711 169.419 98.2828 169.531 98.7561C169.48 98.9633 168.538 99.0952 166.887 99.2271Z" fill="#BD5151"/>
<path d="M155.344 104.031C155.344 104.031 160.425 103.975 167.59 103.504C170.537 103.381 173.474 103.071 176.382 102.574L178.366 102.172C175.244 103.531 172.036 104.684 168.764 105.626C164.607 106.7 162.541 106.436 160.914 106.072C159.022 105.493 157.163 104.811 155.344 104.031Z" fill="white"/>
<path d="M159.652 105.701L155.884 104.119L159.313 103.937L155.689 103.805L155.821 103.391C155.821 103.391 155.061 103.937 154.98 104.018C154.898 104.1 155.112 104.521 155.112 104.521C155.255 104.453 155.412 104.418 155.57 104.42C155.79 104.477 159.652 105.701 159.652 105.701Z" fill="#BD5151"/>
<path d="M174.347 103.818C175.813 103.447 177.247 102.962 178.636 102.367L178.806 102.668C178.806 102.668 179.239 102.04 179.158 101.946C178.536 101.808 177.907 101.709 177.274 101.651C177.142 101.651 178.096 102.053 178.046 102.091C177.996 102.128 175.208 102.8 175.208 102.8L177.82 102.436C177.82 102.436 176.677 102.982 174.347 103.818Z" fill="#BD5151"/>
<path d="M160.368 105.143C160.368 105.143 162.516 105.35 162.83 105.35C163.144 105.35 169.537 104.546 169.537 104.546C169.537 104.546 164.167 105.702 162.987 105.702C162.098 105.6 161.221 105.412 160.368 105.143Z" fill="#B6BDE0"/>
<path d="M169.304 108.427C169.304 108.427 166.164 109.237 165.58 109.287C164.996 109.337 162.491 109.055 162.528 109.287C162.566 109.519 164.349 110.7 165.668 110.989C166.987 111.278 170.127 108.201 169.304 108.427Z" fill="#FF9580"/>
<path d="M183.252 113.068C179.484 109.3 172.777 103.899 172.708 103.843L173.505 103.679C173.976 104.056 179.904 108.804 183.697 112.628L183.252 113.068Z" fill="#348577"/>
<path d="M183.421 112.879C186.04 115.184 189.871 118.462 197.237 117.79C192.898 113.614 187.786 111.567 182.793 112.101L183.421 112.879Z" fill="#348577"/>
<path d="M183.465 112.603C185.883 115.115 189.324 118.795 188.985 126.199C184.621 122.048 182.348 117.03 182.662 112.019L183.465 112.603Z" fill="#348577"/>
<path d="M164.462 16.9485C163.839 16.4589 163.097 16.1429 162.311 16.0326C161.526 15.9223 160.726 16.0216 159.991 16.3205C160.105 15.7112 160.035 15.0819 159.792 14.5119C159.548 13.942 159.141 13.4569 158.622 13.1178C158.036 12.7285 157.353 12.511 156.65 12.4898C155.784 12.4441 154.92 12.6169 154.138 12.9922C154.193 12.3738 154.062 11.7532 153.764 11.2089C153.465 10.6645 153.012 10.2209 152.462 9.93394C151.755 9.58276 150.968 9.42451 150.181 9.47524C149.394 9.52597 148.634 9.78387 147.978 10.2228C147.973 9.59499 147.78 8.98297 147.425 8.4658C147.069 7.94863 146.566 7.55005 145.981 7.32153C145.238 7.04221 144.434 6.96538 143.652 7.0989C142.87 7.23242 142.137 7.57149 141.529 8.08139C141.45 7.45982 141.188 6.87592 140.775 6.40478C140.362 5.93363 139.817 5.5968 139.211 5.43758C138.518 5.25502 137.789 5.25502 137.095 5.43758C136.704 5.53605 136.327 5.68155 135.971 5.87089C135.57 6.10381 135.195 6.37965 134.853 6.69355C134.853 6.69355 133.798 8.09395 132.844 9.51947C132.366 10.2291 131.908 10.9387 131.588 11.4725L131.035 12.4019C131.17 12.9471 131.448 13.4461 131.841 13.8471C132.235 14.248 132.728 14.5362 133.271 14.6815C134.344 14.8699 135.644 14.5622 137.038 13.2748C137.124 13.919 137.404 14.5216 137.842 15.0018C138.248 15.4847 138.81 15.8093 139.431 15.9186C139.971 16.001 140.523 15.9602 141.045 15.7993C141.725 15.6068 142.364 15.2895 142.929 14.8636C142.92 15.2992 143.007 15.7314 143.183 16.1299C143.359 16.5284 143.62 16.8834 143.948 17.1701C144.276 17.4569 144.663 17.6682 145.081 17.7894C145.5 17.9106 145.94 17.9387 146.37 17.8716C147.17 17.7838 147.939 17.52 148.625 17.0992C148.57 17.7554 148.717 18.4125 149.045 18.9832C149.347 19.5515 149.838 19.9961 150.433 20.2391C151.034 20.4438 151.67 20.5221 152.302 20.4691C152.935 20.4162 153.549 20.2331 154.107 19.9314C153.992 20.49 154.036 21.0697 154.233 21.6047C154.431 22.1397 154.774 22.6086 155.225 22.9583C155.714 23.3282 156.302 23.5465 156.914 23.5863C157.716 23.6436 158.521 23.5301 159.275 23.2535C159.083 23.8796 159.083 24.5489 159.275 25.1751C159.441 25.721 159.775 26.2003 160.23 26.5441L165.561 20.4087C165.724 19.787 165.707 19.132 165.513 18.5195C165.318 17.907 164.954 17.3623 164.462 16.9485Z" fill="#E0E5FF"/>
<path d="M159.294 25.1438C159.459 25.6897 159.794 26.169 160.249 26.5128L162.258 24.1955C161.206 24.0856 160.19 23.7539 159.275 23.2222C159.09 23.8502 159.096 24.5195 159.294 25.1438Z" fill="#B6BDE0"/>
<path d="M165.656 19.1278C165.601 18.7163 165.471 18.3182 165.273 17.9535C165.131 18.3944 164.886 18.7953 164.558 19.1228C164.23 19.4504 163.83 19.6954 163.389 19.8374C162.333 20.2461 161.221 20.4938 160.092 20.5722C158.941 20.6824 157.782 20.6824 156.632 20.5722C155.76 20.5348 154.906 20.3212 154.12 19.9442C154.005 20.5028 154.048 21.0824 154.246 21.6174C154.443 22.1524 154.787 22.6214 155.237 22.9711C155.727 23.341 156.314 23.5593 156.927 23.5991C157.729 23.6563 158.533 23.5429 159.288 23.2662C159.288 23.2662 160.789 22.4624 162.346 21.7339C163.125 21.3697 163.923 21.0243 164.532 20.7857C164.875 20.6365 165.23 20.5147 165.593 20.4215C165.644 20.2157 165.673 20.0053 165.681 19.7935C165.694 19.5713 165.686 19.3483 165.656 19.1278Z" fill="#B6BDE0"/>
<path d="M159.991 16.333C160.069 15.9361 160.066 15.5275 159.983 15.1316C159.9 14.7357 159.739 14.3605 159.508 14.0283C159.313 15.2843 158.139 16.1007 156.663 16.6219C155.887 16.8989 155.089 17.109 154.277 17.2499C153.468 17.3782 152.652 17.4621 151.834 17.5011C150.749 17.5885 149.658 17.4582 148.625 17.118C148.57 17.7741 148.717 18.4313 149.046 19.0019C149.347 19.5703 149.838 20.0148 150.433 20.2579C151.034 20.4625 151.67 20.5408 152.302 20.4879C152.935 20.4349 153.549 20.2519 154.107 19.9502C154.107 19.9502 155.52 19.0145 156.996 18.1165C158.472 17.2185 159.991 16.333 159.991 16.333Z" fill="#B6BDE0"/>
<path d="M151.325 14.9831C152.694 13.9595 154.138 12.9735 154.138 12.9735C154.204 12.1613 153.952 11.3551 153.435 10.7253C153.38 11.1806 153.22 11.6171 152.968 12.0005C152.717 12.3839 152.38 12.7041 151.984 12.9358C151.035 13.5546 149.994 14.0208 148.901 14.3174C147.79 14.639 146.653 14.8639 145.503 14.9893C144.64 15.099 143.764 15.0543 142.916 14.8575C142.906 15.2948 142.992 15.729 143.169 16.1293C143.345 16.5296 143.607 16.8862 143.937 17.1738C144.266 17.4615 144.655 17.6731 145.076 17.7937C145.496 17.9143 145.938 17.941 146.37 17.8718C147.169 17.784 147.939 17.5202 148.624 17.0994L149.46 16.4274C149.962 16.0255 150.64 15.4855 151.325 14.9831Z" fill="#B6BDE0"/>
<path d="M145.385 12.4711C146.641 11.3219 147.978 10.2041 147.978 10.2041C147.961 9.38511 147.628 8.60443 147.049 8.02502C147.099 9.28099 146.119 10.2983 144.763 11.1649C143.335 11.9688 141.806 12.5771 140.216 12.9735C139.629 13.1288 139.031 13.2359 138.427 13.2938C137.962 13.3574 137.491 13.3574 137.026 13.2938C137.112 13.938 137.392 14.5406 137.83 15.0208C138.235 15.5036 138.798 15.8283 139.419 15.9376C139.959 16.02 140.511 15.9792 141.033 15.8183C141.713 15.6258 142.352 15.3085 142.917 14.8826C142.917 14.8826 144.11 13.6455 145.385 12.4711Z" fill="#B6BDE0"/>
<path d="M139.199 10.6248C140.317 9.33741 141.529 8.08145 141.529 8.08145C141.423 7.2655 141.001 6.52362 140.354 6.01538C140.399 6.47122 140.336 6.93119 140.172 7.3586C140.007 7.78601 139.745 8.16902 139.406 8.47707C138.609 9.2891 137.692 9.97329 136.687 10.5055C136.174 10.7919 135.646 11.0497 135.104 11.2779C134.597 11.5149 134.077 11.7245 133.547 11.9059C132.744 12.2107 131.894 12.3722 131.035 12.3831C131.17 12.9283 131.448 13.4274 131.841 13.8283C132.235 14.2292 132.728 14.5174 133.271 14.6627C134.344 14.8511 135.644 14.5434 137.038 13.256L137.698 12.4145C138.087 11.9373 138.64 11.2528 139.199 10.6248Z" fill="#B6BDE0"/>
<path d="M197.237 5.2367C196.779 4.77199 196.157 4.14401 195.529 3.55998C194.273 2.37937 192.967 1.21761 192.967 1.21761C192.208 0.741585 191.347 0.451144 190.455 0.36983C189.727 0.31567 188.998 0.458856 188.345 0.784298C187.766 1.04418 187.275 1.46706 186.933 2.00127C186.591 2.53547 186.411 3.15786 186.417 3.79234C185.707 3.40148 184.91 3.19652 184.1 3.19652C183.289 3.19652 182.492 3.40148 181.782 3.79234C181.237 4.11622 180.794 4.58886 180.507 5.15494C180.22 5.72101 180.101 6.35711 180.162 6.98877C179.408 6.67991 178.588 6.56744 177.778 6.66189C176.969 6.75635 176.197 7.05464 175.534 7.52884C175.019 7.90929 174.626 8.43134 174.403 9.03128C174.18 9.63122 174.137 10.2831 174.278 10.9074C173.487 10.6822 172.652 10.6657 171.853 10.8594C171.054 11.0531 170.319 11.4504 169.719 12.0126C169.233 12.4688 168.895 13.059 168.745 13.7082C168.596 14.3167 168.636 14.9563 168.858 15.5419C167.958 15.4476 167.049 15.5815 166.215 15.9312C165.499 16.2453 164.877 16.7411 164.412 17.3693C163.995 17.936 163.737 18.6037 163.665 19.3035C163.633 19.6347 163.648 19.9687 163.709 20.2957C163.74 20.4539 163.784 20.6093 163.841 20.7604C163.882 20.9273 163.941 21.0894 164.017 21.244L170.924 25.5331C170.984 25.4677 171.032 25.3936 171.069 25.3133C171.131 25.1953 171.185 25.0737 171.232 24.9491C171.325 24.6727 171.382 24.3858 171.402 24.095C171.426 23.4375 171.269 22.786 170.95 22.2111C171.751 22.295 172.562 22.2225 173.336 21.9976C173.922 21.813 174.45 21.4798 174.868 21.0305C175.238 20.5923 175.484 20.0629 175.58 19.4974C175.676 18.9319 175.619 18.351 175.415 17.8152C177.016 18.1606 178.291 17.9848 179.138 17.407C179.694 17.0502 180.123 16.5274 180.364 15.913C180.605 15.2986 180.647 14.6238 180.482 13.9845C182.329 14.6627 183.704 14.4241 184.677 13.7835C185.16 13.451 185.54 12.9901 185.774 12.453C186.008 11.9159 186.087 11.3239 186.002 10.7441C187.522 11.4851 188.803 11.5479 189.77 11.1649C190.398 10.9414 190.938 10.524 191.313 9.97303C191.688 9.42211 191.878 8.76624 191.855 8.1003C193.488 9.04855 194.995 9.20555 196.044 8.72828C196.573 8.48783 197.027 8.10793 197.356 7.62931C197.707 7.15304 197.914 6.58654 197.953 5.99656L197.237 5.2367Z" fill="#E0E5FF"/>
<path d="M169.857 23.1154C169.378 23.425 168.874 23.6939 168.35 23.9192L170.925 25.5331C170.984 25.4677 171.033 25.3936 171.069 25.3133C171.131 25.1953 171.185 25.0736 171.232 24.9491C171.325 24.6727 171.382 24.3857 171.402 24.095C171.426 23.4375 171.27 22.786 170.95 22.2111C170.629 22.561 170.261 22.8653 169.857 23.1154Z" fill="#B6BDE0"/>
<path d="M167.759 19.9942C167.209 20.0346 166.656 20.0241 166.108 19.9628C165.072 19.8247 164.224 19.4793 163.797 18.6503C163.55 19.5147 163.628 20.4395 164.017 21.2502L164.356 21.2125C164.632 21.1949 164.909 21.1949 165.185 21.2125C165.85 21.2125 166.73 21.3695 167.584 21.5014C168.438 21.6333 169.292 21.8217 169.907 21.9661L170.95 22.2173C171.751 22.3012 172.562 22.2287 173.336 22.0038C173.922 21.8192 174.45 21.486 174.868 21.0367C175.238 20.5985 175.484 20.0691 175.58 19.5036C175.676 18.9382 175.619 18.3573 175.415 17.8214C174.378 18.6692 171.986 19.4102 169.555 19.787C168.962 19.893 168.362 19.9622 167.759 19.9942Z" fill="#B6BDE0"/>
<path d="M174.78 15.2091C173.942 15.2463 173.101 15.2127 172.268 15.1087C170.667 14.8763 169.348 14.3614 168.927 13.1431C168.753 13.5221 168.655 13.9319 168.639 14.3488C168.622 14.7658 168.689 15.1819 168.833 15.5734C168.833 15.5734 170.548 16.0506 172.174 16.6095C173.801 17.1684 175.408 17.8655 175.408 17.8655C177.01 18.2109 178.284 18.0351 179.132 17.4573C179.687 17.1005 180.116 16.5777 180.357 15.9633C180.599 15.3489 180.64 14.6741 180.476 14.0348C179.494 14.5814 178.406 14.9131 177.286 15.0082C176.457 15.1376 175.619 15.2047 174.78 15.2091Z" fill="#B6BDE0"/>
<path d="M182.511 11.3973C182.228 11.3973 181.933 11.3973 181.632 11.3973C181.021 11.3956 180.411 11.36 179.804 11.2905C178.66 11.1856 177.536 10.9149 176.47 10.4867C176.032 10.3399 175.636 10.0897 175.316 9.7574C174.996 9.42506 174.76 9.02036 174.63 8.57764C174.405 8.92523 174.254 9.31523 174.186 9.72352C174.118 10.1318 174.134 10.5497 174.234 10.9514C174.234 10.9514 174.63 11.1084 175.232 11.391C175.835 11.6736 176.633 12.019 177.412 12.4272C178.975 13.1996 180.457 14.0222 180.457 14.0222C182.304 14.7005 183.679 14.4618 184.652 13.8213C185.135 13.4888 185.514 13.0279 185.749 12.4907C185.983 11.9536 186.062 11.3617 185.977 10.7819C185.153 11.1717 184.257 11.3855 183.346 11.4098C183.095 11.3847 182.793 11.391 182.511 11.3973Z" fill="#B6BDE0"/>
<path d="M188.508 8.40178C186.823 8.31337 185.159 7.97692 183.572 7.40329C182.096 6.8381 180.934 5.98405 180.809 4.7218C180.558 5.04462 180.373 5.41387 180.265 5.80832C180.158 6.20277 180.129 6.61463 180.181 7.02022C180.181 7.02022 181.713 7.91823 183.17 8.86021C184.627 9.80218 186.027 10.7442 186.027 10.7442C187.547 11.4852 188.828 11.548 189.795 11.1649C190.423 10.9414 190.963 10.524 191.338 9.97308C191.713 9.42216 191.903 8.76629 191.88 8.10035C190.789 8.43141 189.641 8.53402 188.508 8.40178Z" fill="#B6BDE0"/>
<path d="M196.754 6.14733C196.248 6.16532 195.742 6.14432 195.24 6.08453C194.05 5.94417 192.878 5.68111 191.742 5.29955C189.438 4.58993 187.29 3.37165 187.29 1.56934C187 1.861 186.773 2.20845 186.622 2.5906C186.471 2.97274 186.399 3.38162 186.411 3.7924L187.29 4.42038C187.817 4.82229 188.514 5.36235 189.174 5.9087C190.543 6.99511 191.836 8.11292 191.836 8.11292C193.469 9.06117 194.976 9.21817 196.025 8.7409C196.554 8.50045 197.008 8.12056 197.338 7.64193C197.688 7.16566 197.895 6.59916 197.934 6.00918C197.549 6.10779 197.151 6.15426 196.754 6.14733Z" fill="#B6BDE0"/>
<path d="M180.815 26.9838C180.697 26.4659 180.42 25.9976 180.024 25.6433C179.628 25.2891 179.132 25.0663 178.605 25.0056C178.904 24.3408 179.014 23.6066 178.925 22.8831C178.831 22.2429 178.566 21.6399 178.159 21.1373C177.851 20.7051 177.418 20.3784 176.918 20.202C176.417 20.0255 175.875 20.0078 175.364 20.1513C175.385 19.4257 175.204 18.7086 174.843 18.079C174.52 17.5145 174.046 17.0513 173.474 16.7414C173.215 16.6031 172.941 16.4935 172.658 16.4148C172.391 16.359 172.119 16.34 171.848 16.3583C171.353 16.3808 170.881 16.5713 170.51 16.8984C170.278 16.2503 169.869 15.6802 169.33 15.2528C168.79 14.8254 168.142 14.5579 167.458 14.4806C166.892 14.4034 166.316 14.4997 165.806 14.757C165.363 14.9671 165.005 15.3213 164.789 15.7617C164.288 15.2353 163.655 14.8535 162.955 14.6565C162.338 14.4907 161.688 14.4907 161.071 14.6565C160.553 14.7748 160.084 15.0509 159.728 15.4467C159.373 15.8425 159.149 16.3387 159.087 16.867C158.422 16.5676 157.688 16.4568 156.964 16.5467C156.31 16.654 155.697 16.9385 155.193 17.3694C154.761 17.6765 154.434 18.1102 154.259 18.6108C154.084 19.1113 154.068 19.654 154.214 20.1639C153.486 20.1444 152.767 20.3247 152.135 20.6851C151.577 21.0119 151.118 21.4853 150.81 22.0541C150.671 22.3125 150.564 22.5865 150.49 22.8705C150.429 23.1359 150.408 23.4089 150.427 23.6806C150.449 24.1762 150.642 24.6488 150.973 25.0182C150.327 25.2464 149.758 25.6509 149.329 26.1858C148.901 26.7206 148.631 27.3647 148.549 28.0451C148.472 28.6109 148.568 29.1868 148.826 29.6967C149.037 30.1386 149.391 30.4968 149.83 30.714H155.928C155.972 30.3304 155.869 29.9444 155.639 29.6339C155.377 29.2493 155.023 28.9363 154.609 28.7233C155.13 28.5432 155.617 28.2803 156.054 27.9446C156.361 27.737 156.593 27.435 156.713 27.0843C156.795 26.7135 156.786 26.3285 156.686 25.9621C156.587 25.5957 156.4 25.2589 156.142 24.9805C156.632 25.0087 157.124 24.9706 157.605 24.8675C157.943 24.8175 158.261 24.674 158.522 24.453C158.821 24.21 159.022 23.8662 159.087 23.4859C159.168 23.025 159.138 22.5514 158.999 22.1044C160.255 22.6758 161.059 22.7323 161.649 22.4435C161.94 22.282 162.184 22.0484 162.359 21.7652C162.564 21.4021 162.69 20.9998 162.729 20.5846C163.053 20.9559 163.43 21.2775 163.847 21.5392C164.12 21.7466 164.447 21.8689 164.789 21.8908C165.173 21.9406 165.561 21.8368 165.869 21.602C166.255 21.3441 166.569 20.9917 166.78 20.5784C166.96 21.0986 167.223 21.5863 167.558 22.0227C167.771 22.3184 168.072 22.5384 168.419 22.6507C168.789 22.7326 169.175 22.7234 169.541 22.6238C169.907 22.5243 170.244 22.3374 170.522 22.0792C170.494 22.5698 170.532 23.062 170.636 23.5424C170.688 23.88 170.831 24.1969 171.05 24.4593C171.292 24.7592 171.637 24.9585 172.017 25.0182C172.477 25.1046 172.952 25.0766 173.399 24.9366C172.827 26.1925 172.771 26.9901 173.06 27.5866C173.233 27.8807 173.48 28.1251 173.775 28.2963C174.14 28.4984 174.541 28.6245 174.956 28.6668C174.586 28.992 174.265 29.3684 174.002 29.7846C173.796 30.0582 173.674 30.3853 173.65 30.7266H179.741C180.27 30.2277 180.652 29.5935 180.847 28.8929C181.007 28.2651 180.996 27.6059 180.815 26.9838Z" fill="#E0E5FF"/>
<path d="M153.624 30.7267H155.928C155.972 30.343 155.869 29.9571 155.639 29.6465C155.377 29.262 155.023 28.949 154.609 28.736C154.547 29.0471 154.43 29.3448 154.264 29.6151C154.078 30.0011 153.864 30.3726 153.624 30.7267Z" fill="#B6BDE0"/>
<path d="M152.813 27.6934C152.123 28.2237 151.39 28.6962 150.622 29.1063C150.328 29.2958 149.99 29.4052 149.641 29.424C149.292 29.4427 148.944 29.37 148.631 29.2131C148.713 29.5356 148.862 29.8372 149.069 30.098C149.276 30.3589 149.535 30.573 149.831 30.7265C150.587 30.2676 151.374 29.8606 152.185 29.5082C152.972 29.1868 153.782 28.9285 154.609 28.7358C155.13 28.5557 155.617 28.2928 156.054 27.9571C156.361 27.7495 156.593 27.4475 156.713 27.0968C156.795 26.726 156.786 26.341 156.686 25.9746C156.587 25.6082 156.4 25.2714 156.142 24.993C155.671 25.6964 154.258 26.6007 152.813 27.6934Z" fill="#B6BDE0"/>
<path d="M156.895 22.8392C155.846 23.1218 154.496 23.4672 153.328 23.687C152.16 23.9068 151.03 23.9507 150.446 23.1406C150.391 23.4741 150.41 23.8155 150.502 24.1408C150.593 24.4662 150.754 24.7678 150.973 25.0246C150.973 25.0246 151.3 24.9618 151.809 24.9053C152.407 24.8374 153.009 24.8017 153.611 24.7985C154.201 24.7971 154.79 24.8327 155.375 24.9053C155.846 24.9618 156.142 25.012 156.142 25.012C156.632 25.0402 157.124 25.0022 157.605 24.899C157.943 24.849 158.261 24.7055 158.522 24.4845C158.821 24.2415 159.022 23.8977 159.087 23.5174C159.168 23.0565 159.138 22.5829 158.999 22.1359C158.737 22.3174 158.443 22.4474 158.132 22.5189C157.727 22.6504 157.314 22.7573 156.895 22.8392Z" fill="#B6BDE0"/>
<path d="M160.965 20.5092L160.381 20.4087C160.186 20.4087 159.985 20.3648 159.753 20.3271L159.125 20.2203L158.497 20.1261C157.636 20.0133 156.785 19.8305 155.954 19.5798C155.2 19.3035 154.635 18.9518 154.465 18.2422C154.296 18.5291 154.189 18.8485 154.151 19.1796C154.113 19.5107 154.145 19.846 154.246 20.1638C155.1 20.3712 155.94 20.6377 156.757 20.9614C157.539 21.2938 158.295 21.6842 159.018 22.1294C160.274 22.7009 161.078 22.7574 161.668 22.4685C161.955 22.2974 162.193 22.0552 162.359 21.7652C162.564 21.402 162.69 20.9997 162.73 20.5846C162.141 20.653 161.545 20.6276 160.965 20.5092Z" fill="#B6BDE0"/>
<path d="M164.789 19.5673C163.841 19.0272 162.667 18.3113 161.649 17.6393C160.632 16.9674 159.835 16.1887 159.998 15.2153C159.729 15.4154 159.506 15.6698 159.343 15.962C159.179 16.2541 159.079 16.5775 159.05 16.9109C159.772 17.43 160.454 18.0031 161.091 18.6253C161.555 19.1025 161.97 19.5861 162.265 19.9503C162.56 20.3146 162.73 20.5783 162.73 20.5783C163.053 20.9496 163.43 21.2712 163.847 21.5328C164.12 21.7402 164.448 21.8626 164.789 21.8845C165.173 21.9343 165.562 21.8305 165.869 21.5956C166.255 21.3377 166.569 20.9854 166.78 20.572C166.468 20.51 166.17 20.3908 165.901 20.2204C165.514 20.0311 165.143 19.8127 164.789 19.5673Z" fill="#B6BDE0"/>
<path d="M167.822 18.7571C167.292 18.0665 166.819 17.3335 166.409 16.5654C166.22 16.2716 166.11 15.9334 166.092 15.5842C166.073 15.2351 166.146 14.8871 166.303 14.5747C165.98 14.6567 165.678 14.8059 165.418 15.0126C165.157 15.2193 164.943 15.4789 164.789 15.7742C165.248 16.5307 165.655 17.3175 166.007 18.1291C166.329 18.9153 166.587 19.7259 166.78 20.5531C166.96 21.0733 167.223 21.5611 167.558 21.9975C167.771 22.2931 168.072 22.5132 168.419 22.6254C168.79 22.7073 169.175 22.6981 169.541 22.5986C169.907 22.4991 170.244 22.3122 170.523 22.054C169.819 21.6081 168.915 20.2014 167.822 18.7571Z" fill="#B6BDE0"/>
<path d="M172.677 22.839C172.394 21.784 172.049 20.4402 171.829 19.2658C171.609 18.0915 171.565 16.9737 172.375 16.3897C172.042 16.3345 171.701 16.3525 171.376 16.4425C171.05 16.5325 170.749 16.6924 170.491 16.9109C170.491 16.9109 170.554 17.2437 170.611 17.7524C170.678 18.3508 170.714 18.9524 170.717 19.5547C170.719 20.1446 170.683 20.7339 170.611 21.3193C170.554 21.784 170.504 22.0855 170.504 22.0855C170.476 22.5761 170.514 23.0682 170.617 23.5487C170.669 23.8862 170.813 24.2031 171.031 24.4655C171.273 24.7655 171.618 24.9647 171.998 25.0244C172.459 25.1108 172.933 25.0828 173.38 24.9428C173.198 24.6808 173.068 24.3867 172.997 24.0762C172.866 23.6704 172.759 23.2573 172.677 22.839Z" fill="#B6BDE0"/>
<path d="M175.019 26.9021C175.05 26.72 175.082 26.5253 175.119 26.3244C175.157 26.1234 175.163 25.9224 175.201 25.6964C175.239 25.4703 175.27 25.2631 175.308 25.0684L175.402 24.4404C175.516 23.5898 175.699 22.7498 175.948 21.9285C176.225 21.1749 176.576 20.6097 177.286 20.4402C176.999 20.2715 176.68 20.1643 176.349 20.1254C176.018 20.0864 175.683 20.1167 175.364 20.2141C175.157 21.0689 174.891 21.9082 174.567 22.726C174.233 23.5069 173.842 24.2625 173.399 24.9867C172.827 26.2427 172.771 27.0403 173.06 27.6368C173.233 27.9309 173.48 28.1753 173.775 28.3465C174.14 28.5486 174.541 28.6747 174.956 28.717C174.879 28.1126 174.9 27.4997 175.019 26.9021Z" fill="#B6BDE0"/>
<path d="M178.604 25.0057C178.087 25.7222 177.518 26.4001 176.903 27.0341C176.432 27.4988 175.942 27.9133 175.578 28.2084C175.213 28.5036 174.95 28.6732 174.95 28.6732C174.582 28.9969 174.263 29.3711 174.001 29.7847C173.796 30.0583 173.674 30.3854 173.65 30.7267H175.948C176.488 29.7847 177.204 28.6104 177.876 27.5867C178.548 26.5631 179.327 25.7719 180.3 25.9289C180.097 25.6659 179.841 25.4481 179.549 25.2892C179.257 25.1303 178.936 25.0338 178.604 25.0057Z" fill="#B6BDE0"/>
<path d="M178.203 52.2099C176.225 59.1177 166.24 75.326 159.652 80.8773C162.792 70.4968 164.952 61.4098 164.952 61.4098C159.929 68.0853 145.309 79.2006 145.309 79.2006C145.309 79.2006 147.463 70.7542 151.168 64.0034C144.097 70.748 125.647 93.2611 125.647 93.2611L128.969 78.2837C128.969 78.2837 123.788 85.2732 122.689 87.9421C123.003 81.1913 123.788 74.026 123.788 74.026C118.84 77.0529 109.263 84.1931 109.263 84.1931C112.79 76.0893 116.828 68.2174 121.352 60.6249C117.289 60.9717 113.197 60.5997 109.263 59.5259C109.263 59.5259 114.601 57.328 115.781 56.229C116.962 55.13 120.881 51.3621 120.881 51.3621C116.517 50.9628 112.248 49.849 108.246 48.0652C108.246 48.0652 120.41 41.7854 130.382 35.8195C138.15 30.7203 145.768 24.0449 151.576 22.7889C157.385 21.5329 171.829 19.2596 187.447 25.4578C190.101 28.5719 192.319 32.0324 194.041 35.7442C194.041 35.7442 201.733 40.4541 202.832 42.809C203.931 45.1639 208.013 59.9215 208.013 59.9215C210.14 63.0862 212.446 66.1265 214.921 69.0273C214.921 69.0273 207.228 67.6897 204.327 65.4917C205.658 76.7201 206.757 87.2388 206.757 87.2388C206.757 87.2388 199.931 79.1001 198.908 77.0278C198.518 81.0908 196.396 87.9986 196.396 87.9986C196.396 87.9986 190.643 69.9441 189.205 65.0773C188.954 70.5407 186.36 75.8535 186.36 75.8535C186.36 75.8535 181.751 61.1586 178.203 52.2099Z" fill="#31363D"/>
<path d="M134.91 59.4443C129.483 68.3022 125.367 77.8989 122.689 87.9359C123.788 85.267 128.969 78.2775 128.969 78.2775L134.91 59.4443Z" fill="#25272B"/>
<path d="M182.586 40.2216C181.066 44.9879 178.19 52.2098 178.19 52.2098C178.937 54.0937 179.735 56.2414 180.526 58.4519C183.063 51.519 182.586 40.2216 182.586 40.2216Z" fill="#25272B"/>
<path d="M199.692 69.7117L198.907 77.0277C199.931 79.0937 206.757 87.2136 206.757 87.2136C203.146 79.9164 199.692 69.7117 199.692 69.7117Z" fill="#25272B"/>
<path d="M79.2452 124.258L79.2892 125.96L80.9659 126.224C80.9659 126.224 79.9863 131.631 74.4412 130.199C73.7629 124.516 79.2452 124.258 79.2452 124.258Z" fill="#FF94B1"/>
</mask>
<g mask="url(#mask0_50_5938)">
<rect x="-33.9111" y="-2.78137" width="434.564" height="361.718" fill="#00253F"/>
</g>
</svg>
