<svg width="18" height="18" viewBox="0 0 18 18" fill="none" xmlns="http://www.w3.org/2000/svg">
<path d="M6.08591 7.58337C6.57165 8.57277 7.09064 9.49935 6.97077 10.6393C6.77915 12.4616 4.56946 13.1475 3.15641 13.987C2.23063 14.537 2.57676 16.0834 3.71287 16.0834C5.09034 16.0834 6.31972 15.9734 7.56252 15.3893L9.99954 13.8895C10.3378 13.7305 10.7647 13.7983 11.125 13.9584" stroke="#B9B9B9" stroke-linecap="round" stroke-linejoin="round"/>
<path d="M11.8408 7.58337C11.3447 8.57277 10.8148 9.49935 10.9372 10.6393C11.1329 12.4616 13.3893 13.1475 14.8324 13.987C15.7777 14.537 15.4242 16.0834 14.2641 16.0834C12.8575 16.0834 11.602 15.9734 10.3329 15.3893L7.84421 13.8895C7.55372 13.7558 7.19925 13.7825 6.875 13.8895" stroke="#B9B9B9" stroke-linecap="round" stroke-linejoin="round"/>
<path d="M7.58337 3.33329C7.58337 4.1157 8.21762 4.74996 9.00004 4.74996C9.78247 4.74996 10.4167 4.1157 10.4167 3.33329C10.4167 2.55089 9.78247 1.91663 9.00004 1.91663C8.21762 1.91663 7.58337 2.55089 7.58337 3.33329Z" stroke="#B9B9B9"/>
<path d="M2.625 11.8333C4.35749 11.8333 5.13511 9.91718 5.38279 8.59557C5.44745 8.25061 5.55216 7.90665 5.78152 7.64095C6.56087 6.73807 7.71367 6.16663 9.00001 6.16663C10.2863 6.16663 11.4392 6.73807 12.2185 7.64095C12.4478 7.90665 12.5526 8.25061 12.6173 8.59557C12.8649 9.91718 13.6425 11.8333 15.375 11.8333" stroke="#B9B9B9" stroke-linecap="round" stroke-linejoin="round"/>
</svg>
