<svg width="17" height="18" viewBox="0 0 17 18" fill="none" xmlns="http://www.w3.org/2000/svg">
<path d="M3.98119 12.74V4.89882C3.98119 3.89031 4.02433 2.7198 4.77982 2.04965C5.39948 1.49998 6.27533 1.49999 7.10492 1.5H12.5882C13.358 1.5 14.1561 1.51378 14.8468 1.85284C14.9024 1.88013 14.9555 1.90862 15.0063 1.93848C16.0313 2.54107 15.9999 3.97662 15.9999 5.16347V13.0627C15.9999 13.8438 15.964 14.646 15.6397 15.357C15.3296 16.0371 14.9052 16.3423 14.122 16.4867M3.98119 12.74H10.6034C10.9132 12.74 11.1923 12.9297 11.3011 13.2191C11.3958 13.4711 11.4741 13.6891 11.5432 13.8936C11.7857 14.612 11.9984 15.3704 12.509 15.9317C12.8155 16.2687 13.1372 16.44 13.5656 16.4867M3.98119 12.74H1.72657C1.31215 12.74 0.968437 13.0757 1.00231 13.4877C1.03784 13.92 1.11429 14.2965 1.25698 14.6995C1.50926 15.412 1.94674 16.1327 2.66668 16.3677C2.93242 16.4545 3.22666 16.4829 3.6056 16.4867H13.5656M14.122 16.4867C13.9166 16.5041 13.733 16.5049 13.5656 16.4867M14.122 16.4867H13.5656" stroke="#B9B9B9" stroke-linecap="round" stroke-linejoin="round"/>
<path d="M7.41541 5.45831H12.3737" stroke="#B9B9B9" stroke-linecap="round"/>
<path d="M7.41541 8.29169H9.89458" stroke="#B9B9B9" stroke-linecap="round"/>
</svg>
