<svg width="18" height="18" viewBox="0 0 18 18" fill="none" xmlns="http://www.w3.org/2000/svg">
<g clip-path="url(#clip0_2059_35)">
<path d="M9.56381 2.52293C9.56381 3.20869 9.00789 3.76461 8.32213 3.76461C7.63636 3.76461 7.08044 3.20869 7.08044 2.52293C7.08044 1.83717 7.63636 1.28125 8.32213 1.28125C9.00789 1.28125 9.56381 1.83717 9.56381 2.52293Z" fill="#B9B9B9" stroke="#B9B9B9" stroke-width="1.5625"/>
<path d="M13.3285 15.9288L13.3285 15.9288C13.5221 15.983 13.646 16.1718 13.6187 16.3711C13.5913 16.5703 13.4211 16.7187 13.22 16.7187H4.78009C4.55787 16.7187 4.37768 16.5385 4.37768 16.3163C4.37768 16.0941 4.55786 15.9139 4.78009 15.9139H5.33077H7.03935L5.92167 14.6216C5.86995 14.5618 5.83621 14.4867 5.82623 14.4068L5.82362 14.3858L5.81859 13.2774C5.88903 13.3455 5.96542 13.4093 6.04767 13.4679L6.04772 13.468C6.15229 13.5425 6.28774 13.6095 6.38769 13.6569C6.50479 13.7125 6.64504 13.7742 6.79528 13.8379C7.09666 13.9655 7.46168 14.1109 7.81069 14.2467C8.16081 14.3829 8.49983 14.5114 8.75097 14.6057C8.87665 14.6529 8.98057 14.6916 9.05319 14.7186L9.13749 14.7499L9.15983 14.7581L9.16565 14.7603L9.16718 14.7608L9.16759 14.761L9.16771 14.761L9.43783 14.028L9.16776 14.761L9.8914 13.3919L7.629 11.7786L7.62899 11.7786C7.56969 11.7364 7.53195 11.6701 7.52585 11.5975L7.28081 8.68288L5.79747 8.62089L5.79366 7.77998L5.79366 7.77988C5.78933 6.82386 6.56085 6.04535 7.51684 6.04102H7.51685C8.00859 6.0388 8.40905 6.43565 8.41128 6.9274L8.41261 7.22073L7.66901 7.37884L7.98022 11.0809L8.01053 11.4415L8.30515 11.6515L11.0996 13.6442L11.0996 13.6442C11.2317 13.7383 11.2393 13.9326 11.1138 14.0371L9.97139 14.9887L11.4032 15.3896L13.3285 15.9288Z" fill="#B9B9B9" stroke="#B9B9B9" stroke-width="1.5625"/>
</g>
<defs>
<clipPath id="clip0_2059_35">
<rect width="17" height="17" fill="white" transform="translate(0.5 0.5)"/>
</clipPath>
</defs>
</svg>
