<svg width="28" height="30" viewBox="0 0 28 30" fill="none" xmlns="http://www.w3.org/2000/svg">
<path d="M26.4233 8.5219L25.7652 7.37976C25.2675 6.51599 25.0187 6.08411 24.5952 5.91188C24.1717 5.73967 23.6928 5.87556 22.7351 6.14735L21.1081 6.60562C20.4967 6.74663 19.8551 6.66663 19.2968 6.37976L18.8476 6.1206C18.3688 5.81395 18.0005 5.36182 17.7967 4.83036L17.3515 3.50052C17.0587 2.6205 16.9123 2.18048 16.5637 1.9288C16.2153 1.67712 15.7524 1.67712 14.8265 1.67712H13.3401C12.4144 1.67712 11.9515 1.67712 11.6029 1.9288C11.2545 2.18048 11.1081 2.6205 10.8153 3.50052L10.37 4.83036C10.1662 5.36182 9.79794 5.81395 9.31917 6.1206L8.86999 6.37976C8.31166 6.66663 7.67013 6.74663 7.05865 6.60562L5.43167 6.14735C4.47389 5.87556 3.99501 5.73967 3.57157 5.91188C3.14813 6.08411 2.89927 6.51599 2.40154 7.37976L1.74343 8.5219C1.27689 9.33156 1.04361 9.7364 1.08889 10.1674C1.13415 10.5983 1.44645 10.9456 2.07102 11.6402L3.44574 13.1771C3.78174 13.6024 4.02029 14.3438 4.02029 15.0103C4.02029 15.6771 3.78182 16.4182 3.44578 16.8436L2.07102 18.3806C1.44645 19.0752 1.13417 19.4224 1.08889 19.8535C1.04361 20.2844 1.27689 20.6892 1.74343 21.4988L2.40153 22.641C2.89925 23.5047 3.14813 23.9367 3.57157 24.1088C3.99501 24.2811 4.4739 24.1452 5.4317 23.8734L7.05859 23.4151C7.67018 23.274 8.31183 23.3542 8.87023 23.6411L9.31934 23.9003C9.79802 24.207 10.1662 24.659 10.37 25.1904L10.8153 26.5204C11.1081 27.4004 11.2545 27.8404 11.6029 28.0922C11.9515 28.3438 12.4144 28.3438 13.3401 28.3438H14.8265C15.7524 28.3438 16.2153 28.3438 16.5637 28.0922C16.9123 27.8404 17.0587 27.4004 17.3515 26.5204L17.7968 25.1904C18.0005 24.659 18.3687 24.207 18.8475 23.9003L19.2965 23.6411C19.8549 23.3542 20.4965 23.274 21.1081 23.4151L22.7351 23.8734C23.6928 24.1452 24.1717 24.2811 24.5952 24.1088C25.0187 23.9367 25.2675 23.5047 25.7652 22.641L26.4233 21.4988C26.8899 20.6892 27.1231 20.2844 27.0779 19.8535C27.0325 19.4224 26.7203 19.0752 26.0957 18.3806L24.7209 16.8436C24.3849 16.4182 24.1464 15.6771 24.1464 15.0103C24.1464 14.3438 24.3851 13.6024 24.7209 13.1771L26.0957 11.6402C26.7203 10.9456 27.0325 10.5983 27.0779 10.1674C27.1231 9.7364 26.8899 9.33156 26.4233 8.5219Z" stroke="#DF0000" stroke-width="1.5" stroke-linecap="round"/>
<path d="M18.6927 15C18.6927 17.5774 16.6033 19.6667 14.026 19.6667C11.4487 19.6667 9.35938 17.5774 9.35938 15C9.35938 12.4227 11.4487 10.3334 14.026 10.3334C16.6033 10.3334 18.6927 12.4227 18.6927 15Z" stroke="#DF0000" stroke-width="1.5"/>
</svg>
