<svg width="375" height="211" viewBox="0 0 375 211" fill="none" xmlns="http://www.w3.org/2000/svg">
<path d="M84.498 197.319C84.2971 191.936 84.1199 186.553 83.9684 181.169C83.6645 170.4 83.4596 159.63 83.3537 148.858C83.2478 138.086 83.2577 127.313 83.32 116.541C83.3497 111.379 83.4032 106.218 83.4784 101.057C83.518 98.3641 83.5606 95.6715 83.5843 92.9789C83.6032 90.8011 84.015 88.7312 82.9043 86.8315C82.834 86.7117 82.6687 86.7207 82.5964 86.8315C81.4758 88.5461 81.7263 90.2675 81.6491 92.3057C81.5461 94.9973 81.4818 97.6909 81.4253 100.384C81.3125 105.769 81.2244 111.155 81.161 116.541C81.0313 127.537 81.0531 138.535 81.159 149.531C81.263 160.302 81.4669 171.074 81.7688 181.842C81.9203 187.226 82.0955 192.609 82.2965 197.992C82.4885 203.131 82.1727 208.658 83.1765 213.706C83.3923 214.793 84.8742 214.413 84.9732 213.463C85.5206 208.222 84.695 202.591 84.498 197.319Z" fill="#00253F"/>
<path d="M100.583 152.213C100.285 132.477 100.891 112.653 100.167 92.9344C100.141 92.2038 99.0875 92.2127 99.039 92.9344C97.7194 112.581 98.2401 132.533 98.4203 152.213C98.6004 171.937 98.7301 191.78 99.9408 211.471C100.027 212.871 102.164 212.898 102.139 211.471C101.794 191.717 100.882 171.973 100.583 152.213Z" fill="#00253F"/>
<path d="M169.763 217.3L169.762 217.299C169.772 205.626 168.994 193.877 168.487 182.237C167.921 169.262 167.777 156.044 166.047 143.162C165.98 142.671 165.262 142.632 165.251 143.162C164.983 156.155 166.127 169.253 166.589 182.237C167.051 195.249 166.939 208.348 167.749 221.34C167.816 222.401 169.437 222.75 169.696 221.603C170.032 220.113 170.093 218.798 169.763 217.3Z" fill="#00253F"/>
<path d="M840.974 66.7173C840.46 65.0304 839.257 64.7038 837.623 64.4692C834.199 63.9792 830.627 64.0495 827.198 64.4197C820.995 65.0889 814.944 66.8994 809.434 69.8385C799.807 74.9732 790.184 84.5982 787.647 95.5338C787.603 95.7209 787.636 95.8902 787.71 96.0337C787.339 96.0337 786.965 96.0308 786.595 96.0327C785.763 96.0387 784.929 96.0565 784.097 96.0783C784.583 95.8744 784.947 95.4497 784.876 94.8409C779.854 51.8457 743.265 20.2089 703.762 8.06752C681.093 1.09948 656.966 -0.626901 633.382 0.814422C611.691 2.14091 590.052 6.34012 569.712 14.0714C547.182 22.6342 526.157 35.4715 510.431 53.9384C510.337 54.0483 510.296 54.1651 510.275 54.2819C504.776 53.7374 499.087 55.0234 494.382 58.0654C493.064 49.1195 487.404 41.0061 479.035 37.2236C470.565 33.3956 460.695 34.6033 453.081 39.6232C451.917 30.5803 445.158 22.4016 436.018 20.495C427.193 18.6547 417.9 22.7955 413.001 30.1912C405.528 17.0728 390.288 9.91971 375.371 10.1563C357.899 10.4335 342.959 21.5354 334.889 36.6326C330.592 44.6718 328.2 53.5969 327.778 62.6774C321.738 58.3564 313.268 58.4435 306.784 62.1201C299.844 66.055 295.918 73.3071 294.034 80.8681C290.993 75.7354 284.709 72.8647 278.659 72.8557C272.539 72.8468 264.55 76.8649 263.108 83.0282C257.872 74.401 251.414 66.4609 244.42 59.2473C230.353 44.743 213.697 32.4037 195.081 24.4022C176.523 16.4254 156.607 13.4616 136.594 16.5304C117.021 19.5308 97.6276 26.6206 80.6554 36.8108C62.8299 47.5138 47.2783 62.3448 38.2889 81.2939C38.1631 81.5592 38.2166 81.8086 38.3502 81.9957C21.1059 85.1941 4.71279 93.0442 -7.1405 106.17C-7.81563 106.917 -6.76631 107.979 -6.03179 107.278C-4.51128 105.828 -2.94226 104.448 -1.33265 103.13C-2.45027 116.052 -2.17111 129.214 -2.11567 142.157C-2.08697 148.802 -1.97807 155.448 -1.80979 162.091C-1.6316 169.118 -1.81177 176.366 -0.935689 183.344C-0.777302 184.607 1.0491 184.688 1.09661 183.344C1.34211 176.302 0.630362 169.139 0.447227 162.091C0.273991 155.448 0.16708 148.802 0.106695 142.157C-0.017045 128.755 0.634322 115.296 0.210637 101.903C1.50644 100.892 2.82996 99.9281 4.17526 98.9995C2.33896 114.079 2.55477 129.697 2.5904 144.859C2.62703 160.324 2.67355 175.99 4.06835 191.403C4.18714 192.72 6.19569 192.77 6.16005 191.403C5.7522 175.879 4.78703 160.398 4.69794 144.859C4.60885 129.358 5.6146 113.788 5.21864 98.3046C5.21864 98.3006 5.21666 98.2986 5.21666 98.2947C6.43921 97.477 7.68255 96.6989 8.94172 95.9486C8.12207 112.395 8.96152 129.081 9.55547 145.52C9.85245 153.724 10.2197 161.926 10.6582 170.124C11.0978 178.361 11.2185 186.773 12.3213 194.95C12.4619 195.993 14.1378 195.72 14.1299 194.706C14.0695 186.529 13.1182 178.292 12.6678 170.124C12.2035 161.704 11.8135 153.281 11.4977 144.855C10.879 128.34 11.0938 111.741 10.1455 95.2458C11.4611 94.4895 12.7955 93.7698 14.1457 93.0847C12.7866 110.508 12.5351 128.092 12.7965 145.558C12.9261 154.218 13.2459 162.873 13.729 171.521C14.213 180.189 14.418 189.113 15.8078 197.69C15.987 198.795 17.7738 198.523 17.7451 197.427C17.5154 188.579 16.3285 179.701 15.8266 170.856C15.3356 162.209 15.006 153.551 14.8139 144.892C14.4249 127.375 14.8991 109.92 15.5079 92.4166C16.8462 91.7662 18.2014 91.1534 19.5695 90.5713C18.4954 99.2123 18.8993 108.197 18.8617 116.875C18.8201 126.42 18.9518 135.966 19.1874 145.508C19.6596 164.594 20.6544 183.663 22.1007 202.699C22.1987 203.994 24.232 204.005 24.133 202.699C22.6937 183.884 21.7117 165.036 21.1821 146.173C20.9207 136.853 20.794 127.53 20.7257 118.207C20.6584 108.928 21.3424 99.4192 20.5366 90.1694C21.4385 89.7982 22.3512 89.4557 23.2639 89.1142C22.3898 107.473 23.3886 126.144 24.0103 144.496C24.3201 153.645 24.726 162.789 25.1972 171.931C25.4387 176.614 25.7169 181.295 26.0099 185.975C26.2891 190.435 26.1445 195.22 27.1295 199.581C27.3641 200.622 28.7946 200.29 28.8797 199.345C29.2915 194.773 28.5055 189.89 28.2491 185.306C27.9878 180.625 27.7433 175.943 27.4978 171.261C27.0196 162.119 26.6039 152.973 26.2237 143.826C25.4615 125.487 25.605 107.006 24.3627 88.6994C25.9515 88.1282 27.5601 87.6164 29.1786 87.1324C27.8759 106.032 28.7807 125.334 29.4697 144.222C29.826 153.993 30.3448 163.76 30.9872 173.517C31.6089 182.967 31.5505 193.039 33.5699 202.307C33.7679 203.215 35.1182 202.975 35.1449 202.095C35.2934 197.235 34.5569 192.323 34.1758 187.481C33.7917 182.607 33.4402 177.731 33.1235 172.852C32.4889 163.094 32.0009 153.328 31.6198 143.557C30.8813 124.618 31.3971 105.625 30.6477 86.6988C32.1157 86.286 33.5976 85.9207 35.0845 85.5782C33.6857 105.424 34.7024 125.719 35.5656 145.551C36.0101 155.765 36.6001 165.972 37.3346 176.169C37.7018 181.267 38.1057 186.363 38.5453 191.456C38.965 196.313 38.9472 201.538 40.1598 206.266C40.3825 207.136 41.6318 206.911 41.6764 206.061C41.9407 201.057 40.9151 195.786 40.4885 190.792C40.0529 185.699 39.654 180.603 39.2917 175.504C38.567 165.307 37.9869 155.099 37.5524 144.885C36.708 125.051 37.1346 105.143 36.1942 85.3248C37.389 85.0644 38.5918 84.8358 39.7965 84.6209C40.2004 104.698 40.9943 124.767 41.7358 144.834C42.109 154.937 42.5188 165.04 42.9118 175.143C43.3117 185.438 43.3068 195.866 44.2601 206.126C44.364 207.241 46.0152 207.285 46.03 206.126C46.1627 195.826 45.3232 185.434 44.9005 175.143C44.4848 165.04 44.0868 154.936 43.6522 144.834C42.7861 124.704 41.9714 104.568 40.7647 84.4547C42.7356 84.123 44.7204 83.8587 46.7111 83.6479C45.3816 103.23 45.7133 123.019 46.3537 142.621C46.6745 152.457 47.207 162.286 47.8931 172.104C48.2356 177.014 48.6345 181.919 49.0711 186.821C49.4789 191.393 49.278 196.702 50.8737 201.031C51.0786 201.588 52.0814 201.767 52.1913 201.031C52.8446 196.664 51.7636 191.878 51.3904 187.489C50.9737 182.586 50.6025 177.68 50.256 172.772C49.5482 162.732 49.0245 152.678 48.6256 142.62C47.8446 122.912 48.1108 103.231 47.9624 83.5192C49.6076 83.3648 51.2588 83.2569 52.9119 83.1836C51.3568 104.178 52.022 125.52 52.4012 146.545C52.5942 157.264 52.9248 167.982 53.396 178.693C53.8761 189.588 54.0791 200.635 55.262 211.479C55.3927 212.68 57.2122 212.746 57.1874 211.479C56.9706 200.779 55.9926 190.059 55.5422 179.362C55.0819 168.426 54.7195 157.487 54.4572 146.545C53.9504 125.42 54.6582 104.247 53.9989 83.139C55.5303 83.0875 57.0637 83.0846 58.5971 83.1024C57.8299 103.388 58.9148 123.869 59.2999 144.157C59.6919 164.798 59.8038 185.473 60.5809 206.104C60.6294 207.406 62.6181 207.417 62.6132 206.104C62.529 185.458 61.7787 164.797 61.3114 144.157C60.8511 123.868 61.0788 103.357 59.4702 83.1182C61.0204 83.1499 62.5706 83.2232 64.1198 83.3242C62.7617 104.054 63.8021 125.174 64.6316 145.9C65.4899 167.323 66.8233 188.78 69.015 210.111C69.1516 211.438 71.2334 211.469 71.1185 210.111C69.3011 188.725 67.7004 167.348 66.7768 145.9C65.8799 125.086 66.2719 104.199 65.2889 83.4023C66.8164 83.5191 68.3418 83.6736 69.8633 83.8587C69.5753 104.738 70.2019 125.658 70.8245 146.526C71.463 167.94 72.154 189.413 73.7121 210.783C73.8062 212.073 75.7929 212.102 75.7444 210.783C74.9426 189.359 73.7359 167.952 72.9796 146.526C72.2441 125.7 71.9857 104.86 71.2611 84.0349C72.8856 84.2547 74.5051 84.516 76.1186 84.814C75.4673 89.2429 75.5306 93.8658 75.3891 98.3135C75.2188 103.67 75.0891 109.027 75.0109 114.387C74.8535 125.104 74.8545 135.822 75.0208 146.538C75.3524 167.972 76.3285 189.391 77.8737 210.771C77.9698 212.106 80.0615 212.117 79.9654 210.771C78.4519 189.613 77.5075 168.418 77.1343 147.208C76.9492 136.715 76.8957 126.22 76.9759 115.726C77.0165 110.369 77.0868 105.01 77.1858 99.6529C77.2748 94.8508 77.6926 89.8715 77.3531 85.0545C78.7142 85.3238 80.0714 85.6128 81.4206 85.9385C83.9469 86.5483 86.4534 87.2511 88.942 88.0243C88.255 92.4848 88.3065 97.1602 88.1214 101.644C87.9006 107 87.7403 112.359 87.6245 117.72C87.3928 128.44 87.3443 139.162 87.4789 149.882C87.6136 160.602 87.9204 171.321 88.3976 182.031C88.8727 192.689 89.1064 203.543 90.4378 214.133C90.5942 215.374 92.483 215.462 92.4464 214.133C92.1474 203.436 91.0377 192.727 90.5437 182.031C90.0597 171.544 89.7389 161.05 89.5825 150.553C89.4261 140.056 89.4231 129.556 89.5706 119.06C89.6459 113.701 89.7686 108.341 89.9092 102.984C90.0359 98.2016 90.5289 93.2411 90.2725 88.4391C91.7673 88.9212 93.2531 89.4389 94.7331 89.9764C93.7055 100.114 93.7342 110.406 93.5749 120.584C93.4056 131.357 93.3907 142.135 93.4877 152.91C93.6818 174.463 94.3826 196.01 95.82 217.518C95.9101 218.865 98.0018 218.885 97.9354 217.518C96.8772 195.995 96.0526 174.457 95.7557 152.91C95.6072 142.134 95.5992 131.359 95.6903 120.584C95.7745 110.549 96.2823 100.463 95.9715 90.4288C98.6126 91.4187 101.226 92.4977 103.811 93.654C103.389 113.036 103.854 132.482 104.046 151.864C104.243 171.714 104.106 191.619 104.814 211.457C104.866 212.898 107.048 212.908 107.061 211.457C107.239 191.607 106.568 171.712 106.233 151.864C105.908 132.649 105.849 113.363 104.931 94.1638C106.29 94.7864 107.641 95.4348 108.983 96.1001C108.61 99.9439 108.822 103.932 108.814 107.744C108.804 112.683 108.785 117.622 108.785 122.56C108.785 132.661 108.79 142.763 108.828 152.864C108.864 162.741 108.904 172.619 108.941 182.495C108.96 187.434 108.974 192.373 109 197.311C109.026 202.252 108.583 207.478 109.327 212.364C109.456 213.211 110.924 213.219 111.046 212.364C111.712 207.687 111.253 202.706 111.235 197.985C111.216 193.047 111.183 188.108 111.155 183.17C111.097 173.068 111.042 162.967 110.984 152.865C110.926 142.989 110.833 133.111 110.744 123.235C110.699 118.296 110.634 113.357 110.577 108.42C110.533 104.621 110.712 100.65 110.366 96.8088C111.631 97.4533 112.887 98.1175 114.135 98.7976C113.626 108.242 114.102 117.835 114.265 127.28C114.439 137.388 114.749 147.496 115.122 157.599C115.488 167.478 115.969 177.354 116.521 187.223C116.797 192.159 117.099 197.093 117.427 202.025C117.733 206.632 117.378 211.946 118.768 216.357C118.982 217.036 120.161 217.179 120.292 216.357C120.989 211.982 120.001 207.116 119.714 202.699C119.394 197.766 119.089 192.831 118.8 187.896C118.208 177.801 117.714 167.701 117.271 157.599C116.837 147.719 116.505 137.838 116.216 127.954C115.94 118.523 116.115 108.991 115.508 99.5697C117.237 100.536 118.944 101.549 120.639 102.581C119.165 120.92 119.543 139.535 119.962 157.907C120.394 176.815 120.806 195.966 122.82 214.783C122.864 215.186 123.082 215.471 123.364 215.636C123.455 216.928 123.562 218.216 123.692 219.5C123.826 220.821 125.774 220.882 125.796 219.5C125.947 209.921 125.175 200.278 125.034 190.693C124.892 181.088 124.887 171.479 125.03 161.874C125.303 143.487 126.299 125.146 127.176 106.783C128.243 107.505 129.299 108.242 130.349 108.989C128.999 118.187 128.571 127.623 128.049 136.885C127.485 146.877 127.159 156.879 127.065 166.886C126.971 176.892 127.094 186.898 127.462 196.899C127.819 206.623 127.742 216.81 129.371 226.416C129.529 227.342 130.958 227.09 130.97 226.199C131.099 216.482 129.834 206.625 129.498 196.899C129.153 186.899 128.998 176.891 129.065 166.886C129.132 157.105 129.394 147.321 129.848 137.55C130.277 128.327 131.216 119.103 131.59 109.879C132.894 110.823 134.183 111.789 135.462 112.769C134.066 129.695 134.626 146.993 134.868 163.941C135.121 181.531 135.408 199.308 137.036 216.832C137.152 218.081 139.068 218.127 139.021 216.832C138.375 199.193 137.151 181.594 136.739 163.941C136.348 147.175 137.024 130.352 136.536 113.596C137.66 114.471 138.767 115.365 139.868 116.266C139.86 116.299 139.846 116.33 139.844 116.369C139.006 134.11 139.579 151.984 140.425 169.713C140.838 178.374 141.403 187.026 142.105 195.669C142.464 200.101 142.858 204.53 143.287 208.956C143.502 211.188 142.952 215.547 145.233 216.82C145.471 216.952 145.839 216.995 146.072 216.82C146.636 216.399 146.794 216.219 146.754 215.483C146.737 215.168 146.533 214.819 146.197 214.751C146.104 214.732 146.011 214.713 145.918 214.694C145.685 214.648 145.493 214.688 145.347 214.78C145.553 213.683 145.823 212.936 145.693 211.61C145.607 210.725 145.517 209.84 145.429 208.955C145.231 206.963 145.039 204.971 144.855 202.978C144.466 198.77 144.108 194.56 143.782 190.347C143.145 182.144 142.609 173.93 142.183 165.713C141.342 149.478 141.216 133.242 140.76 116.996C141.459 117.575 142.145 118.167 142.834 118.757C142.345 120.456 142.639 122.399 142.745 124.223C142.993 128.471 143.298 132.717 143.593 136.963C144.198 145.681 144.845 154.398 145.5 163.114C146.139 171.607 146.782 180.101 147.423 188.594C148.06 197.031 147.94 205.996 149.622 214.29C149.811 215.224 151.18 214.956 151.221 214.075C151.589 206.148 150.193 197.844 149.572 189.935C148.922 181.666 148.273 173.396 147.623 165.126C146.992 157.078 146.329 149.033 145.676 140.987C145.35 136.963 145 132.94 144.656 128.918C144.419 126.151 143.569 122.636 143.809 119.587C145.458 121.015 147.073 122.476 148.665 123.958C148.441 139.398 148.927 154.868 149.448 170.296C149.71 178.055 150.061 185.812 150.453 193.566C150.654 197.555 150.861 201.542 151.097 205.528C151.319 209.286 151.172 213.385 152.126 217.038C152.377 218.001 153.63 217.683 153.736 216.821C154.212 212.959 153.511 208.748 153.277 204.863C153.049 201.098 152.824 197.333 152.614 193.566C152.17 185.591 151.789 177.611 151.423 169.631C150.739 154.754 150.397 139.862 149.762 124.985C151.429 126.562 153.049 128.173 154.648 129.802C154.726 144.164 156.137 158.625 156.955 172.95C157.38 180.371 157.822 187.791 158.264 195.211C158.478 198.808 158.693 202.405 158.907 206.004C159.12 209.595 158.923 213.527 159.879 217.01C160.073 217.716 161.31 217.829 161.426 217.01C161.902 213.633 161.307 210.069 161.081 206.679C160.842 203.082 160.602 199.483 160.363 195.886C159.854 188.241 159.345 180.596 158.817 172.951C157.856 159.024 157.426 144.902 155.822 131.015C157.623 132.883 159.377 134.781 161.086 136.704C160.561 148.72 161.538 160.987 161.817 172.959C161.974 179.715 162.138 186.471 162.311 193.226C162.472 199.501 161.977 206.175 163.038 212.358C163.207 213.339 164.542 212.974 164.637 212.142C165.39 205.584 164.442 198.482 164.245 191.876C164.05 185.345 163.842 178.815 163.632 172.285C163.271 161.073 163.505 149.568 162.521 138.328C163.219 139.133 163.909 139.943 164.589 140.757C167.026 143.681 169.349 146.731 171.509 149.892C171.561 161.577 172.274 173.304 172.777 184.971C173.045 191.159 173.292 197.349 173.58 203.536C173.769 207.608 173.514 212.282 176.59 215.381C177.205 216 178.202 215.213 177.784 214.46C175.11 209.628 175.629 203.59 175.33 198.232C175.022 192.706 174.715 187.182 174.407 181.656C173.846 171.595 173.43 161.47 172.536 151.424C174.211 153.968 175.765 156.587 177.188 159.267C177.377 169.389 178.495 179.545 179.132 189.643C179.465 194.947 179.783 200.252 180.076 205.558C180.337 210.283 179.842 215.814 181.211 220.351C181.407 221 182.476 221.092 182.621 220.351C183.537 215.692 182.481 210.28 182.189 205.558C181.848 200.03 181.471 194.504 181.052 188.98C180.377 180.083 179.894 171.046 178.665 162.178C183.162 171.468 185.926 181.489 185.82 192.044C185.803 193.804 188.521 193.803 188.554 192.044C188.772 180.284 185.654 169.215 180.446 158.956C190.114 171.004 201.346 182.258 213.714 191.301C220.559 196.305 227.922 200.601 235.771 203.828C239.623 205.412 243.583 206.739 247.628 207.732C250.812 208.514 254.874 209.955 257.822 207.902C258.721 207.277 258.197 205.53 257.016 205.991C253.436 207.391 248.542 205.49 244.997 204.456C240.917 203.266 236.933 201.754 233.077 199.968C225.994 196.689 219.315 192.577 213.072 187.899C199.921 178.046 189.453 165.713 178.239 153.878C195.242 161.477 210.36 171.892 225.647 182.49C233.509 187.941 241.413 193.343 249.702 198.132C251.86 199.379 265.092 207.555 269.307 207.13C269.511 207.313 269.713 207.497 269.919 207.677C270.683 208.347 272.134 207.431 271.431 206.511C271.273 206.306 271.105 206.106 270.946 205.902C271.792 205.512 272.19 204.109 271.157 203.403C266.402 200.15 265.17 194.216 263.701 189.005C262.439 184.528 260.758 180.229 258.436 176.187C256.458 172.746 254.089 169.539 251.422 166.601C252.203 166.883 252.975 167.159 253.635 167.499C255.813 168.621 257.896 169.92 259.898 171.33C268.355 177.282 275.29 185.091 283.489 191.369C291.771 197.71 301.169 202.572 311.11 205.725C316.194 207.337 321.414 208.49 326.699 209.198C331.648 209.862 337.139 210.546 342.095 209.74C343.308 209.543 342.875 207.847 341.825 207.744C337.285 207.297 332.702 207.572 328.144 207.032C323.335 206.464 318.57 205.473 313.919 204.128C305.049 201.561 296.585 197.651 288.912 192.511C281.575 187.596 275.328 181.373 268.595 175.708C265.561 173.157 262.425 170.701 259.067 168.592C258.923 168.502 258.778 168.416 258.634 168.328C259.516 168.705 260.399 169.081 261.272 169.479C265.635 171.468 269.91 173.639 274.12 175.932C282.4 180.441 290.443 185.369 298.682 189.949C314.474 198.728 332.198 207.011 350.67 206.724C352.073 206.703 352.065 204.611 350.67 204.55C331.013 203.685 313.578 195.771 296.665 186.259C288.623 181.736 280.69 177.012 272.488 172.779C270.245 171.621 267.98 170.507 265.692 169.443C279.97 173.446 294.437 176.868 308.515 181.522C317.445 184.475 326.262 187.851 334.614 192.202C342.873 196.507 349.831 202.071 357.21 207.657C358.049 208.292 358.891 206.982 358.275 206.276C352.426 199.555 344.072 194.578 336.259 190.483C328.088 186.2 319.461 182.809 310.706 179.926C301.61 176.932 292.362 174.43 283.119 171.943C272.04 168.961 260.894 165.582 249.633 163.374C249.355 163.319 249.147 163.438 249.034 163.616C248.87 163.476 248.724 163.326 248.604 163.163C248.781 163.405 249.267 163.273 249.136 162.939C249.104 162.858 249.072 162.778 249.041 162.697C251.312 163.209 253.588 163.542 255.87 163.734C272.575 167.43 290.303 166.145 306.975 170.548C316.871 173.161 326.311 177.373 334.905 182.928C339.311 185.775 343.478 188.973 347.369 192.492C351.201 195.958 354.308 200.161 358.106 203.605C358.869 204.297 360.107 203.421 359.561 202.482C357.103 198.248 352.935 194.553 349.337 191.276C345.851 188.1 342.126 185.176 338.224 182.527C329.767 176.781 320.406 172.337 310.601 169.435C296.393 165.231 281.435 165.322 266.792 163.739C280.621 162.783 294.579 158.936 308.448 160.621C311.685 161.014 314.867 161.665 317.975 162.544C318.097 162.771 318.221 162.998 318.344 163.223C318.864 164.185 319.972 163.981 320.497 163.316C335.25 168.155 348.072 178.28 356.313 191.559C357.178 192.952 359.363 191.69 358.519 190.269C353.258 181.422 345.845 173.956 337.195 168.404C344.415 171.577 351.551 174.901 358.506 178.646C366.546 182.977 374.251 187.88 382.091 192.555C395.964 200.826 412.202 209.606 428.915 208.512C430.348 208.418 430.372 206.311 428.915 206.266C420.226 206.003 412.15 204.479 404.051 201.259C395.909 198.021 388.281 193.633 380.738 189.211C365.429 180.237 350.026 171.541 333.156 165.796C333.044 165.759 332.943 165.782 332.86 165.838C332.206 165.481 331.547 165.134 330.88 164.798C339.222 166.555 347.591 168.084 355.855 170.26C365.388 172.768 374.809 175.703 384.064 179.101C393.415 182.534 402.607 186.375 411.599 190.664C415.956 192.742 420.267 194.917 424.523 197.197C428.739 199.455 432.962 202.636 437.462 204.228C438.339 204.539 439.045 203.28 438.37 202.669C434.858 199.49 429.864 197.403 425.705 195.175C421.45 192.895 417.142 190.714 412.781 188.643C403.795 184.374 394.585 180.536 385.211 177.203C370.436 171.951 354.785 167.189 339.081 164.585C355.857 165.148 373.177 161.52 389.619 166.275C411.579 172.627 428.91 188.394 445.647 203.189C446.746 204.161 448.364 202.569 447.268 201.567C431.114 186.792 413.531 171.498 392.303 164.732C380.947 161.113 369.28 161.01 357.492 161.721C344.825 162.486 332.108 163.605 319.725 160.185C319.665 160.074 319.606 159.962 319.547 159.851C338.018 164.632 355.999 153.001 374.113 150.923C393.715 148.674 412.35 156.791 425.595 171.01C429.684 175.4 433.517 180.035 437.427 184.585C441.449 189.263 445.311 195.001 450.119 198.869C451.015 199.59 452.451 198.696 451.799 197.574C450.613 195.534 449.101 193.621 447.493 191.769C449.847 189.195 453.376 188.991 456.61 190.056C458.31 190.617 459.896 191.576 461.124 192.884C462.903 194.781 463.028 196.449 462.927 198.894C462.876 200.111 464.471 200.362 465.075 199.476C470.616 191.337 451.822 182.105 446.39 190.521C444.75 188.699 443.058 186.923 441.524 185.141C441.495 185.109 441.467 185.076 441.439 185.042C447.862 181.886 454.977 179.95 462.071 182.196C465.205 183.188 468.1 185.018 470.336 187.428C471.544 188.73 472.581 190.218 473.351 191.821C473.706 192.56 474.003 193.345 474.231 194.133C474.236 194.152 474.48 195.178 474.814 196.163C474.762 196.188 474.711 196.215 474.66 196.249C474.568 196.313 474.476 196.376 474.384 196.44C473.956 196.735 473.71 197.225 473.851 197.748C474.047 198.472 474.244 198.808 474.939 199.102C475.441 199.314 476.143 199.38 476.54 198.895C478.736 196.213 476.367 191.357 474.765 188.809C472.523 185.241 469.138 182.411 465.299 180.706C457.222 177.12 447.546 178.898 440.417 183.851C438.355 181.45 436.294 179.047 434.225 176.653C434.346 176.65 434.472 176.611 434.596 176.522C451.167 164.645 478.897 169.435 487.473 187.599C487.444 187.645 487.412 187.688 487.384 187.734C487.003 188.347 487.503 188.883 488.054 188.913C489.33 192.047 490.053 195.549 490.083 199.408C490.097 201.243 492.92 201.246 492.935 199.408C492.937 199.181 492.929 198.956 492.926 198.73C493.084 198.639 493.207 198.487 493.25 198.267C493.807 195.351 496.263 192.685 499.423 192.779C502.646 192.876 504.579 195.501 505.188 198.397C505.457 199.679 507.5 199.434 507.529 198.166C507.855 198.289 508.286 198.266 508.853 198.042C509.221 197.896 509.452 197.268 508.981 197.065C506.981 196.204 510.405 189.662 510.956 188.611C512.264 186.12 513.915 183.846 515.889 181.84C519.845 177.819 524.841 175.086 530.296 173.704C539.892 171.273 554.127 172.631 557.669 183.646C557.775 183.974 557.96 184.206 558.182 184.358C557.842 184.926 557.514 185.503 557.213 186.095C555.77 188.933 553.272 194.187 556.426 196.608C556.74 196.849 557.144 196.514 557.16 196.187C557.282 193.56 557.361 191.439 558.461 189.01C559.11 187.576 559.887 186.194 560.768 184.889C563.029 181.541 565.996 178.652 569.374 176.444C572.461 174.426 575.872 172.945 579.468 172.111C581.35 171.674 583.265 171.424 585.196 171.383C586.874 171.348 588.562 171.763 590.157 171.186C590.431 171.087 590.617 170.9 590.713 170.683C589.901 172.27 589.183 173.905 588.578 175.576C582.262 174.141 575.048 178.307 571.081 182.946C570.021 184.186 563.353 195.704 567.702 195.625C568.169 195.616 568.465 195.006 568.099 194.667L568.024 194.599C568.011 194.587 567.996 194.582 567.981 194.571C567.633 194.313 569.942 188.808 570.27 188.193C571.391 186.099 572.951 184.201 574.733 182.633C578.706 179.137 582.871 178.356 587.854 177.762C587.224 179.872 586.766 182.028 586.516 184.206C580.914 184.301 575.285 189.717 576.949 195.566C577.18 196.376 578.415 196.219 578.419 195.367C578.441 191.103 581.51 187.065 585.71 186.638C585.826 186.837 586.034 186.973 586.316 186.984C586.311 187.125 586.3 187.267 586.297 187.408C585.999 189.145 585.915 190.885 586.192 192.505C585.99 193.439 585.859 194.4 585.816 195.396C585.795 195.88 586.225 196.154 586.64 196.161C586.804 196.394 587.069 196.546 587.356 196.509C587.488 197.309 588.325 197.992 589.249 197.459C604.716 188.528 621.238 179.693 639.704 180.825C652.562 181.614 665.3 187.687 672.533 198.323C672.844 200.078 673.3 201.827 673.925 203.559C674.119 204.097 674.692 204.194 675.078 203.989C675.258 204.405 675.45 204.819 675.662 205.229C675.967 205.818 676.98 205.41 676.748 204.771C676.667 204.548 676.598 204.327 676.524 204.105C676.63 204.06 676.721 203.99 676.802 203.911C676.97 204.464 677.657 204.819 678.241 204.301C688.477 195.239 699.243 187.844 712.391 183.616C725.116 179.524 738.621 178.57 751.785 180.852C747.783 188.238 745.133 196.345 744.203 204.742C744.04 206.22 746.564 206.574 746.818 205.095C750.159 185.546 760.534 168.019 777.615 157.45C786.089 152.208 795.75 148.822 805.669 147.776C810.86 147.228 816.311 147.056 821.331 148.708C823.486 149.418 825.517 150.457 827.369 151.765C813.156 147 796.78 156.979 787.597 167.593C781.854 174.232 777.538 182.066 774.935 190.447C772.497 198.3 770.736 208.297 772.834 216.412C773.174 217.728 775.16 217.434 775.18 216.094C775.237 212.163 774.765 208.303 775.077 204.355C775.402 200.23 776.185 196.143 777.346 192.173C779.619 184.393 783.456 177.025 788.6 170.756C798.088 159.19 814.448 149.111 829.559 154.315C814.768 152.536 800.58 163.062 793.881 175.844C789.702 183.819 787.745 192.745 787.126 201.678C786.982 203.766 785.441 222.75 791.378 218.922C792.195 218.396 791.949 216.885 790.847 216.963C788.218 217.148 790.405 196.097 790.754 194.076C792.014 186.79 794.429 179.636 798.489 173.416C805.559 162.585 817.896 155.537 830.829 156.075C820.862 159.29 812.159 166.423 806.306 174.987C802.814 180.094 800.326 185.9 798.926 191.921C798.249 194.833 797.818 197.812 797.645 200.797C797.557 202.325 797.537 203.862 797.591 205.391C797.624 206.349 797.69 207.304 797.784 208.258C797.818 208.64 797.862 209.021 797.913 209.401C797.898 209.563 797.911 209.701 797.942 209.825C797.61 209.94 797.358 210.231 797.378 210.717C797.418 211.719 798.204 212.474 799.264 212.225C801.078 211.8 800.548 209.577 800.432 208.258C799.767 200.732 800.776 193.093 803.505 186.039C808.885 172.133 819.992 162.646 833.478 156.985C834.047 156.746 834.146 156.114 833.899 155.722C833.915 155.446 833.784 155.154 833.477 155.07C833.443 155.061 833.411 155.055 833.377 155.046C833.366 154.894 833.296 154.742 833.128 154.628C833.049 154.575 832.969 154.531 832.891 154.48C832.227 151.024 827.151 148.245 824.339 146.953C819.564 144.758 814.188 144.379 809.005 144.626C799.292 145.087 789.682 147.763 781.026 152.197C780.981 152.144 780.936 152.092 780.879 152.044C780.801 151.98 780.721 151.922 780.644 151.858C783.606 150.268 786.198 147.343 788.995 145.541C792.961 142.986 797.206 140.875 801.641 139.266C809.792 136.31 818.018 135.474 826.57 135.847C826.821 136.141 827.209 136.311 827.642 136.172C827.941 136.076 828.241 135.981 828.54 135.885C829.641 135.533 829.907 133.563 828.54 133.375C819.185 132.093 809.236 133.597 800.441 136.928C795.991 138.614 791.723 140.801 787.804 143.503C785.638 144.997 782.725 146.853 780.73 149.074C780.659 148.829 780.597 148.585 780.531 148.339C783.752 139.197 793.243 132.086 801.713 128.457C806.456 126.424 811.542 125.172 816.697 124.856C819.114 124.709 821.544 124.748 823.952 125.006C826.491 125.277 829.01 126.212 831.551 126.233C832.643 126.242 832.996 124.771 832.096 124.218C827.779 121.564 820.597 121.796 815.73 122.212C810.164 122.687 804.703 124.12 799.633 126.468C792.536 129.752 783.287 136.44 779.798 144.555C779.784 144.443 779.767 144.33 779.754 144.218C781.96 134.718 788.728 127.612 797.317 122.23C806.814 116.279 817.39 112.249 828.62 112.402C828.861 112.684 829.242 112.86 829.687 112.779C830.263 112.68 830.836 112.57 831.408 112.449C833.009 112.125 832.47 109.917 831.048 109.784C817.701 108.527 804.416 114.013 793.605 121.474C788.322 125.121 782.965 130.256 779.952 136.252C781.24 128.221 785.748 120.772 792.338 115.494C797.301 111.518 803.215 108.742 809.313 107.023C812.936 106.001 816.656 105.326 820.41 105.036C824.089 104.752 827.783 105.277 831.431 105.004C832.654 104.913 833.003 103.159 831.73 102.799C828.476 101.878 824.779 101.737 821.054 102.042C821.516 101.498 821.456 100.56 820.541 100.258C811.958 97.4295 802.37 96.3663 793.143 96.101C798.301 93.939 803.558 92.3176 809.28 91.8543C812.51 91.5929 815.789 91.6563 819.006 92.0523C822.485 92.4809 826.056 94.2232 829.498 94.2331C830.264 94.2351 830.827 93.152 830.17 92.6106C827.594 90.4882 823.473 90.0447 820.255 89.5844C816.256 89.0123 812.217 88.9499 808.203 89.3973C806.655 89.5696 805.099 89.817 803.552 90.1398C812.179 85.8524 821.261 83.2648 831.251 86.0089C831.025 86.98 832.192 87.961 833.007 87.0789C833.307 86.7542 833.608 86.4285 833.908 86.1038C834.578 85.3782 834.269 84.2814 833.345 83.9735C819.335 79.3031 804.283 85.2159 792.904 93.845C792.857 93.8698 792.812 93.8985 792.765 93.9232C802.831 81.6869 817.915 74.6762 833.792 76.5848C833.888 76.9738 834.197 77.2757 834.742 77.2253C835.513 77.153 836.202 77.0649 836.969 76.9531C838.196 76.7739 838.14 74.7594 836.969 74.5307C819.368 71.0818 799.032 78.9735 790.005 94.8884C789.856 95.1507 789.86 95.3913 789.951 95.5863C789.72 95.7378 789.481 95.8783 789.253 96.0357C789.179 96.0357 789.107 96.0357 789.033 96.0357C793.935 87.361 798.8 79.5942 807.393 74.0506C811.814 71.1987 816.704 69.1614 821.828 67.9774C824.544 67.3498 827.307 66.9687 830.092 66.848C831.697 66.7787 837.986 66.1808 838.88 67.6003C839.55 68.6694 841.365 68.0012 840.974 66.7173ZM624.31 4.39792C667.915 0.0422795 716.535 6.49556 750.167 36.9623C767.095 52.2971 778.878 72.4816 782.11 95.2151C782.177 95.6863 782.475 95.9783 782.852 96.1188C780.197 96.2129 777.544 96.3802 774.897 96.6247C774.909 96.5317 774.918 96.4346 774.914 96.3297C774.257 77.941 765.778 60.7599 753.409 47.3911C739.754 32.6324 721.673 23.0608 702.382 17.8816C681.451 12.2618 659.382 11.4204 637.847 12.8419C617.698 14.1724 597.592 17.745 578.479 24.3408C557.937 31.4306 536.677 42.1148 521.674 58.199C521.606 58.2713 521.558 58.3465 521.518 58.4217C518.605 56.3449 515.271 55.0432 511.818 54.4789C542.085 24.5873 582.338 8.59023 624.31 4.39792ZM711.328 123.071C711.245 122.529 711.13 122.001 710.941 121.524C710.654 120.799 709.552 120.857 709.529 121.715C709.505 122.643 709.74 123.634 709.98 124.592C708.683 126.107 707.462 127.694 706.338 129.366C703.618 133.408 701.47 137.932 700.382 142.694C700.239 143.321 699.952 145.62 700.437 146.901C700.445 147.014 700.445 147.127 700.456 147.24C691.81 142.031 681.948 138.747 671.83 137.206C671.84 137.139 671.846 137.069 671.831 136.991C671.454 134.959 671.873 133.148 672.093 131.14C672.16 130.527 671.208 130.303 670.941 130.828C669.984 132.712 670.143 135.017 670.634 137.036C669.495 136.879 668.353 136.736 667.209 136.621C667.257 136.485 667.253 136.325 667.167 136.16C665.717 133.377 665.951 130.852 666.549 127.894C666.572 127.782 666.558 127.678 666.53 127.579C666.776 127.596 667.028 127.485 667.081 127.206C667.709 123.847 668.059 120.231 667.185 116.885C667.015 116.235 665.964 116.354 665.995 117.047C666.147 120.436 666.471 123.672 666.03 127.063C665.763 126.974 665.464 127.034 665.3 127.368C663.887 130.233 664.521 133.803 666.029 136.511C664.518 136.38 663.004 136.281 661.491 136.225C662.783 133.997 662.534 130.582 662.341 128.241C662.015 124.292 660.831 120.431 658.864 116.99C657.149 113.99 654.851 111.458 652.168 109.435C652.35 109.368 652.496 109.218 652.483 108.995C652.306 105.792 652.758 102.759 653.068 99.5885C653.142 98.8292 651.975 98.7223 651.772 99.4133C650.878 102.46 651.035 105.837 651.49 108.951C648.119 106.571 644.193 104.962 640.062 104.222C639.613 102.057 639.544 99.8251 639.761 97.6275C639.816 97.0653 638.875 96.9346 638.769 97.4939C638.337 99.7638 638.505 101.917 639.234 104.087C635.317 103.497 631.421 103.664 627.664 104.463C628.426 101.798 623.875 97.5562 620.996 95.2537C619.961 91.9721 620.201 89.0043 620.416 85.602C620.451 85.0288 619.646 84.9931 619.47 85.4743C618.434 88.3123 618.896 91.5781 619.921 94.4232C619.608 94.1895 619.342 93.9994 619.145 93.8658C613.214 89.8408 605.83 87.8649 598.683 88.4302C591.507 88.9974 584.721 91.984 579.216 96.5762C576.324 98.9906 572.112 103.014 570.709 107.252C569.271 103.59 566.633 100.138 563.709 97.3939C564.436 94.9349 564.907 91.8474 564.076 89.43C563.847 88.7668 562.949 88.9112 562.885 89.5913C562.768 90.8416 562.931 92.1018 562.91 93.358C562.894 94.3954 562.785 95.412 562.639 96.4307C561.472 95.4259 560.277 94.5379 559.11 93.8014C555.143 91.2999 550.62 89.7943 545.969 89.1478C546.027 89.038 546.048 88.9093 545.999 88.7677C545.594 87.6175 545.369 86.4572 545.414 85.2317C545.457 84.0003 545.866 82.9143 546.076 81.7175C546.201 81.0048 545.298 80.5603 544.881 81.2136C543.444 83.4687 543.922 86.6552 544.902 89.0132C541.793 88.6697 538.643 88.7014 535.575 89.0776C532.49 89.4547 529.429 90.1744 526.504 91.2415C533.257 81.9204 532.089 67.6735 523.391 59.9136C523.216 59.7572 523.035 59.6077 522.855 59.4572C522.87 59.4463 522.885 59.4394 522.9 59.4285C525.889 57.0329 528.898 54.7096 531.94 52.4654C531.622 54.6957 531.966 57.2536 532.097 59.4532C532.147 60.2778 533.332 60.2798 533.38 59.4532C533.523 57.0616 533.927 54.2443 533.448 51.8913C533.417 51.7339 533.33 51.6171 533.221 51.5299C536.742 48.967 540.314 46.5189 543.957 44.1946C543.896 44.947 543.992 45.732 544.016 46.4724C544.054 47.6742 544.093 48.8759 544.132 50.0777C544.158 50.9261 545.423 50.928 545.45 50.0777C545.489 48.8759 545.527 47.6742 545.566 46.4724C545.6 45.4113 545.787 44.2778 545.443 43.2622C548.472 41.3694 551.551 39.5588 554.695 37.8473C554.744 39.0223 555.001 40.233 555.151 41.3694C555.336 42.7572 555.527 44.1432 555.746 45.5261C555.843 46.1379 556.838 45.9883 556.82 45.3805C556.74 42.7503 556.939 39.5886 556.276 36.99C559.252 35.4141 562.282 33.9163 565.388 32.5225C565.377 32.572 565.356 32.6165 565.355 32.671C565.279 35.7516 565.939 38.9728 566.298 42.0327C566.399 42.8909 567.728 42.9355 567.676 42.0327C567.496 38.8907 567.576 35.5427 566.954 32.4542C566.908 32.2225 566.785 32.0652 566.626 31.9721C568.587 31.1138 570.571 30.2892 572.592 29.5082C573.5 29.1568 574.416 28.8241 575.33 28.4876C575.304 29.128 575.36 29.7873 575.372 30.4001C575.397 31.6019 575.404 32.8066 575.472 34.0054C575.531 35.0211 576.995 35.023 577.052 34.0054C577.121 32.8056 577.128 31.6009 577.152 30.4001C577.169 29.5636 577.268 28.6628 577.132 27.8254C581.219 26.3662 585.354 25.0437 589.528 23.8587C589.549 24.3824 589.58 24.908 589.564 25.4297C589.516 26.9096 589.33 28.3648 589.006 29.8091C588.799 30.7317 590.162 31.1168 590.426 30.2011C590.996 28.2233 591.644 25.604 591.35 23.3618C596.539 21.9403 601.782 20.7098 607.065 19.6803C606.805 21.9185 607.177 24.4171 607.228 26.6404C607.243 27.2898 608.223 27.2908 608.238 26.6404C608.291 24.3339 608.689 21.7314 608.369 19.4328C615.221 18.14 622.13 17.1599 629.058 16.4739C628.887 17.3045 628.887 18.1984 628.811 19.0259C628.7 20.2257 628.589 21.4245 628.479 22.6243C628.407 23.3954 629.734 23.5865 629.844 22.8094C630.012 21.6176 630.18 20.4257 630.349 19.2338C630.482 18.2835 630.741 17.2847 630.703 16.3205C643.209 15.1494 656.287 14.7079 669.292 15.5345C669.161 16.4829 669.384 17.4945 669.364 18.4558C669.338 19.8209 669.117 21.1523 668.837 22.4867C668.661 23.3222 669.858 23.6608 670.12 22.8401C670.545 21.5037 670.782 20.1218 670.875 18.722C670.94 17.7301 671.043 16.6066 670.751 15.6335C675.396 15.9631 680.027 16.4631 684.617 17.1481C684.509 17.9796 684.609 18.8606 684.63 19.6862C684.66 20.887 684.661 22.0937 684.746 23.2915C684.805 24.1399 686.005 24.1409 686.064 23.2915C686.148 22.0937 686.15 20.887 686.18 19.6862C686.199 18.9349 686.282 18.1499 686.219 17.3926C699.83 19.5625 713.039 23.442 725.073 29.6923C724.679 30.51 724.848 31.3643 724.887 32.2552C724.932 33.2847 724.977 34.3152 725.023 35.3447C724.698 35.2962 724.341 35.4517 724.235 35.8288C723.938 36.8821 724.075 38.0205 724.095 39.1054C724.117 40.3082 724.166 41.509 724.211 42.7108C724.243 43.6126 725.58 43.6146 725.612 42.7108C725.657 41.509 725.706 40.3082 725.728 39.1054C725.748 38.0334 725.879 36.9237 725.6 35.8813C725.865 35.8734 726.124 35.6962 726.139 35.3447C726.185 34.3142 726.229 33.2848 726.275 32.2543C726.303 31.594 726.403 30.9535 726.293 30.3328C730.897 32.8016 735.318 35.6348 739.522 38.8521C739.524 39.545 739.619 40.2449 739.599 40.9408C739.564 42.1712 739.387 43.377 739.08 44.5698C738.839 45.5073 740.23 45.8824 740.524 44.9677C740.943 43.663 741.396 41.9406 741.405 40.334C742.513 41.2279 743.61 42.1415 744.685 43.0938C747.877 45.922 750.865 48.972 753.613 52.208C753.254 52.2021 752.897 52.5258 752.985 52.9703C753.271 54.4126 753.88 55.7707 754.189 57.215C754.536 58.8286 754.755 60.4808 754.767 62.13C754.77 62.5141 755.306 62.4933 755.349 62.13C755.679 59.3266 755.762 55.9599 754.523 53.298C764.544 65.4977 771.124 80.296 771.949 96.3297C771.961 96.5515 772.013 96.7445 772.093 96.9148C765.536 97.6562 759.03 98.856 752.658 100.545C737.639 104.53 722.057 111.434 711.328 123.071ZM689.239 158.108C670.803 145.942 646.481 147.018 626.018 152.642C615.581 155.511 605.125 159.906 597.282 167.582C595.128 169.69 593.202 172.034 591.564 174.563C596.671 163.084 606.975 153.953 618.559 147.988C635.286 139.374 655.01 136.687 673.476 140.164C683.954 142.137 693.46 146.214 702.562 151.679C702.685 151.752 702.804 151.798 702.922 151.83C698.144 154.156 693.582 156.89 689.486 160.141C689.966 159.586 690.039 158.635 689.239 158.108ZM557.287 149.856C557.308 150.026 557.377 150.16 557.46 150.277C554.339 151.088 551.327 152.34 548.562 153.985C542.516 147.125 548.187 137.665 555.535 134.735C561.29 132.44 571.06 131.49 576.095 136.168C575.175 136.199 574.989 137.493 575.645 138.025C574.311 139.264 573.046 140.576 571.864 141.962C569.621 139.637 565.173 139.461 562.433 140.691C558.937 142.262 556.803 146.065 557.287 149.856ZM518.05 132.4C511.885 128.951 503.694 129.657 498.309 134.212C497.539 133.107 496.732 132.08 495.912 131.182C494.829 129.997 493.652 128.9 492.403 127.885C503.314 120.055 518.684 119.35 529.684 127.519C538.255 133.884 547.733 150.458 539.088 159.73C537.55 157.889 535.841 156.247 534.217 154.96C531.973 153.182 529.474 151.775 526.821 150.793C529.216 144.107 523.712 135.568 518.05 132.4ZM512.113 144.432C509.428 141.946 505.68 141.762 502.729 143.435C501.962 140.608 500.65 137.84 499.108 135.406C504.449 132.057 511.171 131.119 516.844 134.463C519.495 136.025 521.612 138.443 522.978 141.188C524.44 144.127 524.344 146.988 524.659 150.095C522.449 149.489 520.156 149.17 517.831 149.178C516.774 149.181 515.729 149.269 514.694 149.406C514.92 147.68 513.232 145.468 512.113 144.432ZM511.801 149.969C508.927 150.716 506.209 151.981 503.791 153.751C503.592 153.207 503.316 152.702 502.99 152.226C503.621 149.928 503.581 147.445 503.091 144.966C504.573 144.159 506.287 143.882 507.991 144.384C509.503 144.83 512.07 146.653 512.334 148.548C512.137 148.659 511.965 148.847 511.861 149.132C511.833 149.211 511.803 149.29 511.774 149.37C511.7 149.569 511.727 149.776 511.801 149.969ZM486.164 136.327C482.928 133.111 478.699 131.1 474.192 130.467C464.273 129.077 454.593 134.038 448.879 142.006C446.355 141.322 443.752 140.929 441.134 140.84C440.994 140.34 440.804 139.847 440.591 139.357C447.29 127.114 460.936 120.297 474.877 122.759C481.792 123.98 488.425 127.225 493.348 132.278C496.073 135.075 498.193 138.415 499.399 142.138C500.231 144.705 500.305 147.221 500.465 149.774C498.548 148.471 496.19 147.669 494.154 147.387C493.18 147.252 492.184 147.169 491.179 147.108C491.655 143.141 488.863 139.009 486.164 136.327ZM468.421 141.233C464.334 141.015 460.897 143.457 459.083 146.871C457.76 145.906 456.406 145.084 455.172 144.442C453.705 143.679 452.18 143.049 450.617 142.529C455.993 136.213 463.992 132.064 472.456 132.822C476.928 133.223 481.116 134.987 484.303 138.188C486.911 140.809 487.744 143.869 489.242 147.031C484.883 146.968 480.387 147.544 476.338 148.674C476.329 148.677 476.32 148.68 476.311 148.682C476.428 144.659 472.218 141.436 468.421 141.233ZM474.2 149.376C471.112 150.513 468.057 152.231 465.483 154.441C464.553 151.862 462.454 149.54 460.113 147.66C462.037 145.466 464.584 143.518 467.535 143.495C471.232 143.469 473.326 146.13 474.2 149.376ZM430.354 125.603C430.685 126.888 431.087 128.243 431.594 129.571C430.315 128.687 429.043 127.914 427.866 127.281C422.212 124.239 415.715 122.763 409.316 123.378C408.363 121.359 408.639 118.767 410.397 117.252C411.261 116.506 412.405 116.146 413.537 116.146C414.683 116.145 415.52 116.726 416.56 116.958C416.527 117.52 416.507 118.084 416.516 118.649C416.545 120.443 416.454 123.45 418.746 123.818C419.641 123.961 420.036 122.699 419.129 122.431C417.122 121.84 418.785 115.089 419.136 113.753C419.866 110.968 421.074 108.295 422.696 105.913C426.007 101.055 430.928 97.4642 436.413 95.422C441.363 93.5787 446.759 92.8828 452.013 93.4748C454.663 93.7738 457.304 94.4113 459.783 95.4012C461.279 95.9991 462.728 96.7395 464.087 97.6067C464.867 98.0997 465.615 98.6382 466.331 99.2223C466.698 99.7459 467.132 99.9934 467.625 99.9835C467.327 100.45 467.486 101.017 467.814 101.408C468.053 101.694 468.29 101.852 468.551 101.928C466.873 103.222 465.302 104.631 463.912 106.146C460.115 102.675 453.405 102.081 448.571 102.642C443.123 103.275 437.797 105.638 433.924 109.568C432.006 111.512 430.202 113.949 429.502 116.622C428.734 119.548 429.621 122.755 430.354 125.603ZM407.74 123.578C405.568 123.907 403.444 124.471 401.401 125.246C399.297 122.362 396.568 120.191 393.479 118.636C393.787 117.826 394.18 116.866 394.326 116.627C394.975 115.566 395.717 114.559 396.549 113.635C398.148 111.859 400.08 110.361 402.214 109.283C407.481 106.622 412.777 107.141 418.224 108.791C418.316 108.819 418.404 108.827 418.49 108.828C417.684 110.728 417.101 112.715 416.786 114.746C414.672 113.295 410.888 114.21 409.184 115.711C406.98 117.657 406.457 120.999 407.74 123.578ZM391.643 117.797C388.475 116.502 384.999 115.806 381.46 115.607C382.608 105.851 390.398 98.8035 399.339 95.6031C404.258 93.842 409.677 92.867 414.858 93.9361C419.07 94.8063 421.906 97.1009 425.279 99.3123C422.841 101.543 420.784 104.175 419.263 107.16C419.192 107.083 419.106 107.012 418.997 106.956C412.596 103.689 404.305 104.811 398.611 109.016C397.019 110.191 392.586 114.441 391.643 117.797ZM510.13 102.183C510.216 102.288 510.302 102.393 510.387 102.499C510.491 102.627 510.654 102.715 510.83 102.761C508.702 105.617 506.901 108.905 505.76 112.347C502.426 107.185 493.584 105.318 488.261 106.091C480.479 107.221 474.094 112.898 470.686 119.799C466.916 119.669 463.179 120.143 459.631 121.164C459.741 109.472 471.793 101.453 481.653 97.4374C486.335 95.5299 491.401 94.4687 496.465 94.9735C500.84 95.4091 507.148 97.3236 509.956 101.2C509.84 101.498 509.868 101.861 510.13 102.183ZM533.19 115.899C530.753 116.2 528.159 117.307 526.867 119.497C526.297 120.463 526.014 121.518 526.15 122.474C523.51 121.227 520.728 120.362 517.892 119.865C517.902 119.822 517.922 119.786 517.926 119.738C518.677 110.989 531.009 105.486 538.684 105.196C542.394 105.057 546.093 106.103 549.102 108.298C552.227 110.577 553.219 113.333 554.564 116.574C551.192 118.286 548.027 120.422 545.369 123.007C544.726 118.002 537.503 115.367 533.19 115.899ZM543.993 124.436C541.716 126.966 539.914 129.875 538.817 133.175C537.095 130.763 535.071 128.569 532.798 126.69C531.403 125.536 529.928 124.527 528.398 123.648C526.348 121.505 529.966 118.97 531.765 118.441C533.417 117.953 535.195 118.007 536.854 118.432C540.409 119.342 541.547 121.78 543.763 124.253C543.831 124.332 543.91 124.392 543.993 124.436ZM551.161 106.603C547.288 103.572 542.441 102.299 537.566 102.751C529.564 103.493 515.947 109.966 516.451 119.645C513.047 119.203 509.584 119.293 506.204 119.901C507.76 113.044 509.944 106.902 515.011 101.643C520.503 95.9417 527.952 92.6987 535.756 91.7513C542.956 90.8772 550.531 91.9503 556.864 95.617C560.321 97.6186 563.285 100.405 565.493 103.734C567.238 106.365 568.015 109.246 569.142 112.076C567.221 112.236 565.282 112.595 563.32 113.155C561.195 113.762 559.057 114.524 556.969 115.439C556.567 111.974 553.723 108.607 551.161 106.603ZM490.094 116.842C486.672 116.949 483.65 119.095 482.216 122.118C479.871 121.243 477.448 120.591 475 120.206C474.144 120.071 473.287 119.97 472.43 119.899C476.067 114.561 480.995 109.962 487.53 108.633C490.792 107.97 494.26 108.287 497.359 109.504C500.799 110.855 502.383 113.27 504.903 115.575C504.592 117.135 504.423 118.707 504.445 120.266C502.452 120.735 500.501 121.398 498.613 122.234C497.788 118.793 493.377 116.739 490.094 116.842ZM496.695 123.162C494.724 124.193 492.837 125.42 491.083 126.869C488.814 125.203 486.333 123.815 483.734 122.715C485.352 120.338 487.772 118.738 490.814 119.088C493.699 119.418 494.94 121.293 496.695 123.162ZM432.467 115.591C433.601 113.248 435.492 111.241 437.526 109.652C441.176 106.8 445.728 105.193 450.345 104.963C455.043 104.728 458.316 106.337 462.458 107.85C460.363 110.517 458.84 113.468 458.23 116.658C455.506 113.783 449.404 114.282 446.842 116.887C443.925 119.854 444.146 125.114 447.578 127.457C444.48 130 441.852 133.138 439.888 136.806C439.33 136.456 438.813 136.082 438.336 135.687C437.593 134.75 436.754 133.854 435.859 133.006C434.234 130.709 433.293 127.98 432.59 124.988C431.858 121.885 431.006 118.605 432.467 115.591ZM458.041 121.662C454.688 122.803 451.537 124.451 448.72 126.559C446.3 124.499 446.159 120.256 448.695 118.208C450.026 117.134 451.775 116.827 453.436 117.095C455.209 117.382 456.364 118.475 457.927 119.192C457.933 119.195 457.939 119.195 457.945 119.198C457.918 120.007 457.944 120.827 458.041 121.662ZM540.052 135.026C543.472 125.403 552.821 119.234 562.253 116.217C568.917 114.085 575.223 113.891 581.56 117.167C586.635 119.791 590.869 123.435 594.215 127.97C588.639 129.232 583.395 131.836 578.856 135.303C573.072 128.428 560.276 129.467 553.033 133.054C548.566 135.265 545.043 139.895 544.151 144.732C543.32 141.311 541.914 138.026 540.052 135.026ZM649.96 125.699C647.029 121.046 642.133 117.712 636.705 116.789C627.121 115.16 617.287 120.317 613.07 128.935C609.396 127.696 605.524 127.099 601.652 127.128C609.514 115.782 620.028 105.799 634.83 106.105C641.806 106.25 648.796 108.824 653.59 114.015C656.088 116.719 657.899 120.049 658.916 123.583C659.163 124.442 660.401 135.541 659.352 135.303C658.688 135.151 658.127 135.62 657.962 136.169C656.123 136.172 654.288 136.22 652.465 136.333C653.75 133.46 651.167 127.614 649.96 125.699ZM649.488 136.562C648.592 136.647 647.696 136.734 646.807 136.845C644.031 137.193 641.236 137.68 638.446 138.293C638.848 133.692 635.539 129.026 630.77 128.544C626.995 128.163 623.703 130.474 622.21 133.71C620.146 132.156 617.888 130.869 615.505 129.856C615.204 129.729 614.901 129.608 614.597 129.489C618.375 122.947 625.578 118.638 633.232 118.723C637.755 118.773 642.09 120.571 645.329 123.73C646.852 125.215 648.083 126.954 648.931 128.902C649.407 129.995 650.707 133.528 650.238 135.227C649.901 135.333 649.595 135.578 649.524 135.937C649.478 136.178 649.47 136.376 649.488 136.562ZM636.396 138.77C633.769 139.411 631.153 140.162 628.573 141.04C628.164 138.716 625.641 136.615 624.007 135.172C623.813 135.001 623.612 134.837 623.414 134.67C624.719 131.983 627.508 130.029 630.635 130.515C634.421 131.104 636.726 134.718 636.363 138.392C636.349 138.534 636.364 138.658 636.396 138.77ZM596.749 116.089C600.132 115.4 602.355 117.332 604.55 119.5C602.717 121.893 601.14 124.474 599.883 127.187C598.88 127.246 597.879 127.332 596.883 127.477C596.046 124.891 593.984 122.509 591.541 120.448C592.526 118.31 594.318 116.584 596.749 116.089ZM590.298 119.449C587.815 117.55 585.099 115.975 582.917 114.848C582.692 114.732 582.466 114.631 582.241 114.522C584.644 109.314 591.439 106.809 596.565 105.258C599.919 104.242 603.597 103.622 607.038 104.609C610.373 105.566 612.172 107.809 614.454 110.16C611.236 112.333 608.309 114.971 605.797 117.951C604.082 114.895 600.013 113.427 596.638 114.094C593.633 114.687 591.376 116.773 590.298 119.449ZM624.94 104.808C624.902 104.934 624.898 105.054 624.909 105.169C621.792 106.102 618.794 107.457 615.995 109.169C613.292 101.75 603.585 100.876 597.068 102.737C591.233 104.405 583.009 107.601 580.805 113.88C577.9 112.683 574.948 112.067 571.945 111.993C570.722 106.163 577.882 100.011 582.129 96.9761C586.832 93.6144 592.395 91.3474 598.172 90.8139C603.601 90.313 609.143 91.3485 614.04 93.7401C616.476 94.93 618.756 96.4327 620.766 98.2551C622.417 99.7538 625.67 102.372 624.94 104.808ZM544.958 151.771C545.473 152.869 546.188 153.915 547.138 154.876C546.112 155.56 545.126 156.299 544.19 157.094C544.702 155.411 544.924 153.562 544.958 151.771ZM558.963 149.856C559.013 146.752 560.587 143.549 563.729 142.531C566.372 141.676 568.219 142.718 570.345 143.815C569.124 145.351 567.301 147.248 567.229 149.214C564.467 149.093 561.678 149.346 558.949 149.926C558.951 149.901 558.962 149.883 558.963 149.856ZM574.444 142.766C575.687 141.414 577.022 140.144 578.421 138.952C578.5 138.975 578.579 139 578.657 139.024C579.632 139.324 580.435 138.365 580.251 137.478C580.564 137.239 580.871 136.993 581.191 136.763C586.058 133.266 591.721 130.79 597.686 130.016C603.293 129.288 609.09 130.061 614.3 132.262C616.867 133.346 619.286 134.784 621.435 136.562C621.472 136.869 621.743 137.054 622.043 137.081C623.63 138.536 624.805 140.352 626.288 141.852C621.875 143.489 617.584 145.481 613.536 147.845C612.653 145.612 609.785 143.396 608.269 142.401C604.581 139.976 600.091 139.066 595.729 139.488C588.735 140.166 579.375 144.13 578.161 151.834C575.487 150.557 572.57 149.775 569.613 149.416C569.609 149.399 569.608 149.383 569.604 149.367C569.58 149.271 569.537 149.191 569.481 149.124C571.096 147.3 573.966 143.286 574.444 142.766ZM594.267 141.977C597.406 141.493 600.698 141.658 603.692 142.768C605.405 143.403 607.036 144.338 608.423 145.53C608.935 145.972 609.415 146.447 609.861 146.955C610.232 147.701 610.743 148.277 611.389 148.69C611.333 148.741 611.277 148.791 611.232 148.859C611.183 148.933 611.134 149.008 611.085 149.082C611.024 149.174 610.991 149.29 610.971 149.413C607.722 151.495 604.646 153.817 601.829 156.409C600.765 153.417 596.607 152.232 593.734 152.695C590.397 153.232 587.82 155.673 586.391 158.627C585.7 157.685 584.956 156.816 584.198 156.057C582.804 154.663 581.231 153.505 579.542 152.556C580.841 146.209 588.474 142.871 594.267 141.977ZM280.258 75.5256C286.396 76.2264 292.18 80.0228 293.098 86.4513C293.285 87.7629 295.572 87.7689 295.753 86.4513C296.859 78.4151 300.013 69.9434 307.033 65.2473C313.418 60.9767 322.627 60.9233 328.114 66.6717C328.962 67.5597 330.513 66.8767 330.512 65.6779C330.499 44.8173 342.177 22.3551 362.766 15.2118C380.781 8.96146 403.309 16.3017 411.649 34.0479C412.115 35.0408 413.752 35.0082 414.229 34.0479C418.007 26.4394 426.731 21.6512 435.219 23.3875C444.02 25.1892 450.269 33.6104 450.251 42.4286C450.248 43.8284 451.853 44.2857 452.818 43.4918C459.847 37.7097 470.137 36.1694 478.393 40.2409C486.195 44.0887 491.249 52.1962 491.64 60.8204C491.703 62.1944 493.217 62.7269 494.22 61.8885C502.006 55.3797 514.576 55.4768 521.923 62.6844C529.218 69.8425 529.643 81.8333 523.824 89.9655C523.177 90.8703 523.776 91.7305 524.605 91.9919C520.334 93.8153 516.417 96.4218 513.232 99.8608C513.015 100.095 512.805 100.346 512.592 100.589C511.405 98.0977 505.218 94.6637 504.194 94.241C498.019 91.688 491.1 91.787 484.757 93.6639C480.312 94.9795 475.139 97.3246 470.526 100.495C470.337 98.1432 467.25 96.4386 465.432 95.3002C462.404 93.4025 458.972 92.0938 455.472 91.391C448.255 89.9408 440.643 90.7931 433.903 93.7391C431.475 94.8003 429.192 96.1505 427.123 97.7582C424.43 94.4033 419.567 92.3423 415.53 91.4969C409.562 90.2476 403.24 91.3782 397.63 93.5778C388.124 97.3028 380.291 105.052 379.53 115.547C372.955 115.515 366.307 117.165 361.112 120.018C358.352 121.534 355.876 123.49 353.766 125.757C345.426 119.69 332.952 122.445 324.683 127.34C317.468 131.611 312.196 139.518 312.774 147.784C305.806 136.258 297.46 125.538 286.091 118.136C282.25 115.634 278.125 113.597 273.808 112.146C274.26 111.838 274.557 111.301 274.409 110.617C272.489 101.742 269.055 93.3827 264.599 85.5663C265.009 78.5795 273.961 74.8069 280.258 75.5256ZM52.4952 80.4138C48.2019 80.5821 43.8888 81.0275 39.5669 81.772C57.9675 49.658 91.4564 29.6716 126.84 21.3681C147.199 16.5908 167.602 17.351 187.304 24.4973C205.785 31.201 222.501 42.486 236.752 55.9202C252.869 71.1145 266.501 89.5072 271.601 111.39C271.608 111.419 271.62 111.442 271.628 111.469C268.208 110.492 264.683 109.882 261.092 109.713C259.65 109.646 258.213 109.646 256.78 109.692C256.813 109.531 256.811 109.355 256.75 109.162C254.421 101.71 249.818 94.6073 245.453 88.1847C241.16 81.868 236.354 75.8909 231.106 70.3414C220.229 58.8395 207.417 49.1254 193.351 41.8535C177.46 33.6371 159.855 27.8818 141.791 29.4013C123.673 30.9248 104.597 35.318 88.1937 43.2651C72.4678 50.8855 58.1605 63.4743 52.4952 80.4138ZM64.8781 80.6702C61.4025 80.3901 57.9051 80.29 54.3939 80.3623C68.4764 48.1998 105.669 36.5485 137.972 32.7195C170.333 28.8836 202.869 46.6892 225.404 68.8001C231.409 74.6911 236.896 81.1127 241.737 87.9936C246.641 94.9646 250.193 102.577 254.617 109.801C246.216 110.349 237.94 112.395 229.567 113.265C225.652 113.672 221.533 113.778 217.467 113.395C217.992 113.06 218.392 112.453 218.594 111.703C219.289 109.115 217.129 105.094 216.238 102.727C213.758 96.1407 210.627 89.7972 206.863 83.8498C199.54 72.2776 189.915 62.1864 178.494 54.5997C154.987 38.9847 124.26 36.0446 98.4383 47.7079C84.1835 54.1453 70.6414 65.7987 64.8781 80.6702ZM66.8698 80.8454C73.332 69.3792 81.9334 59.869 93.4937 53.2702C104.488 46.9951 117.099 43.7165 129.728 43.3661C155.221 42.6573 178.957 54.368 195.53 73.4685C200.089 78.724 204.09 84.4438 207.471 90.5258C209.244 93.7154 210.848 96.9989 212.262 100.363C212.957 102.015 213.606 103.686 214.208 105.375C214.579 106.413 215.459 110.806 216.36 111.137C215.175 110.701 214.424 112.311 215.153 113.123C214.441 113.021 213.731 112.903 213.026 112.766C215.336 108.184 203.38 92.4205 201.601 90.2397C194.143 81.0988 184.838 73.4527 174.52 67.7478C154.145 56.4825 128.506 52.1011 106.132 59.8126C94.8024 63.7168 83.5915 71.2709 78.927 82.7183C74.9456 81.8779 70.9225 81.2483 66.8698 80.8454ZM80.309 83.0222C91.1753 64.3197 113.786 57.7397 134.437 58.8643C155.293 59.9997 175.578 68.9723 190.883 83.1094C195.192 87.0888 199.136 91.4801 202.556 96.2475C203.491 97.5503 212.28 111.058 210.434 111.704C210.228 111.776 210.064 111.897 209.935 112.045C206.259 111.016 202.776 109.432 199.71 107.105C199.35 106.832 198.925 107.415 199.235 107.721C201.051 109.516 202.961 110.963 204.947 112.124C204.964 112.153 204.971 112.181 204.994 112.209C205.805 113.176 206.628 114.143 207.462 115.107C205.753 113.332 203.915 111.667 201.92 110.143C200.559 109.105 199.157 108.181 197.724 107.353C198.148 107.203 198.485 106.84 198.44 106.325C197.596 96.4891 187.695 87.8867 180.238 82.5827C170.536 75.683 159.303 70.3265 147.687 67.6329C127.511 62.9546 102.867 67.5063 90.7783 85.8574C87.3285 84.7546 83.8341 83.8112 80.309 83.0222ZM183.741 122.449C190.248 124.691 196.589 127.408 202.583 130.801C205.521 132.464 208.371 134.281 211.1 136.27C212.693 137.43 214.244 138.649 215.744 139.926C216.313 140.41 216.898 140.891 217.435 141.41C217.984 141.94 218.778 143.268 219.533 143.629C219.556 143.658 219.58 143.685 219.601 143.714C219.521 143.719 219.443 143.733 219.37 143.758C215.728 141.815 211.893 140.179 208.185 138.663C200.602 135.561 192.79 133.075 185.054 130.392C170.893 125.479 157.187 119.563 143.703 113.086C157.175 115.771 170.68 117.948 183.741 122.449ZM153.779 113.138C163.636 112.956 173.84 110.36 183.464 112.472C192.279 114.407 198.878 121.025 205.072 127.177C207.36 129.448 209.588 131.783 211.752 134.174C206.075 130.123 199.905 126.779 193.493 124.038C180.94 118.671 167.385 115.345 153.779 113.138ZM215.965 135.76C213.096 132.431 210.097 129.216 206.971 126.125C201.166 120.388 194.88 114.025 186.944 111.415C173.007 106.833 158.364 112.891 144.143 110.809C146.823 110.861 149.509 110.756 152.207 110.462C158.169 109.812 163.866 108.127 169.677 106.736C176.025 105.216 182.392 104.445 188.76 106.277C194.015 107.79 198.774 110.727 202.834 114.351C206.899 117.979 210.332 122.265 213.173 126.905C215.762 131.134 217.574 135.716 219.752 140.142C218.497 138.647 217.198 137.191 215.965 135.76ZM92.3414 86.3652C105.969 70.2998 127.435 65.4076 147.554 70.3443C158.109 72.934 168.068 77.7747 177.069 83.8171C181.353 86.6938 185.416 89.9784 188.821 93.8737C192.239 97.7839 193.833 101.997 196.127 106.48C189.281 102.962 181.715 101.793 173.784 103.173C170.502 103.743 167.288 104.607 164.071 105.459C164.207 105.243 164.278 104.971 164.229 104.649C163.761 101.568 161.711 98.4531 160.066 95.8496C158.33 93.1046 156.326 90.506 154.05 88.1866C149.29 83.336 143.306 79.6921 136.644 78.1924C130.32 76.7679 123.61 77.1877 117.715 79.9842C114.474 81.5215 111.64 83.8933 108.972 86.2632C107.257 87.7867 105.602 89.4616 105.916 91.7365C101.478 89.7022 96.9475 87.9025 92.3414 86.3652ZM109.938 93.646C109.93 93.6045 109.926 93.5609 109.918 93.5193C109.873 93.2827 109.551 93.2382 109.399 93.3847C108.765 93.0739 108.13 92.769 107.493 92.4671C107.494 92.4295 107.506 92.3988 107.501 92.3582C107.047 88.7628 112.858 85.5792 115.425 83.9706C117.846 82.454 120.436 81.2998 123.22 80.6306C128.824 79.2843 134.782 79.8595 140.148 81.8997C145.391 83.8924 149.944 87.365 153.638 91.5494C155.417 93.5649 156.989 95.7536 158.376 98.0551C159.804 100.427 160.704 103.235 162.32 105.454C162.442 105.621 162.585 105.727 162.735 105.807C159.988 106.525 157.231 107.205 154.42 107.651C153.162 107.851 151.898 108.005 150.63 108.136C150.659 108.078 150.691 108.027 150.709 107.956C151.76 103.891 149.162 98.6818 146.795 95.4843C144.184 91.9572 140.415 89.1776 136.097 88.1847C128.545 86.4474 120.014 90.2219 117.028 97.4127C114.694 96.0971 112.333 94.8339 109.938 93.646ZM123.029 161.871C122.926 166.374 122.859 170.879 122.824 175.383C122.538 169.562 122.294 163.737 122.158 157.904C121.731 139.697 122.21 121.475 121.777 103.275C123.31 104.227 124.823 105.213 126.325 106.216C124.3 124.68 123.453 143.312 123.029 161.871ZM133.382 107.986C128.501 104.41 123.416 101.085 118.164 98.0621C121.66 92.0028 129.019 88.6103 135.927 90.4704C139.777 91.5068 143.087 94.1944 145.294 97.4701C147.575 100.854 147.63 104.318 148.954 107.958C149.001 108.089 149.08 108.194 149.168 108.287C143.916 108.726 138.611 108.601 133.382 107.986ZM138.958 110.513C139.661 110.832 140.366 111.125 141.077 111.376C140.685 111.33 140.292 111.28 139.9 111.236C139.364 110.974 138.825 110.716 138.289 110.452C138.512 110.475 138.736 110.492 138.958 110.513ZM139.784 112.875C139.443 112.607 139.102 112.339 138.761 112.07C138.765 112.071 138.767 112.074 138.771 112.075C138.909 112.105 139.049 112.133 139.187 112.161C152.74 119.736 167.051 126.051 181.644 131.301C189.208 134.022 196.896 136.396 204.415 139.239C209.348 141.104 213.931 143.332 218.441 145.768C215.587 145.256 212.71 144.934 209.818 144.715C206.902 144.173 203.997 143.534 201.098 142.713C193.395 140.533 185.948 137.584 178.682 134.239C165.19 128.028 152.73 120.076 139.784 112.875ZM156.747 127.728C153.533 124.566 150.22 121.535 146.857 118.662C157.249 125.393 168.167 131.516 179.334 136.649C185.284 139.384 191.623 142.004 198.14 144.078C193.343 143.815 188.559 143.421 183.847 142.406C173.756 140.234 164.989 134.184 156.747 127.728ZM163.904 135.221C169.223 138.997 174.883 142.145 181.029 143.831C189.66 146.198 198.628 146.078 207.507 146.607C210.923 147.356 214.358 147.907 217.786 148.197C218.01 148.326 218.236 148.442 218.463 148.55C216.218 148.198 213.949 147.981 211.666 147.926C205.365 147.775 199.094 148.613 192.823 149.072C189.52 149.313 186.206 149.454 182.894 149.291C179.914 149.145 177.014 148.404 174.063 148.165C170.998 143.658 167.57 139.339 163.904 135.221ZM265.327 203.39C264.217 202.863 263.242 202.407 263.104 202.343C261.116 201.416 259.152 200.439 257.207 199.42C253.151 197.296 249.189 194.994 245.296 192.584C237.62 187.834 230.197 182.69 222.754 177.585C210.097 168.903 196.949 159.995 182.564 154.315C197.51 157.948 212.886 160.543 226.645 167.66C242.714 175.973 252.772 191.004 265.327 203.39ZM258.073 181.446C260.247 186.138 261.153 191.819 263.121 196.804C258.813 192.171 254.278 187.697 249.983 183.2C243.523 176.436 236.65 170.265 228.317 165.896C212.196 157.446 193.709 155.019 176.111 151.314C175.903 150.984 175.703 150.651 175.492 150.323C179.68 151.899 184.873 151.834 189.076 151.727C195.369 151.566 201.618 150.667 207.911 150.501C218.749 150.215 229.123 153.024 238.258 158.904C246.78 164.391 253.804 172.236 258.073 181.446ZM225.151 150.045C225.254 149.946 225.329 149.815 225.37 149.672C225.898 149.98 226.425 150.28 226.957 150.593C227.144 150.703 227.341 150.714 227.519 150.662C227.591 150.727 227.66 150.794 227.733 150.857C226.88 150.562 226.018 150.297 225.151 150.045ZM246.989 162.191C247.258 162.265 247.527 162.323 247.796 162.391C247.649 162.443 247.529 162.517 247.436 162.609C247.285 162.471 247.141 162.327 246.989 162.191ZM250.834 161.022C249.413 160.662 247.998 160.261 246.592 159.817C246.681 159.4 246.561 158.954 246.11 158.744C240.752 156.248 235.262 153.766 230.624 150.036C225.612 146.005 222.891 140.588 220.288 134.851C217.636 129.007 214.455 123.413 210.446 118.481C221.989 131.263 235.712 143.083 252.175 148.263C271.078 154.211 291.54 152.042 310.306 158.287C290.462 155.603 270.496 163.987 250.834 161.022ZM261.862 137.956C245.671 133.441 230.036 128.129 215.548 119.552C231.033 125.71 248.835 124.452 264.901 128.647C274.081 131.043 282.837 134.894 290.843 139.979C296.15 143.35 300.836 147.248 305.238 151.512C291.277 145.643 276.409 142.012 261.862 137.956ZM308.628 155.374C308.809 155.452 308.986 155.476 309.155 155.466C309.201 155.514 309.248 155.561 309.293 155.608C292.173 150.133 273.491 151.618 256.092 147.057C239.929 142.821 227.861 132.565 216.236 121.52C229.242 129.961 244.404 134.96 259.152 139.314C275.824 144.237 292.597 148.538 308.628 155.374ZM313.691 157.184C302.722 143.021 286.036 132.69 269.063 127.553C250.055 121.8 229.367 123.954 210.878 116.377C209.953 115.485 209.027 114.593 208.099 113.703C225.81 121.214 248.634 109.409 267.16 113.022C290.637 117.6 304.504 138.267 315.434 157.917C314.854 157.663 314.274 157.419 313.691 157.184ZM325.819 158.756C323.433 158.739 321.034 158.541 318.618 158.112C317.37 155.774 316.08 153.442 314.748 151.131C313.06 142.081 318.523 133.673 326.402 129.226C333.948 124.967 344.445 122.819 352.133 127.664C350.679 129.517 349.452 131.533 348.492 133.655C346.719 133.089 344.01 134.03 342.456 134.534C338.698 135.754 335.265 137.907 332.478 140.704C329.704 143.487 327.568 146.909 326.381 150.661C325.682 152.873 324.67 156.434 325.819 158.756ZM327.434 158.743C326.1 156.21 327.817 152.012 328.875 149.692C329.996 147.229 331.574 144.949 333.443 142.995C335.317 141.036 337.515 139.381 339.934 138.153C340.362 137.936 346.303 136.142 347.574 135.944C346.333 139.488 345.823 143.259 346.209 147.019C346.185 147.01 346.166 146.997 346.14 146.989C339.963 145.017 334.439 152.186 338.48 157.365C334.829 158.125 331.149 158.644 327.434 158.743ZM339.725 157.097C339.713 157.051 339.705 157.005 339.681 156.959C337.28 152.67 340.594 147.543 345.578 149.028C345.945 149.137 346.249 149.054 346.472 148.873C346.84 150.88 347.465 152.873 348.385 154.816C345.515 155.66 342.63 156.447 339.725 157.097ZM360.514 151.205C360.459 148.438 359.981 145.951 360.681 143.155C361.432 140.151 363.054 137.4 365.443 135.411C368.04 133.25 371.51 131.776 374.826 131.213C379.345 130.445 382.643 131.884 385.094 135.654C385.706 136.596 387.193 136.008 386.919 134.885C384.684 125.735 371.773 128.606 366.137 132.093C360.453 135.611 355.331 145.069 359.375 151.522C357.568 152.033 355.768 152.574 353.969 153.126C352.658 153.529 351.341 153.933 350.022 154.329C344.963 141.903 351.267 128.008 362.832 121.919C368.421 118.977 374.896 117.739 381.183 118.195C388.4 118.719 393.813 121.602 399.032 126.253C395.969 127.702 393.124 129.622 390.618 131.913C388.183 134.141 386.06 136.754 384.43 139.627C384.296 139.863 384.156 140.11 384.015 140.363C381.223 137.106 374.726 139.098 371.979 141.391C370.357 142.744 368.729 144.905 368.662 147.117C368.637 147.932 368.925 148.684 369.409 149.106C366.42 149.665 363.459 150.392 360.514 151.205ZM371.678 148.721C371.822 148.279 371.414 147.747 370.898 148.047C370.106 148.507 371.24 145.409 371.268 145.361C371.602 144.777 372.033 144.248 372.503 143.77C373.533 142.721 374.825 141.96 376.214 141.494C377.357 141.11 378.609 140.927 379.815 141.037C381.02 141.148 382.046 141.718 383.211 141.871C382.262 143.769 381.486 145.898 381.884 147.802C381.899 147.871 381.935 147.926 381.983 147.969C378.496 147.901 375.067 148.194 371.678 148.721ZM382.453 147.982C382.464 147.973 382.48 147.972 382.49 147.961C384.181 146.179 384.854 143.298 386.128 141.178C387.649 138.647 389.499 136.335 391.632 134.292C396.183 129.929 402.054 126.913 408.32 126.04C414.566 125.17 421.032 126.517 426.551 129.53C429.204 130.978 431.646 132.784 433.78 134.926C435.572 136.723 436.802 138.891 438.302 140.859C433.754 141.074 429.051 142.184 424.754 144.149C423.131 136.891 413.434 134.959 407.267 136.321C400.8 137.75 393.442 142.059 392.161 149.034C388.96 148.429 385.712 148.071 382.453 147.982ZM395.029 149.638C395.404 149.381 395.226 148.773 394.712 148.871C394.481 148.895 394.249 148.92 394.017 148.945C396.098 143.512 401.101 140.26 406.688 138.799C410.201 137.881 414.065 137.722 417.405 139.351C420.079 140.654 421.433 142.679 422.734 145.146C420.548 146.324 418.5 147.733 416.678 149.375C416.631 149.24 416.558 149.107 416.448 148.982C412.247 144.173 404.604 146.156 403.118 152.128C400.481 151.117 397.776 150.289 395.029 149.638ZM408.323 154.392C407.148 153.815 405.952 153.28 404.743 152.778C406.081 148.194 411.577 146.884 414.885 150.545C414.989 150.659 415.1 150.738 415.212 150.795C413.717 152.358 412.405 154.091 411.354 156.005C410.367 155.44 409.357 154.9 408.323 154.392ZM433.665 175.32C433.531 175.455 433.47 175.616 433.461 175.78C432.407 174.565 431.358 173.345 430.294 172.142C429.422 171.156 428.537 170.188 427.639 169.237C429.342 166.803 432.266 165.328 435.256 166.194C437.76 166.92 438.451 169.107 440.388 170.405C440.46 170.454 440.533 170.483 440.605 170.5C438.026 171.725 435.668 173.315 433.665 175.32ZM451.017 167.587C447.638 168.009 444.343 168.842 441.33 170.173C441.412 170.053 441.47 169.916 441.488 169.774C441.885 166.616 437.414 164.217 434.761 163.913C431.375 163.525 428.257 165.277 426.554 168.102C424.754 166.254 422.887 164.496 420.944 162.832C424.934 157.527 431.141 154.119 437.916 155.039C441.034 155.462 443.957 156.76 446.404 158.732C448.648 160.543 452.418 164.406 451.017 167.587ZM453.832 167.327C455.502 161.354 445.952 154.763 441.314 153.366C433.2 150.924 424.031 154.548 419.901 161.953C417.669 160.116 415.329 158.415 412.848 156.891C419.129 149.087 427.574 144.053 437.76 143.485C442.772 143.206 447.875 144.021 452.461 146.103C454.771 147.151 456.976 148.516 458.859 150.223C460.87 152.044 461.959 154.273 463.458 156.392C460.671 159.419 458.789 163.124 458.642 167.316C457.044 167.23 455.435 167.238 453.832 167.327ZM460.312 167.438C462.169 159.299 468.25 153.568 476.427 151.179C480.835 149.891 485.452 149.55 490.028 149.628C492.607 149.672 495.316 149.776 497.639 151.033C499.539 152.06 500.607 153.699 502.066 155.144C502.044 155.164 502.02 155.181 501.999 155.201C500.495 156.548 499.165 158.078 497.968 159.706C494.076 154.826 485.95 155.673 480.854 157.829C476.23 159.785 469.731 163.944 470.693 169.64C467.497 168.524 463.956 167.766 460.312 167.438ZM481.166 175.492C478.478 173.302 475.448 171.503 472.189 170.201C471.253 164.464 479.105 160.718 483.545 159.328C488.711 157.712 492.378 158.974 496.695 161.545C496.533 161.792 496.373 162.04 496.218 162.29C495.862 162.861 494.062 166.746 492.789 169.225C490.309 166.506 486.001 165.176 482.869 167.439C480.504 169.149 479.508 173.111 481.166 175.492ZM483.565 176.045C481.568 174.157 481.873 170.474 484.323 169.05C486.903 167.55 489.467 169.129 491.222 171.093C491.159 171.143 491.104 171.199 491.074 171.266C490.888 171.687 490.799 171.901 490.792 172.355C490.792 172.387 490.8 172.416 490.802 172.448C488.025 173.24 485.397 174.526 483.743 176.409C483.741 176.288 483.688 176.161 483.565 176.045ZM506.773 195.157C505.446 192.401 502.555 190.388 499.419 190.424C496.395 190.46 493.883 192.305 492.594 194.837C492.167 192.069 491.337 189.413 490.174 186.92C492.349 184.719 495.24 183.242 498.378 183.054C502.549 182.804 505.631 184.734 508.733 187.278C508.815 187.345 508.904 187.392 508.996 187.432C508.234 189.336 507.069 192.686 506.773 195.157ZM510.007 185.365C504.76 178.699 494.859 179.676 489.338 185.266C487.963 182.731 486.232 180.389 484.223 178.296C486.063 177.434 487.71 176.09 489.635 175.332C492.421 174.234 495.458 173.72 498.449 173.875C504.329 174.182 509.073 177.01 513.065 181.134C511.929 182.448 510.902 183.86 510.007 185.365ZM514.765 179.324C513.361 177.604 511.652 176.131 509.757 174.937C510.303 172.389 512.18 170.129 514.953 169.946C518.077 169.74 519.723 171.875 521.122 174.3C521.155 174.356 521.201 174.395 521.243 174.44C518.883 175.79 516.698 177.427 514.765 179.324ZM525.282 172.483C524.476 172.806 523.688 173.169 522.913 173.554C522.44 169.866 518.386 167.291 514.803 167.707C511.419 168.1 508.872 170.883 508.333 174.119C506.203 172.985 503.889 172.187 501.533 171.767C501.6 171.712 501.664 171.65 501.719 171.561C505.33 165.668 510.944 160.307 518.293 160.212C521.506 160.171 524.703 161.292 527.241 163.25C529.832 165.25 530.891 167.706 531.864 170.652C529.464 171.079 527.218 171.706 525.282 172.483ZM533.886 170.346C534.282 167.572 531.994 164.375 530.199 162.59C527.51 159.915 523.86 158.291 520.101 157.926C511.576 157.101 503.749 163.299 500.436 170.81C500.3 171.118 500.365 171.406 500.524 171.614C500.015 171.548 499.505 171.492 498.996 171.463C497.653 171.383 496.037 171.462 494.349 171.701C494.343 171.685 494.342 171.669 494.335 171.654C494.316 171.606 494.29 171.561 494.27 171.513C494.67 170.759 494.967 169.893 495.349 169.125C496.603 166.608 497.97 164.134 499.608 161.844C503.327 156.643 508.401 152.899 514.842 152.024C520.847 151.208 526.942 152.839 531.815 156.423C533.84 157.913 535.642 159.718 537.176 161.715C537.038 162.318 537.554 163.002 538.192 163.118C538.223 163.163 538.255 163.207 538.286 163.252C539.744 165.436 540.562 167.886 541.847 170.133C539.182 169.928 536.472 170.019 533.886 170.346ZM565.851 175.768C563.622 177.508 561.609 179.524 559.911 181.78C559.12 179.246 557.76 177.193 556.013 175.548C557.371 173.905 559.153 172.34 561.34 172.217C564.047 172.064 564.89 173.737 565.911 175.723C565.891 175.738 565.871 175.752 565.851 175.768ZM567.77 174.385C567.475 172.146 564.511 170.417 562.473 170.246C559.293 169.98 556.69 172.157 554.935 174.615C553.167 173.232 551.082 172.204 548.826 171.471C550.17 164.999 557.282 161.97 563.439 162.637C566.106 162.926 568.699 163.809 570.963 165.255C573.055 166.591 574.294 169.113 576.405 170.185C573.342 171.159 570.432 172.586 567.77 174.385ZM577.413 169.878C577.445 169.799 577.468 169.714 577.467 169.616C577.446 166.789 573.972 164.363 571.75 163.025C568.776 161.234 565.282 160.269 561.81 160.286C555.422 160.319 548.125 164.238 547.385 171.05C546.259 170.755 545.103 170.519 543.923 170.356C544.046 170.13 544.107 169.861 544.066 169.57C543.728 167.15 542.609 164.692 541.103 162.412C547.962 155.854 556.551 151.353 566.281 151.558C571.642 151.671 577.176 153.23 581.294 156.792C585.191 160.164 586.201 163.946 587.382 168.54C584.124 168.125 579.985 169.15 577.413 169.878ZM590.365 169.571C590.168 169.434 589.959 169.311 589.739 169.203C590.219 166.027 589.012 162.655 587.194 159.803C588.66 157.522 590.606 155.429 593.395 154.88C596.549 154.26 598.211 155.965 600.344 157.82L600.345 157.821C598.45 159.686 596.678 161.672 595.059 163.79C593.413 165.941 591.954 168.253 590.715 170.676C590.872 170.306 590.766 169.85 590.365 169.571ZM591.424 179.542C593.665 175.106 596.809 171.157 600.532 167.873C608.491 160.854 618.766 156.998 628.923 154.448C648.738 149.473 670.034 149.532 687.913 160.375C688.358 160.644 688.784 160.622 689.123 160.437C686.004 162.954 683.159 165.771 680.707 168.937C680.617 168.852 680.512 168.773 680.376 168.709C663.577 160.689 643.729 159.394 625.784 163.945C616.753 166.235 608.044 170.047 600.359 175.328C596.349 178.084 592.234 181.397 589.402 185.44C589.386 185.287 589.344 185.141 589.277 185.005C589.836 183.127 590.539 181.293 591.424 179.542ZM672.072 194.196C665.052 185.045 653.545 179.697 642.051 178.365C624.237 176.301 606.152 183.945 591.113 193.219C601.37 184.039 612.957 177.166 626.724 174.291C634.663 172.634 642.904 172.401 650.932 173.522C654.902 174.076 658.821 174.958 662.645 176.159C666.525 177.376 670.115 179.338 673.959 180.576C674.051 180.604 674.136 180.618 674.218 180.625C672.635 185.014 671.863 189.601 672.072 194.196ZM651.259 171.11C643.066 169.983 634.721 170.212 626.61 171.843C612.355 174.708 597.995 182.185 588.282 193.252C588.26 192.958 588.247 192.667 588.232 192.375C590.883 184.965 597.618 179.757 604.191 175.679C611.513 171.135 619.566 167.877 627.957 165.929C645.177 161.931 662.972 163.803 679.116 170.864C679.166 170.885 679.216 170.897 679.265 170.912C678.42 172.134 677.624 173.399 676.897 174.719C676.157 176.062 675.5 177.436 674.919 178.831C674.87 178.778 674.817 178.73 674.755 178.685C668.354 174.118 658.901 172.162 651.259 171.11ZM753.186 178.383C753.076 178.329 752.956 178.281 752.813 178.254C739.123 175.659 724.908 176.67 711.653 180.944C698.972 185.034 686.06 192.257 677.378 202.597C674.589 198.517 692.323 185.913 694.568 184.39C700.891 180.098 707.726 176.577 714.907 173.961C721.91 171.41 729.239 169.665 736.652 168.88C740.417 168.482 744.206 168.316 747.992 168.393C751.768 168.469 755.554 169.23 759.307 169.215C759.496 169.214 759.661 169.173 759.805 169.107C757.352 172.015 755.132 175.118 753.186 178.383ZM760.394 168.422C760.579 167.84 760.349 167.115 759.621 166.893C755.376 165.6 750.332 165.699 745.926 165.716C741.675 165.733 737.432 166.063 733.225 166.663C724.233 167.945 715.467 170.55 707.201 174.309C698.946 178.062 691.257 183.012 684.465 189.023C681.401 191.735 677.922 194.81 675.657 198.249C675.549 198.412 675.453 198.594 675.362 198.783C673.635 180.879 694.724 169.035 709.636 163.868C718.88 160.665 728.587 158.85 738.365 158.502C743.02 158.336 747.691 158.494 752.323 158.986C757.288 159.512 762.258 161.253 767.199 161.5C767.239 161.502 767.275 161.497 767.314 161.495C764.852 163.641 762.533 165.952 760.394 168.422ZM778.061 153.798C774.614 155.777 771.357 158.073 768.315 160.626C768.457 160.13 768.323 159.557 767.795 159.295C763.303 157.067 757.28 156.675 752.323 156.161C746.917 155.602 741.463 155.491 736.037 155.822C725.06 156.491 714.189 158.918 704.011 163.092C694.809 166.865 685.408 171.894 679.187 179.883C677.273 182.342 675.749 185.116 674.748 188.037C675.877 181.906 678.572 176.015 682.305 171.078C689.232 161.911 699.597 155.859 710.092 151.623C732.121 142.727 758.018 139.03 778.329 153.652C778.239 153.701 778.148 153.748 778.061 153.798ZM777.718 143.084C777.387 145.253 777.406 147.493 777.874 149.78C762.163 138.834 741.251 139.306 723.385 144.278C717.58 145.894 711.602 147.913 705.854 150.474C713.902 141.226 724.344 136.411 736.25 133.536C743.011 131.903 749.943 130.699 756.866 130.052C760.624 129.702 764.4 129.544 768.173 129.686C771.734 129.82 775.212 130.616 778.734 130.906C777.552 134.854 777.145 138.992 777.718 143.084ZM789.667 114.313C785.17 118.16 781.598 123.161 779.508 128.637C772.544 126.031 763.395 126.819 756.239 127.529C748.965 128.251 741.676 129.504 734.596 131.331C723.576 134.176 711.26 139.197 704.594 148.983C705.387 144.994 709.835 142.223 712.899 139.901C715.626 137.835 718.445 135.885 721.361 134.093C727.563 130.28 734.189 127.147 741.073 124.777C747.782 122.468 754.745 120.85 761.793 120.024C765.372 119.606 768.977 119.388 772.581 119.371C776.15 119.354 779.837 119.994 783.376 119.728C784.521 119.642 784.833 118.019 783.654 117.674C779.868 116.568 775.417 116.807 771.5 116.866C767.535 116.925 763.578 117.238 759.648 117.77C751.491 118.874 743.481 120.971 735.832 124.017C728.359 126.992 721.235 130.833 714.704 135.533C711.575 137.785 708.441 140.221 705.717 142.953C704.209 144.465 702.41 146.681 702.931 148.8C702.689 148.639 702.441 148.485 702.196 148.326C702.198 148.075 702.216 147.833 702.225 147.586C702.313 147.544 702.405 147.497 702.501 147.44C702.703 147.322 702.828 147.05 702.753 146.821C702.717 146.707 702.68 146.594 702.642 146.48C702.584 146.301 702.449 146.208 702.303 146.185C703.823 128.558 722.639 121.184 737.984 116.824C747.194 114.208 756.648 112.445 766.183 111.578C770.585 111.178 775.005 110.966 779.425 110.941C784.097 110.914 788.919 111.625 793.568 111.344C792.218 112.262 790.912 113.246 789.667 114.313ZM800.169 99.1461C806.554 99.7519 812.712 101.154 818.998 102.256C815.13 102.735 811.312 103.634 808.011 104.602C803.391 105.958 798.947 107.919 794.884 110.49C795.002 110.017 794.819 109.494 794.201 109.342C789.331 108.149 783.787 108.457 778.794 108.509C773.531 108.563 768.272 108.881 763.041 109.464C752.681 110.617 742.432 112.762 732.502 115.94C726.029 118.012 719.357 120.426 713.645 124.234C714.701 123.144 715.793 122.091 716.928 121.087C724.87 114.051 734.585 109.022 744.578 105.601C756.513 101.516 769.054 99.2005 781.653 98.6649C787.827 98.4036 794.017 98.563 800.169 99.1461Z" fill="#00253F"/>
</svg>
