<svg width="18" height="18" viewBox="0 0 18 18" fill="none" xmlns="http://www.w3.org/2000/svg">
<path d="M13.6879 7.875H14.7302C16.1189 7.875 16.5316 8.07413 16.4981 9.06285C16.4428 10.7006 15.7042 12.6035 12.75 13.125" stroke="#B9B9B9" stroke-linecap="round"/>
<path d="M4.4597 15.4609C1.92889 13.515 1.55601 10.7551 1.50107 7.87508C1.47734 6.63098 1.83844 6.375 3.49439 6.375H11.5056C13.1615 6.375 13.5226 6.63098 13.4989 7.87508C13.444 10.7551 13.0711 13.515 10.5403 15.4609C9.82005 16.0146 9.21232 16.125 8.18955 16.125H6.81048C5.78764 16.125 5.17993 16.0146 4.4597 15.4609Z" stroke="#B9B9B9" stroke-linecap="round"/>
<path d="M7.5 6.375V10.125M6.37818 12.2225L6.59712 10.8338C6.66124 10.4271 7.04569 10.125 7.49913 10.125C7.95255 10.125 8.337 10.4271 8.40112 10.8338L8.62005 12.2225C8.7381 12.9708 6.2746 12.8795 6.37818 12.2225Z" stroke="#B9B9B9" stroke-linecap="round" stroke-linejoin="round"/>
<path d="M8.48167 1.875C8.07165 2.12896 7.5009 3 7.5009 4.125M5.65478 3C5.65478 3 5.25 3.375 5.25 4.125M10.5009 3C10.2959 3.12698 10.125 3.75 10.125 4.125" stroke="#B9B9B9" stroke-linecap="round" stroke-linejoin="round"/>
</svg>
